<svg id="Layer_1" data-name="Layer 1" xmlns="http://www.w3.org/2000/svg" xmlns:xlink="http://www.w3.org/1999/xlink" viewBox="0 0 470.24 312.18"><defs><style>.cls-1{fill:none;}.cls-2{fill:url(#radial-gradient);}.cls-3{fill:#404040;}.cls-4{fill:#212121;}.cls-5{clip-path:url(#clip-path);}.cls-6{fill:#49a1da;}.cls-7{fill:#90d6e6;}.cls-8{fill:#fff;}.cls-9{fill:#010101;}</style><radialGradient id="radial-gradient" cx="235.12" cy="159.05" r="199.48" gradientUnits="userSpaceOnUse"><stop offset="0.01" stop-color="#fff"/><stop offset="0.21" stop-color="#fafafa"/><stop offset="0.45" stop-color="#ecebeb"/><stop offset="0.71" stop-color="#d6d3d3"/><stop offset="0.99" stop-color="#b6b1b2"/><stop offset="1" stop-color="#b4afb0"/></radialGradient><clipPath id="clip-path" transform="translate(0 -2.75)"><path class="cls-1" d="M449.12,30.2c5.53-.4,5.79,28.08,11.28,28.89,4.92.73-8.89,43.94-4.24,45.72a26.26,26.26,0,0,1,5.67,3.15c1.69,1.18,1.88,3.29,1.05,5.2-1.45,3.35-4.14,5.52-7.07,7.36A74.48,74.48,0,0,1,439,128.65c-4.28,1.38-8.47,3.06-12.79,4.29-5.75,1.64-11.6,2.94-17.4,4.42-22.7,5.81-45.78,9.32-69.05,11.78-3.68.39-7.34,1-11,1.4-8.92.93-17.82,2-26.82,2-6.65,0-13.29.61-19.93.74-7.13.14-14.26.08-21.38.05-11.78-.06-23.57,0-35.34-.3-9.44-.24-18.87-.86-28.3-1.41-7.51-.44-15-1-22.51-1.59-5.43-.42-10.87-.83-16.28-1.49q-16.32-2-32.6-4.27c-18.49-2.6-36.7-6.66-54.86-10.93-8.41-2-16.76-4.18-25.14-6.28-3.09-.78-6.26-1.34-9.28-2.36-7.09-2.4-13.89-5.41-19.55-10.49a16.17,16.17,0,0,1-2.43-2.79c-1.7-2.46-1.28-4.93,1.42-6.21C18.18,104,10.64-.15,13.29-.84,15-1.27,96.27-3.8,98-4c0,.16,113.05-.16,113.08,0C209.64-3.65,451.31,30.42,449.12,30.2Z"/></clipPath></defs><title>bathtub</title><path class="cls-2" d="M49.33,98.67a301.76,301.76,0,0,1,31.51,2.13c8.17,1.1,16.37,2,24.54,3.12,3.73.51,7.41,1.43,11.13,2,7.2,1.19,14.4,2.39,21.63,3.42,9.78,1.39,19.57,2.87,29.39,3.85,13.86,1.4,27.78,1.83,41.71,2.09,2.31,0,2.29.07,2.15-2.21-.37-6.23-.6-12.48-1.13-18.7-.73-8.53-.68-17.06-.56-25.6.07-5.24.27-10.46,1.69-15.55a2.79,2.79,0,0,0,0-2.25,2.08,2.08,0,0,1,.87-2.69c1.66-.89,2-2.52,2.56-4,2.52-6.09,7.07-9.78,13.3-11.54,1.43-.41,2.87-.75,4.3-1.13a4.42,4.42,0,0,1,3.23.46,8.3,8.3,0,0,0,2.89.43c.16,0,.49-.46.49-.7,0-3.43-.07-6.86-.19-10.29,0-.21-.58-.57-.9-.57-2.1-.06-4.21-.06-6.32,0a2.24,2.24,0,0,1-2.12-1.24q-2.18-3.72-4.43-7.38c-.78-1.26-1.42-1.29-2.08,0s-1.36,2.76-.21,4.37a4.63,4.63,0,0,1,.28,2.56,5.25,5.25,0,0,0,1.69,3.71,9.2,9.2,0,0,1,2.14,3.87c.44,1.89-1.87,4.42-3.82,4.43a22.48,22.48,0,0,1-9.88-1.83,4.09,4.09,0,0,1-2-1.57,12.1,12.1,0,0,1-.79-3.71c0-.3.47-.77.84-1,2.3-1.33,4.58-2.64,5.92-5.1.43-.78,1-1.47,1.51-2.23a2.4,2.4,0,0,0,.35-1c.23-2.48,1-4.59,3.36-5.88.24-.13.33-.66.37-1,.15-1.4.67-1.63,2-1.32a9.68,9.68,0,0,0,2.88-.11c.86-.08,1.74-.16,2.59-.32,2.48-.48,5-.82,7.43-1.54a32,32,0,0,1,13.87-1.3A23.21,23.21,0,0,1,256,4.9c.94.33,1.84.76,2.77,1.12a.83.83,0,0,0,.62,0,8.49,8.49,0,0,1,8.34.31,1.32,1.32,0,0,0,.71.15c4.5-.29,7.3,2.24,9.33,5.81a25.54,25.54,0,0,1,3.31,12.94c-.06,9-.28,18-.47,27-.19,9.49-.46,19-.64,28.46-.21,10.76-.36,21.53-.56,32.29,0,1,.55.75,1.07.71l17.4-1.31c8.05-.61,16.11-1.13,24.14-1.86,4.63-.42,9.23-1.16,13.84-1.77,2.34-.3,4.68-.62,7-.94,6.15-.85,12.3-1.65,18.45-2.55,8-1.17,15.95-2.47,23.95-3.6q8.61-1.22,17.26-2.12c5.45-.57,10.92-1.14,16.39-1.33,6.45-.23,12.93-.32,19.37,0,6.86.35,13.66,1.31,20,4.22,3.79,1.72,7.34,3.78,10,7a7.59,7.59,0,0,1,1.71,6.72c-1,4.78-3.88,8.58-6.81,12.29-4.65,5.89-9.61,11.49-16.13,15.46a1.51,1.51,0,0,0-.53,1,280.76,280.76,0,0,1-8.24,34.9,325.25,325.25,0,0,1-15.1,38.9,141.94,141.94,0,0,1-7.06,12.62c-2.08,3.53-4.28,7-6.5,10.44a27.57,27.57,0,0,1-2.27,2.58,1,1,0,0,0-.21.68,6.82,6.82,0,0,0,.44,1.68c1,2.2,0,3.78-1.52,5.2-.82.77-1.72,1.45-2.58,2.18a27,27,0,0,0-5.77,7.43,31.4,31.4,0,0,1-4.54,5.35c-1.5,1.63-3.21,3.07-4.64,4.75-3.83,4.49-3.61,9.58-1.41,14.56,1.58,3.56,4,6.75,5.84,10.19a13.22,13.22,0,0,1,.82,11.87c-1.31,3.18-4,4.71-7,5.67a29,29,0,0,1-4.14.88c-3.08.49-5.88-.57-8.61-1.76a6.09,6.09,0,0,1-3.46-4.12c-.43-1.5-.73-3-1.26-4.5A9.68,9.68,0,0,0,367.6,301a13,13,0,0,1-3.36-11.07c.29-2.57.44-5.15.74-7.71a14.75,14.75,0,0,0-2.17-9.8A62.12,62.12,0,0,0,353,259.91a2.52,2.52,0,0,0-1.63-.58,4.4,4.4,0,0,1-3.86-1.85,7.29,7.29,0,0,0-1.48-1.79,2.93,2.93,0,0,0-2.36-.68,47.16,47.16,0,0,1-7,.81c-10.93.48-21.86,1-32.79,1.28-12.53.33-25.07.36-37.61.67-6.24.16-12.47.65-18.71,1a1.18,1.18,0,0,0-.77.82c-.06,2.47,0,4.94,0,7.42a1,1,0,0,0,.22.66c2,1.82,3.1,4.25,4.15,6.67a1.69,1.69,0,0,1-.63,2.2c-3.81,2.89-8.14,3.35-12.62,2.44a22.39,22.39,0,0,1-5.35-2.23,1.88,1.88,0,0,1-.84-2.79,22.39,22.39,0,0,1,2.23-3.71,6.15,6.15,0,0,0,1.45-4.19c0-2,0-4,0-6,0-.58-.12-.81-.79-.82-7.37-.12-14.74-.34-22.12-.42-5.92-.07-11.84-.05-17.75,0-8.39.11-16.77.35-25.16.45-6.25.07-12.5,0-18.75,0-7.26,0-14.52.12-21.78.2a1.73,1.73,0,0,0-.88.31c-.86.6-1.72,1.23-2.53,1.89-4.42,3.58-8.64,7.33-11.56,12.33a12.2,12.2,0,0,0-1.35,6.09,38.18,38.18,0,0,0,.18,5.56c.57,4.72-.79,8.89-3.25,12.84-1.53,2.46-2.94,5-4.3,7.57a2.76,2.76,0,0,0,0,1.92,3.44,3.44,0,0,1-1.21,4.16,10.21,10.21,0,0,1-3.19,1.61,34.9,34.9,0,0,1-13.08.81c-2.68-.4-4.21-1.84-4.49-4.4-.52-4.65-.62-9.31,1.28-13.74a16.94,16.94,0,0,1,2.09-3.42,21.41,21.41,0,0,0,3.94-11.82,55.38,55.38,0,0,0-.24-7.83,3.41,3.41,0,0,0-1.13-1.71,19.77,19.77,0,0,0-5.13-3.88c-2.4-1.24-3.27-3.65-3.66-6.14a7.91,7.91,0,0,0-3.78-5.82c-2.61-1.65-5.21-3.31-7.77-5-2.8-1.89-4.61-6.61-3.91-9.91a.85.85,0,0,0-.14-.66c-5.16-5.79-8.74-12.57-12.14-19.46a371.24,371.24,0,0,1-20-50.2c-3.17-9.86-5.91-19.85-8.77-29.81a4.71,4.71,0,0,0-2.71-3.23c-4.69-2.29-9.39-4.61-13.93-7.18a14.27,14.27,0,0,1-7.19-9.17A6.09,6.09,0,0,1,1,116.49c4.77-8,11.39-13.47,20.79-15.15,3-.55,6-1.32,9.06-1.9,5.76-1.09,11.58-.89,17.4-.77C48.69,98.68,49.16,98.67,49.33,98.67Zm214.16-38c0,1.42,0,2.54,0,3.66-.16,5.81-.33,11.62-.48,17.44,0,.34,0,.9.17,1,1.55.9.88,2.31.6,3.38-.21.83-.11.88.55,1.17s.83.87,1.23,1.32c-.47.37-1,.71-1.42,1.11-.28.25-.67.58-.7.89-.11,1.56-.1,3.12-.16,4.68q-.39,9.33-.8,18.64c0,.64,0,1.13.88,1,3.69-.31,7.39-.55,11.09-.89a1.29,1.29,0,0,0,.81-.9c.13-2.72.18-5.45.25-8.18.22-9.66.46-19.33.64-29,.2-10.54.34-21.08.51-31.62,0-2,.09-4.07.06-6.1-.09-5.19-.07-10.38-.38-15.55a19.07,19.07,0,0,0-3-9.12c-1.21-1.9-2.74-3.33-5.25-2.9-.66.11-1.31.37-2,.42a30.14,30.14,0,0,1-4,.1,6.06,6.06,0,0,1-2.65-.65c-.78-.48-1-.3-1.4.36-1.79,2.9-3.63,5.78-5.47,8.65a3.55,3.55,0,0,1-3.15,1.6c-1.85.06-3.7.23-5.54.4A1.45,1.45,0,0,0,243,22a4,4,0,0,0-1,3.06c.3,5.55.38,11.1.51,16.66,0,.84-.09,1.64,1,2,.28.08.57.61.61,1,.21,1.83.46,3.69-1.31,5.18a11,11,0,0,0,3.12,1.29c2.6.2,5.22.12,7.84.11a1.16,1.16,0,0,0,.84-.52c.68-1.47,1.46-1.81,3-1.36a2.16,2.16,0,0,0,1.46-.13,5.06,5.06,0,0,1,6,.77c.48.44.75.57,1.31.1a2,2,0,0,1,2.78-.18,2.32,2.32,0,0,1,.38,3.07,27.1,27.1,0,0,1-2.93,2.49c-.41.37-1,.86-1,1.28a2.55,2.55,0,0,0,.8,1.79c.83.67,2,.93,2.77,1.66a3.32,3.32,0,0,1,1,2.42,3.27,3.27,0,0,1-1.6,1.92c-.88.52-1.66-.15-2.26-.83C265.33,62.79,264.51,61.83,263.49,60.64Zm-42.43.28c-.09.13-.16.18-.16.23q0,9.76,0,19.52a1,1,0,0,0,.34.71,3.67,3.67,0,0,1,.42,4.36,2.26,2.26,0,0,0-.18,1.54,15.33,15.33,0,0,1,.62,2.08q.1,12.48.08,25c0,1.26.39,1.5,1.54,1.45,4.25-.16,8.5-.26,12.75-.33,5.92-.09,11.85-.13,17.77-.17.7,0,1.22,0,1.24-1,.12-8.33.29-16.65.43-25,0-.27-.31-.55-.47-.82s-.69-.84-.6-1.1.68-.54,1.09-.7a3.06,3.06,0,0,1,1,0,4,4,0,0,1-.93-4.1c.15-.26.45-.6.7-.61,1.06,0,1.06-.77,1.09-1.52q.24-7.24.47-14.49c0-.78.36-1.88-1.16-1.15a1.06,1.06,0,0,1-.93-.14c-.6-.58-1.5-1.21-1.56-1.88a4,4,0,0,1,1.15-2.27c.64-.8,1.54-1.39,2.21-2.17.5-.59.28-.93-.55-.93-2.8,0-5.6,0-8.4,0-1.42,0-2.84-.26-3.29,1.62,0,.12-.22.2-.27.33a4.9,4.9,0,0,0-.56,1.5c-.09,1.3,0,2.62-.08,3.92,0,.41-.35,1.12-.58,1.14-1.19.07-1,.83-1,1.58a1.94,1.94,0,0,1-.18,1.06c-.76,1.13-.57,2.3-.41,3.54a25.54,25.54,0,0,1-.16,2.6c0,.57.08,1.5.4,1.64a5.24,5.24,0,0,1,3.36,5.15,14.39,14.39,0,0,0,.89,6.17,1.19,1.19,0,0,1-.84,1.8c-3.79.85-7.6,1.26-11.39,0a1.27,1.27,0,0,1-.88-1.88,5.23,5.23,0,0,0,.36-1.45c.13-1.74.15-3.48.34-5.21.23-2.07,1.07-3.76,3.19-4.56a1,1,0,0,0,.45-.72c.09-1.23.17-2.46.14-3.69a18.26,18.26,0,0,0-.33-2.53c0-.16-.25-.4-.39-.4-1.13,0-1-.77-1-1.54A17,17,0,0,0,237,65c-.05-.74-.33-1.46-.37-2.2s.12-1.53.1-2.29a3.84,3.84,0,0,0-3-2.87c-2.8-.07-5.59-.14-8.39-.18a16.63,16.63,0,0,0-2,.21,10.84,10.84,0,0,0,2.42,1.61A2.09,2.09,0,0,1,227,61.63a3,3,0,0,1-2.41,2.51,2,2,0,0,1-2.3-1C221.84,62.41,221.47,61.67,221.06,60.92Zm-4.35-11.79c2.4-1.61,3.4-1.58,5.58-.05a1,1,0,0,0,.83-.18c1.72-1.47,3.49-1,4.15,1.13.22.73.56.74,1.16.72,2.64-.11,5.29-.18,7.94-.24.6,0,.81-.13.51-.76-.46-.94-.83-1.93-1.3-2.88-1.46-2.94-2.51-6.13-5.06-8.44a3.32,3.32,0,0,1-.89-1.47c-.2-.73-.51-.8-1.16-.57a19.09,19.09,0,0,0-7.06,4.4A15.08,15.08,0,0,0,216.71,49.13ZM216,62.44c-.73.57-1.37,1-1.94,1.55a1.67,1.67,0,0,0-.6,1c0,2.25,0,4.51.07,6.76.49,9.8,1,19.6,1.54,29.41,0-4-.2-7.91-.39-11.86,0-.83-.23-1.71,1-1.9a2.38,2.38,0,0,0,.07-1.74,3.33,3.33,0,0,1,0-4.07,1.18,1.18,0,0,0,.21-.78c0-3.63,0-7.27,0-10.9C216,67.4,216,64.94,216,62.44Zm32.75-42-.06-.07c-2.64,0-5.28,0-7.92,0-.62,0-1.05.1-.79.84.12.36.43,1,.51,1,.5-.13,1.14-.29,1.38-.67a2.14,2.14,0,0,1,2.07-1.09C245.54,20.46,247.15,20.43,248.75,20.43Z" transform="translate(0 -2.75)"/><path class="cls-3" d="M400,242c-.28.51-.66,1-1,1.46l-.34-.18a13.74,13.74,0,0,1,.51-1.69c.08-.17.46-.21.7-.3C400,241.5,400.12,241.8,400,242Z" transform="translate(0 -2.75)"/><path class="cls-3" d="M399.36,245.67c-.21.17-.62.08-.93.12a2.88,2.88,0,0,1,.34-.8c.86-1,1.76-1.87,2.75-2.92A6.43,6.43,0,0,1,399.36,245.67Z" transform="translate(0 -2.75)"/><path class="cls-3" d="M396.8,245.25a5.21,5.21,0,0,1-.12.76c-.26-.1-.7-.12-.76-.28a6.34,6.34,0,0,1-.68-2.53,7.64,7.64,0,0,1,3.65-5.39c-.67,1.8-1.44,3.69-2.08,5.61A6.58,6.58,0,0,0,396.8,245.25Z" transform="translate(0 -2.75)"/><path class="cls-3" d="M396.66,235.43c-.47.8-1,1.56-1.52,2.33l-.27-.15c.35-.85.68-1.72,1.07-2.55.08-.18.4-.26.62-.39C396.6,234.93,396.76,235.26,396.66,235.43Z" transform="translate(0 -2.75)"/><path class="cls-3" d="M396.31,255.89c.44,1.75-1.93,5.77-3.82,7.12.87-2.55,1.75-5.12,2.67-7.84l.48,1.57.27.18Z" transform="translate(0 -2.75)"/><path class="cls-3" d="M397.51,249.67c-1.62.46-2.45.11-3.78-1.22l1-.49a2.8,2.8,0,0,0,2.43.62l.13,0Z" transform="translate(0 -2.75)"/><path class="cls-3" d="M391,249a2.14,2.14,0,0,1-2.48.91,1.9,1.9,0,0,1-1.61-2.06c.17-1.79.51-3.57.84-5.34a.91.91,0,0,1,.68-.52h0a.93.93,0,0,1,.56.65c.1.82.09,1.66.12,2.5,0,.15,0,.3,0,.45a10.55,10.55,0,0,0,.13,2c.17.75.75,1.11,1.25.24.58-1,1-2.14,1.52-3.2.12-.23.47-.61.52-.57a1.83,1.83,0,0,1,.83.71,15,15,0,0,1,.48,1.78,2.85,2.85,0,0,0,.81,1.37l-1,.49c-.23-.22-.46-.47-.72-.74.56,2.31,1.72,3.67,3.15,3.84a4.44,4.44,0,0,0,3.67-2.09l.69.52c-.4.53-.81,1.05-1.21,1.57a3.48,3.48,0,0,1-1.65,1c-2.48.76-4.61-.53-5.64-3.3a6,6,0,0,0-.38-.76A2.62,2.62,0,0,0,391,249Z" transform="translate(0 -2.75)"/><path class="cls-3" d="M389.09,231.25c.62-1.62,1.22-3.24,1.91-4.83.11-.26.61-.36.92-.53a3.86,3.86,0,0,1-.05,1.08c-.47,1.33-1,2.64-1.5,4l.34.13c.51-1.05,1-2.11,1.57-3.12.19-.33.62-.5.94-.75a5,5,0,0,1-.1,1.24c-.49,1.42-1.05,2.8-1.59,4.2l.32.13a3.19,3.19,0,0,1,.44-.84,4.85,4.85,0,0,1,.87-.61c.08.36.29.75.21,1.07-.54,2.28-1.12,4.55-1.72,6.81a.76.76,0,0,1-.09.18c-.13.18-.33.33-.48.51-.23-.23-.68-.47-.68-.69h0a25.81,25.81,0,0,1,.35-3.3c.09-.51.4-.93-.38-1.18-.23-.08-.4-.57-.46-.9-.16-.75.27-1.69-.75-2.16C389.08,231.62,389.05,231.36,389.09,231.25Z" transform="translate(0 -2.75)"/><path class="cls-3" d="M392.66,239.83a33.91,33.91,0,0,0,1.81-5.63,3.35,3.35,0,0,1,.22-.84c.11-.19.41-.47.52-.43a.88.88,0,0,1,.55.55,2.74,2.74,0,0,1-.12,1.17c-1.26,3.63-2.32,7.36-4.94,10.34a8.58,8.58,0,0,0-.63,1l-.49-.4c.46-.84.89-1.7,1.4-2.52A25,25,0,0,0,392.66,239.83Z" transform="translate(0 -2.75)"/><path class="cls-3" d="M380.44,301.67c.36.34.92.62,1,1,.57,2.13,1.54,3.43,4.07,2.81,1-.24,2.16.25,2.92-.88.08-.13.59-.19.65-.1.19.26.45.74.34.91a13.78,13.78,0,0,1-1.89,2.56,7.11,7.11,0,0,1-5,1.94l-1.11-.18c-2.52-.35-2.56-.54-1.95-2.92a30.9,30.9,0,0,0,.35-3.89A4.72,4.72,0,0,1,380.44,301.67Z" transform="translate(0 -2.75)"/><path class="cls-3" d="M386,230.32a.62.62,0,0,1-.52,0c-.29-.81-.53-1.64-.71-2.21.2-1.92.64-3.47,1.89-4.58a4,4,0,0,1,1.83-.7h0c.2,0,.52.34.67.58.05.08-.35.38-.44.61a9.14,9.14,0,0,0-.86,2.55,34.71,34.71,0,0,0,.23,3.79,3.1,3.1,0,0,1-.32,1c-.32-.3-.66-.57-.95-.9a4.16,4.16,0,0,1-.44-.77A3.07,3.07,0,0,1,386,230.32Z" transform="translate(0 -2.75)"/><path class="cls-3" d="M388.13,299.64,386.91,301c-.15-.23-.49-.54-.43-.68a15.07,15.07,0,0,1,.94-1.59Z" transform="translate(0 -2.75)"/><path class="cls-3" d="M384.09,229.45l.84,1.21c1.25,1.82,2.51,3.62,3.69,5.45a6.69,6.69,0,0,1,.67,2.11c.09.37.16.74.22,1.11l.21,1.45c0,.23,0,.48,0,.71a3.89,3.89,0,0,1-.71-.29.27.27,0,0,1-.08-.1c-.28-.73-.41-1.52-.66-2.27s-.65-1.71-1-2.55c-.06-.14-.3-.34-.38-.31a1.82,1.82,0,0,1-.59.12c-.83,0-1-.91-1.27-1.54a21.15,21.15,0,0,1-1.11-3.49A5,5,0,0,1,384.09,229.45Z" transform="translate(0 -2.75)"/><path d="M384,249.87a0,0,0,0,1,0,0h0Z" transform="translate(0 -2.75)"/><path class="cls-3" d="M383.54,301.9c0,.07-.22.33-.53.75-.42-.71-.72-1.2-1-1.71,0-.07.3-.29.46-.45C382.86,301,383.23,301.41,383.54,301.9Z" transform="translate(0 -2.75)"/><path class="cls-3" d="M373.73,295l1.29,1.6c-.36.25-.75.67-.87.6a10.07,10.07,0,0,1-1.36-1.1C373.11,295.72,373.42,295.35,373.73,295Z" transform="translate(0 -2.75)"/><path class="cls-3" d="M375.22,242.94c-.19-1.19-1.26-1.86-2.05-1.15a11.1,11.1,0,0,0-1.56,2.07c0,2,1,2.8,2,2.3A3.79,3.79,0,0,0,375.22,242.94Zm-1.59,5.38a2.61,2.61,0,0,1-2.86-.82c-1.85-1.74-1.53-5.7.56-7.17s4.79-.12,5.27,2.58c.06.35.07.72.13,1.46C376.82,245.72,375.59,247.51,373.63,248.32Z" transform="translate(0 -2.75)"/><path class="cls-3" d="M372.89,293.13c.2.26.4.53.72.93-.59.52-1.1,1-1.65,1.4a3.35,3.35,0,0,1-.6-.59C371.85,294.27,372.37,293.7,372.89,293.13Z" transform="translate(0 -2.75)"/><path class="cls-3" d="M372.91,292.4c-.76.62-1.51,1.24-2.29,1.82-.05,0-.42-.25-.54-.45a.58.58,0,0,1,.14-.53c.5-.53,1-1,1.56-1.51a2.73,2.73,0,0,1,.61-.32C372.53,291.66,372.65,291.91,372.91,292.4Z" transform="translate(0 -2.75)"/><path class="cls-3" d="M367.49,248c5,3.11,9.12,1.85,12.73-2.58a6.8,6.8,0,0,1-4.54,5.39C371.61,251.84,369.21,250.43,367.49,248Z" transform="translate(0 -2.75)"/><path class="cls-3" d="M368.76,290.67a1.29,1.29,0,0,1-.86,0c-.08-.47-.24-1.24,0-1.38a17.28,17.28,0,0,1,2.66-1.4l.4-.17c.19-.09.53.16,1,.31a4.8,4.8,0,0,1-.69.93C370.44,289.56,369.62,290.15,368.76,290.67Z" transform="translate(0 -2.75)"/><path class="cls-3" d="M368.94,291.71c.78-.65,1.58-1.27,2.39-1.87a.76.76,0,0,1,.66-.07c.16.13.3.58.22.66-.88.88-1.8,1.72-2.95,2.8a3.73,3.73,0,0,1-.46-.87A.83.83,0,0,1,368.94,291.71Z" transform="translate(0 -2.75)"/><path class="cls-3" d="M368.11,288a2.3,2.3,0,0,1-.88-.09c.12-.44.1-1.15.37-1.29a17,17,0,0,1,3-1.17c.25-.07.61.26,1.26.56l-.11.1a5.13,5.13,0,0,1-1,.85l-.48.22C369.54,287.52,368.83,287.8,368.11,288Z" transform="translate(0 -2.75)"/><path class="cls-3" d="M370.8,284.81a15.29,15.29,0,0,1-3.05,1.06c-.17.05-.5-.51-.93-1a5.42,5.42,0,0,1,1.1-.9,13.82,13.82,0,0,1,2.27-.69,2.65,2.65,0,0,1,1,.24C371.08,284,371.08,284.67,370.8,284.81Z" transform="translate(0 -2.75)"/><path class="cls-3" d="M367.16,250.05c6.59,3,8.65,2.63,14.06-2.77-.09,2.31-3.24,5.16-5.25,5.74A7.86,7.86,0,0,1,367.16,250.05Z" transform="translate(0 -2.75)"/><path class="cls-3" d="M363.75,253a20.77,20.77,0,0,0,10.16,1.38,11.17,11.17,0,0,0,8.28-5.57c0,2.39-2.45,5.46-5,6.32C371.13,257.12,366.21,256.37,363.75,253Z" transform="translate(0 -2.75)"/><path d="M267,53.93a.05.05,0,0,0,0,0l0,0Z" transform="translate(0 -2.75)"/><path class="cls-3" d="M266.5,52.91c.22-.4.47-.77.72-1.15l.43-.6c.22.21.65.53.6.61-.35.72-.8,1.39-1.26,2.16h0l0,0c-.4-.3-.59-.37-.59-.46A1.18,1.18,0,0,1,266.5,52.91Z" transform="translate(0 -2.75)"/><path class="cls-3" d="M266.13,11.15a30.14,30.14,0,0,1-4,.1H262l.08-1.13c1.34-.08,2.67-.2,4-.37a1.46,1.46,0,0,0,1.31-1.61c0-.86-.26-1.68-1.34-1.81l.26-.68a9.74,9.74,0,0,1,1.4.65,1.32,1.32,0,0,0,.71.15c4.5-.29,7.3,2.25,9.33,5.81a25.54,25.54,0,0,1,3.31,12.94c-.06,9-.28,18-.47,27-.19,9.48-.46,19-.64,28.45H279c.06-3.23.11-6.45.17-9.67.19-12,.33-24,.5-36h0c.05-.91.13-1.81.15-2.72.08-4.25.3-8.5-.81-12.68a20.4,20.4,0,0,0-5.19-9.79,8.13,8.13,0,0,0-4.53-2.42c-1.23-.17-.47.87-.75,1.28-.09.13.24.8.38.79,3.27,0,4.88,2.15,6.26,4.68,2.57,4.71,3.14,9.89,3.17,15.08.05,6.36-.35,12.72-.53,19.08q-.45,16.79-.88,33.58c-.18,7.27-.33,14.54-.5,21.81q-.09,3.75-.23,7.5l-.87,0c.07-2,.11-4.09.16-6.13.22-9.67.46-19.34.64-29,.2-10.54.34-21.07.51-31.61,0-2,.09-4.07.06-6.11-.09-5.18-.07-10.38-.39-15.55a19.06,19.06,0,0,0-3-9.13c-1.21-1.89-2.74-3.32-5.25-2.89C267.45,10.84,266.8,11.1,266.13,11.15Z" transform="translate(0 -2.75)"/><path class="cls-3" d="M257,50.23l.19-.94.35.09a2.11,2.11,0,0,0,1.46-.13,5.08,5.08,0,0,1,6,.77c.48.44.75.57,1.31.1a2,2,0,0,1,2.78-.18,2.41,2.41,0,0,1,.8,1.91l-.86,0c-.32-.47-.47-1-.78-1.12a1.34,1.34,0,0,0-1.18.21c-.78.79-1.52,1.62-2.25,2.46l-.64-.56c0-.26.16-.65,0-.76-.75-.64-1.56-1.23-2.31-1.8a14.39,14.39,0,0,0-1.92.94c-.18.12-.13.57-.19.86l-1,.29c0-.12-.07-.25-.11-.38-.15-.64-.88-1.21-1.47-1.63A.68.68,0,0,0,257,50.23Z" transform="translate(0 -2.75)"/><path d="M256.8,63.79l0,0,0,0Z" transform="translate(0 -2.75)"/><path class="cls-3" d="M256.74,63.79c-.39-.47-.73-.73-.78-1s.26-.64.51-.78a9.86,9.86,0,0,1,1.66-.65,2,2,0,0,1,.6,0c0,.19,0,.45-.12.58-.54.62-1.13,1.21-1.81,1.94h-.06Z" transform="translate(0 -2.75)"/><path class="cls-3" d="M257.51,54a21.3,21.3,0,0,1-1.33-1.83,1.83,1.83,0,0,1-.1-1.09c0-.14.39-.22.6-.33a5,5,0,0,0,.42.87c.48.62,1,1.19,1.49,1.81a4,4,0,0,1,.37.84l-.85.3Z" transform="translate(0 -2.75)"/><path class="cls-3" d="M265,58.93c-.16-.09-.56.28-.85.44.47.6,1.25,1.77,1.37,1.71,1.16-.61,1.82.63,2.77.6.17,0,.53.42.49.55a1.44,1.44,0,0,1-.6.8,2.67,2.67,0,0,1-1,0c.76.8,1.48.69,1.84-.28s-.18-1.62-1-2.09C267,60.12,266,59.46,265,58.93ZM262,78h0v3.44h0Zm.19-3.88c.17-3.86.37-8.29.55-12.72,0-.22-.17-.44-.25-.66a2.18,2.18,0,0,0-.29.72C262.13,65.87,262.14,70.27,262.14,74.13Zm.36-18.4c-1-.11-1.31.76-1.33,1.62s.38,1.56,1.29,1.55,1.29-.78,1.58-1.95C263.53,56.52,263.05,55.8,262.5,55.73Zm-.62-1.47,1.2-.69a6.46,6.46,0,0,0-1.51-.88c-.25-.06-.64.4-1,.62Zm-2.63,10.21c-.16,4.69-.2,9.38-.3,14.06,0,1-.1,2-.06,2.94,0,.26.38.51.59.76a2.68,2.68,0,0,0,.28-.74q.38-9.73.73-19.48l-.46-.14A10.06,10.06,0,0,0,259.25,64.47Zm-2.16,20.39L256,85a3.37,3.37,0,0,1,.07-2.39c.14-.26.45-.6.7-.61,1.06,0,1.07-.77,1.09-1.52q.24-7.24.47-14.5c0-.77.37-1.87-1.16-1.14a1,1,0,0,1-.93-.14c-.6-.58-1.5-1.21-1.55-1.88a1.48,1.48,0,0,1,.1-.64l.77.05a.87.87,0,0,0,.27,1,1.58,1.58,0,0,0,1,.6l0,0,0,0h0a1.24,1.24,0,0,0,1-.52c.83-.91,1.7-1.78,2.52-2.7a.71.71,0,0,0-.05-.66,3.73,3.73,0,0,1-.92-2.29,3.45,3.45,0,0,1,1-2.3.83.83,0,0,0,0-.81,4.18,4.18,0,0,1-1.57-2.18l1-.29a2.07,2.07,0,0,0,.71,0,2.57,2.57,0,0,1,3.08.52,2.15,2.15,0,0,0,.59.28l.64.56-1,1.23c-.06.08.12.44.27.58s.47.29.6.22c.79-.46,1.59-.92,2.35-1.44l0,0a.05.05,0,0,1,0,0h0l.69-.49A9.41,9.41,0,0,0,269,51.81l.86,0a1.85,1.85,0,0,1-.42,1.16,28.28,28.28,0,0,1-2.93,2.49c-.42.37-1,.86-1,1.28a2.56,2.56,0,0,0,.81,1.78c.83.68,2,.94,2.77,1.67a3.32,3.32,0,0,1,1,2.42,3.32,3.32,0,0,1-1.6,1.93c-.88.51-1.66-.16-2.27-.84-.83-1-1.65-1.91-2.67-3.1,0,1.42,0,2.54,0,3.65-.15,5.82-.32,11.63-.47,17.45,0,.34,0,.9.17,1a1.94,1.94,0,0,1,.85,2.51l-1.12,0a1.79,1.79,0,0,0-.06-.61,1.15,1.15,0,0,0-.74-.73c-1.21-.23-2.44-.31-3.64-.52-1.48-.24-1.71-.07-1.41,1.39A.23.23,0,0,0,257.09,84.86Z" transform="translate(0 -2.75)"/><path class="cls-3" d="M248,274.72c-.34.06-.89.12-1-.06a27.36,27.36,0,0,1-1.73-2.85.77.77,0,0,1,.15-.74c.18-.18.69-.32.76-.23.88,1,1.7,2.13,2.62,3.32C248.4,274.43,248.21,274.67,248,274.72Z" transform="translate(0 -2.75)"/><path class="cls-3" d="M243.67,53.5c.18.08.47.12.52.25.21.54.37,1.11.6,1.85,0,.06,0,.13.06.2-.38.78-.77,1.64-1.21,2.48-.06.12-.35.12-.53.17,0-.17,0-.37.12-.49a3.56,3.56,0,0,0,.67-3.32,4.27,4.27,0,0,0-.24-.65C243.6,53.85,243.67,53.66,243.67,53.5Z" transform="translate(0 -2.75)"/><path class="cls-3" d="M240.62,275.53c0,.06,0,.12,0,.19-1.76-.27-3.52-.51-5.26-.83-.91-.17-1-.69-.55-1.36s.66-1.44,1.28-1.73,1.47.21,2.23.2c1.41,0,2.83-.19,4.24-.2a4,4,0,0,1,1.35.47c.08,0,.11.16.16.24,1.76,2.64,1.56,2.93-2.06,3C241.52,275.54,241.07,275.53,240.62,275.53Z" transform="translate(0 -2.75)"/><path class="cls-3" d="M241.51,75.39l-.65-.69.55-.64c.24-.49.47-.76.47-1l.8.09a11.16,11.16,0,0,0-.14,1.51c0,.18,0,.39,0,.6Z" transform="translate(0 -2.75)"/><path class="cls-3" d="M241,68.24a6.17,6.17,0,0,0,1.3-.84.14.14,0,0,0,0-.06l1,0a1.34,1.34,0,0,1,0,.2,1.94,1.94,0,0,1-.18,1.06,3.33,3.33,0,0,0-.56,2h-1V69.16l-.37,0Z" transform="translate(0 -2.75)"/><path class="cls-3" d="M240.47,57.53a8.47,8.47,0,0,1-1.09-1.61,2.71,2.71,0,0,1,.12-1.39c0-.12.35-.18.54-.26a2.31,2.31,0,0,0,.12.52c.25.53.55,1,.78,1.58a1.47,1.47,0,0,1,.05.78C241,57.26,240.74,57.34,240.47,57.53Z" transform="translate(0 -2.75)"/><path d="M240.13,40.85l-1,.1q-.1-1.19-.27-2.37l1-.11a7.44,7.44,0,0,1,.19.86C240.06,39.84,240.09,40.34,240.13,40.85Z" transform="translate(0 -2.75)"/><path class="cls-3" d="M242.33,88.24a13.2,13.2,0,0,1-5-.29c-.31-.09-.75-.59-.72-.86.25-2.47.51-5,1-7.4.07-.42,1-.68,1.56-1l.18.3a2.06,2.06,0,0,1,.43,0c.36.07.73.17,1.09.25a3.23,3.23,0,0,0-.66.79,4.65,4.65,0,0,0-.44,1.72A2.7,2.7,0,0,0,240.3,83c.81,1.19,1.6,2.39,2.5,3.51.26.33.86.38,1.29.59a6.34,6.34,0,0,1,.66.39c-.19.17-.37.44-.59.48C243.55,88.07,242.94,88.17,242.33,88.24Z" transform="translate(0 -2.75)"/><path class="cls-3" d="M234.18,134.61a10.9,10.9,0,0,1-1.79-.15,5.12,5.12,0,0,1,.3-1.43,5.49,5.49,0,0,1,5.24-3,5.32,5.32,0,0,1,4.23,4.18c.3,1.17-.3,1.42-1.65,1.35,0,0-.46-.19-.5-.43a2.72,2.72,0,0,0-2.11-2.36,3,3,0,0,0-3.14,1.27C234.58,134.24,234.38,134.61,234.18,134.61Z" transform="translate(0 -2.75)"/><path class="cls-3" d="M237.66,56.45a2.73,2.73,0,0,1,.81-3.17,3.64,3.64,0,0,1,2.92-.58,3,3,0,0,1,1.18.49,2.86,2.86,0,0,1,1,1.53,3.29,3.29,0,0,1-.17,2.22,4.71,4.71,0,0,1-1.27,1.41c-.15.13-.57-.06-.86-.11a7.54,7.54,0,0,1,.3-.79c.06-.11.24-.16.35-.25a2.3,2.3,0,0,0,.31-3,2.54,2.54,0,0,0-3.19-.21,2,2,0,0,0-.16,2.83c.28.35.6.67,1,1.13A2,2,0,0,1,237.66,56.45Z" transform="translate(0 -2.75)"/><path class="cls-3" d="M246.65,54.77c-.18,0-.36.26-.55.4.41.42.81,1.21,1.22,1.22,3.65.09,7.31,0,11,0l.13-.5c-.38-.23-.75-.65-1.14-.67C253.74,55.06,250.19,54.91,246.65,54.77Zm-.52-2.28c.3.44.58,1.26.9,1.27,2.87.1,5.75.06,8.59.06-.54-1.56-1.77-1.73-3.25-1.64-1.77.11-3.55,0-5.33,0A3.93,3.93,0,0,0,246.13,52.49Zm-3.29-8.16h-3.35c0,.1,0,.21,0,.31l3.36.15C242.83,44.64,242.84,44.49,242.84,44.33Zm-3.06,1.45h-.92a3.86,3.86,0,0,0,.66,1.24c.29.24.82.2,1.35.3a13.39,13.39,0,0,0,1.92-.43c.26-.09.41-.49.6-.76a4,4,0,0,0-.82-.22C241.64,45.84,240.71,45.81,239.78,45.78Zm4.13,5.88a13.74,13.74,0,0,0-3.18-1.24c-.26-.09-.6.12-.91.19a5.14,5.14,0,0,0,.85.55c.69.29,1.41.48,2.09.79.16.07.19.43.27.66-.22,0-.44-.06-.65-.11s-.59-.15-.88-.22a3.8,3.8,0,0,0-.81-.13c-1.33,0-1.33,0-1.74-1.28s-.89-2.46-1.19-3.73a33.15,33.15,0,0,1-1.31-8.49l.75,0c.17,1.46.3,2.75.49,4a1.3,1.3,0,0,0,.41.67c.42-.19,1.17-.47,1.16-.68,0-.59-.08-1.17-.14-1.75l1-.1c0,.51.1,1,.17,1.51,0,.34.38.63.58.94a2.8,2.8,0,0,0,.37-.95c0-4.65,0-9.29,0-13.94,0-.37,0-.75,0-1.13l.87,0c.22,4.84.3,9.68.41,14.52,0,.84-.09,1.64,1,2,.28.08.57.61.61,1,.21,1.83.46,3.69-1.31,5.18a11.12,11.12,0,0,0,3.12,1.29c2.6.2,5.22.12,7.84.11a1.16,1.16,0,0,0,.84-.52c.62-1.34,1.33-1.74,2.61-1.45l-.19.94a1.38,1.38,0,0,0-1.09.15c-.3.27-.57,1-.4,1.29a19.73,19.73,0,0,0,2,2.29l.6.57a4.55,4.55,0,0,1,1.15,3.09,4.41,4.41,0,0,1-2.15,3.16,8.66,8.66,0,0,0-1,.68,2.35,2.35,0,0,0-.61.75l-.77-.05a6.17,6.17,0,0,1,1-1.63c.64-.8,1.54-1.39,2.21-2.17.5-.59.28-.94-.55-.93-2.8,0-5.6,0-8.39,0-1.43,0-2.85-.26-3.3,1.62,0,.12-.22.2-.27.33a4.9,4.9,0,0,0-.56,1.5c-.07,1.07,0,2.15,0,3.22l-.92,0a2.85,2.85,0,0,0,0-.4c-.07-.5,0-1,0-1.53s0-1.15-.16-1.23c-1.77-.71-.21-1,.15-1.47.21-.24.51-.41.72-.66.7-.86,1.55-1.68.46-2.9a.83.83,0,0,1-.14-.3,1.82,1.82,0,0,1,.07-1A2.17,2.17,0,0,0,243.91,51.66Z" transform="translate(0 -2.75)"/><path class="cls-3" d="M237.82,67.55c0,.17.32.41.56.69a5.34,5.34,0,0,0,.79-.54,15.05,15.05,0,0,0-.79-1.55A7.87,7.87,0,0,0,237.82,67.55Zm-.42-3.86a4.57,4.57,0,0,0,.68,1.41c.24.26.87.2,1.32.2a1.44,1.44,0,0,0,.15-.82,27.73,27.73,0,0,0-.74-3.12c-.08-.23-.59-.33-.9-.49a4.34,4.34,0,0,0-.25.65C237.57,62.13,237.51,62.74,237.4,63.69Zm-1.65-4.92,1.1-.22a6,6,0,0,0,5,2.81,1,1,0,0,1,.43.06c.26.14.67.28.71.49a1.17,1.17,0,0,1-.34.85,2,2,0,0,1-.75.42c-.87.37-.63,1.11-.4,1.67.09.23.73.33,1.13.34.89,0,1.32-.37,1.32-1.14l.92,0c0,.24,0,.47,0,.7,0,.41-.35,1.13-.58,1.14-1.09.06-1,.7-1,1.38l-1,0a4.62,4.62,0,0,0-.39-.92l-1.33,1.29.4.53.14,1c-.07,0-.11,0-.11,0,0,.54.1,1.08.16,1.61,0,0,.06,0,.32.16V70.5h1a12.55,12.55,0,0,0,.15,1.59,4.43,4.43,0,0,1,0,1.09l-.8-.09v0c0-.28-.34-.51-.53-.77a6.31,6.31,0,0,0-.5,1v0H240c0-1.28,0-2.36,0-3.44,0-.22-.28-.43-.43-.63-.11.23-.31.47-.3.7q0,.84.09,1.68l-.75,0a21.19,21.19,0,0,0-.32-2.22c0-.16-.25-.4-.39-.4-1.13,0-1-.77-1-1.54A18.54,18.54,0,0,0,237,65c-.05-.74-.33-1.46-.37-2.21s.12-1.52.1-2.28A2.92,2.92,0,0,0,235.75,58.77Z" transform="translate(0 -2.75)"/><path d="M237.26,134.92a6.25,6.25,0,0,1-.92.18l-.51-.16a1.58,1.58,0,0,1,.29-.53c.25-.19.59-.46.84-.42a5.16,5.16,0,0,1,1.27.58C237.91,134.69,237.59,134.83,237.26,134.92Z" transform="translate(0 -2.75)"/><path class="cls-3" d="M233.43,40.33c.16-.46,1.91-1.61,2.26-1.45a.49.49,0,0,1,.22.41c-.68,2.29.3,4.31,1,6.37A2.15,2.15,0,0,1,237,47l-2.29-4.38Z" transform="translate(0 -2.75)"/><path class="cls-3" d="M233.61,5.67a37.48,37.48,0,0,0,4.07-.93,32,32,0,0,1,13.87-1.3A23.21,23.21,0,0,1,256,4.9c.94.33,1.84.76,2.77,1.12a.83.83,0,0,0,.62,0,8.26,8.26,0,0,1,6.94-.34l-.26.68c-.75-.1-1.5-.18-1.95-.23a10.43,10.43,0,0,1-1.18,0c-1.08-.17-1.4.26-1.25,1.32a20.06,20.06,0,0,1-.07,2c0,.24.32.68.48.67L262,11.24a5.86,5.86,0,0,1-2.55-.64,1.39,1.39,0,0,0-.69-.27l.33-1.06c.17-.27.46-.53.49-.82a3.13,3.13,0,0,0-.24-1,6.53,6.53,0,0,0-.31.84l-1.2-.06c.07-.46-.41-.9-.85-1.47,0,.39-.07.71-.1,1h-.81a2.34,2.34,0,0,0-.09-.93,1.27,1.27,0,0,0-.65-.66,32.08,32.08,0,0,0-5.79-1.69A28.82,28.82,0,0,0,236.91,6c-1.2.41-2,.7-1.54,2.15l-.71.1-.88-1.69Z" transform="translate(0 -2.75)"/><path class="cls-3" d="M237.05,133.59a2.32,2.32,0,0,0-2.1,2.47c0,1.24.75,2,1.81,2a2.49,2.49,0,0,0,2.09-2.53A1.87,1.87,0,0,0,237.05,133.59ZM234.49,136a2.82,2.82,0,0,1,2.58-2.94,2.46,2.46,0,0,1,2.26,2.58,2.93,2.93,0,0,1-2.63,2.95A2.44,2.44,0,0,1,234.49,136Z" transform="translate(0 -2.75)"/><path class="cls-3" d="M235.21,88c0,.18.32.53.55.58,1.47.31,3,.56,4.16.77l2.51-.31,2.91-.36c.71-.08,1-.44.62-1.11a9,9,0,0,1-.8-5.41,4.08,4.08,0,0,0-.16-1.62c-.53-1.83-1.91-3.87-4.48-2.65a2.25,2.25,0,0,1-1.24.12l-.14,0a2.19,2.19,0,0,0-3,1.74,15.67,15.67,0,0,0-.45,2.46Q235.41,85,235.21,88Zm11.14,1.5c-3.79.85-7.6,1.26-11.39,0a1.26,1.26,0,0,1-.88-1.88,5.21,5.21,0,0,0,.35-1.45c.14-1.74.16-3.48.35-5.21.23-2.07,1.08-3.77,3.19-4.56a1,1,0,0,0,.45-.72c.09-1.23.17-2.46.14-3.68,0-.11,0-.22,0-.32l.75,0c0,.57.09,1.13.14,1.69,0,.22.23.42.52.91V73.3h.89c0,.13.25.34.56.76l-.55.64c-.23.29-.59.56-.64.88s.29.6.45.91c.26-.33.51-.67.84-1.1l1.06-.1c.05.47.16.94.37,1a5.26,5.26,0,0,1,3.36,5.16,14.24,14.24,0,0,0,.89,6.17A1.19,1.19,0,0,1,246.35,89.45Z" transform="translate(0 -2.75)"/><path class="cls-3" d="M231,133.7a1.76,1.76,0,0,1-1.33,0,.92.92,0,0,1-.36-.84,14.41,14.41,0,0,1,.9-2.28c.37-.74.92-.8,1.53-.27C232.13,131,231.72,133.28,231,133.7Z" transform="translate(0 -2.75)"/><path class="cls-3" d="M237.66,143.26c-.22.77.16.78.73.63a9.3,9.3,0,0,0,6.81-9.07,8.4,8.4,0,0,0-6.11-8.31,2.25,2.25,0,0,0-1,0,9.41,9.41,0,0,0-.34,2.23c0,.17.53.44.86.53a6,6,0,0,1,4.53,5.61,6,6,0,0,1-4.05,6c-1.19.35-1.57.89-1.39,2A1,1,0,0,1,237.66,143.26Zm-5.12-15.5c-.64.32-.71.56-.21,1.32.8,1.2,1.44,1.47,2.55.53a1.7,1.7,0,0,1,.92-.32c1-.09,1.32-.59,1.09-1.39,0-1.75-.07-1.86-1.6-1.39A18.32,18.32,0,0,0,232.54,127.76Zm5.11,1.88a5.6,5.6,0,0,0-5.84,5.58,5.44,5.44,0,0,0,5.26,5.45,5.66,5.66,0,0,0,5.5-5.63A5.44,5.44,0,0,0,237.65,129.64ZM228,135.45c0-5.22,4.21-9.76,9.14-9.79s8.64,4,8.65,9.16c0,5.41-4,9.69-9.06,9.7A8.8,8.8,0,0,1,228,135.45Zm2.54-5.72c-4,5.26-1.49,12.58,4.13,14.07,1.71.45,1.81.39,1.86-1.31a1.07,1.07,0,0,1,0-.44c.28-.69-.14-.85-.7-1a6,6,0,0,1-3.74-8.85c.53-.9.43-1.42-.38-1.92h0C231.4,129.88,231.32,128.67,230.51,129.73Z" transform="translate(0 -2.75)"/><path d="M227.36,34.45l0,0,0,0Z" transform="translate(0 -2.75)"/><path d="M225,54.07a1.29,1.29,0,0,0,.38.08h.28l-.21.29Z" transform="translate(0 -2.75)"/><path class="cls-3" d="M225.17,9a9.51,9.51,0,0,0-.46-1.15c-.11-.2-.52-.24-.8-.36l0-.88a5,5,0,0,1,.83.12,9.68,9.68,0,0,0,2.88-.11c.86-.08,1.74-.16,2.59-.32,1.12-.22,2.24-.4,3.36-.61l.17.91-.36,1.57a.55.55,0,0,0,0,.22c.16.49.34,1,.51,1.46l.74-1.56.71-.1c.12.38-.15.88-.06,1.28s.28,1.08.63,1.27a15,15,0,0,0,8.61,1.71c.58,0,1.17,0,1.74-.09,2.68-.19,5.38-.22,7.86-1.47a4.28,4.28,0,0,0,1.92-3.16h.81c0,.29,0,.54-.06.78a3,3,0,0,0,.06.5,1.88,1.88,0,0,0,.49-.16,1,1,0,0,0,.46-.64l1.2.06a7,7,0,0,0-.14.92l.2.1-.33,1.06c-.28,0-.46.22-.71.63-1.79,2.9-3.63,5.78-5.48,8.65a3.55,3.55,0,0,1-3.14,1.61l-.7,0v-.81h0l-.06-.07h-1.75v-1c2.13,0,4.09-.38,5.13-2.63a4.46,4.46,0,0,1,.63-.76c1.39-1.84,2.77-3.69,4.24-5.67-1.14.66-2,1.26-3,1.72-2.56,1.24-5.36,1.18-8.1,1.44-5,.48-9.48-.43-13.42-3.63a1.09,1.09,0,0,0-.72-.16c-1.59.15-3.18.28-4.76.5l-.18,0-.25-.95a1.12,1.12,0,0,0,.49-.14c1.62-.18,3.25-.32,4.86-.56.26,0,.52-.53.62-.87,0-.12-.41-.56-.61-.55-1.7.1-3.4.24-5.09.45-.31,0-.83.48-.83.72a2.52,2.52,0,0,0,.06.48Z" transform="translate(0 -2.75)"/><path class="cls-3" d="M224.79,49.05l-.16-1c1.16-.25,2.17.41,2.64,1.93l-.93.12a1.76,1.76,0,0,0-.52-.76A1.25,1.25,0,0,0,224.79,49.05Z" transform="translate(0 -2.75)"/><path d="M224.57,49.11a1.37,1.37,0,0,0-.4.24l.25-.37Z" transform="translate(0 -2.75)"/><path class="cls-3" d="M222.27,63.1c-.43-.69-.8-1.43-1.21-2.17l.78-.77c.35.49.72,1,1.07,1.46.33-1.2.4-1.22,1.34-.31a3.38,3.38,0,0,0,.62.42c.25.16.5.3.76.45l1,.52a3.15,3.15,0,0,1-2,1.44A2,2,0,0,1,222.27,63.1Z" transform="translate(0 -2.75)"/><path class="cls-3" d="M221,21.74a4.36,4.36,0,0,1-1.87-.46.7.7,0,0,1-.4-.44c0-.12.25-.27.38-.42.35-.41.69-.84,1-1.26l1.07-1.33c.32.32.64.62.88.85l1,0c0,.21,0,.42,0,.62a4.05,4.05,0,0,0,.12,1.12l-1,.25C221.84,21,221.46,21.66,221,21.74Z" transform="translate(0 -2.75)"/><path class="cls-3" d="M224.19,52.53c.59-1.28-1-.84-1.18-1.49h0l1.16-1.69a1.37,1.37,0,0,1,.4-.24l.42.37c-.1.28-.31.57-.29.84a1.35,1.35,0,0,0,.41.8c.15.14.46.1.7.15a6.76,6.76,0,0,1-.55.74,3.54,3.54,0,0,1-.68.53C224.49,52.59,224.32,52.53,224.19,52.53Z" transform="translate(0 -2.75)"/><path class="cls-3" d="M222.3,28.05l-3.2-.48.16-1.08a13.45,13.45,0,0,0,4.11.08,8.2,8.2,0,0,0,1.92-.77,7.06,7.06,0,0,0-1-1.85c-1-1-2.1-2-2.13-3.24l1-.25a6.17,6.17,0,0,0,1.56,2.59,9.18,9.18,0,0,1,2.14,3.88c.29,1.23-.6,2.75-1.81,3.65l-.95-.69c.21-.06.34-.4.5-.62-.22,0-.44-.06-.66-.07h-1.73v-.93Z" transform="translate(0 -2.75)"/><path class="cls-3" d="M221.84,30.62l.12-.25c.73-.15,1.48-.27,2.19-.48l.95.69a3.49,3.49,0,0,1-2,.77h-1.27Z" transform="translate(0 -2.75)"/><path class="cls-3" d="M217.32,24.38c1,.07,2.08.23,3.12.28.49,0,1-.17,1.5-.2a1.67,1.67,0,0,1,.89.16c.15.1.3.5.22.63a1.15,1.15,0,0,1-.69.52,7.28,7.28,0,0,1-1.4,0,.52.52,0,0,0,0,.11c-1.24-.2-2.49-.39-3.72-.65-.28-.06-.49-.41-.74-.62A2.8,2.8,0,0,1,217.32,24.38Z" transform="translate(0 -2.75)"/><path class="cls-3" d="M217.73,81.92c.14-.27.4-.54.41-.82q.24-10,.4-19.93l.8,0c0,2.5.19,5,.22,7.5,0,4.34,0,8.69,0,13h.35c0-1.37,0-2.74,0-4.11,0-5.47.1-10.94.13-16.41h.85q0,9.76,0,19.52a1,1,0,0,0,.34.71,3.36,3.36,0,0,1,1,2.62h-.45c-.37-.52-.6-1.12-.83-1.12-1.25,0-2.5.25-3.74.21-.89,0-1.27,0-1.27.44l-.76,0a2.8,2.8,0,0,1,.7-1.94,1.19,1.19,0,0,0,.21-.78c0-3.18,0-6.37,0-9.55h1.35c0,3.27,0,6.54,0,9.81A2.83,2.83,0,0,0,217.73,81.92Z" transform="translate(0 -2.75)"/><path class="cls-3" d="M220.51,84.61a26.74,26.74,0,0,1-3.35,0c-.19,0-.35-.49-.53-.76.24-.13.47-.37.72-.39a11,11,0,0,1,1.51.06v0a10.85,10.85,0,0,1,1.51,0c.25,0,.46.27.69.42C220.88,84.18,220.71,84.6,220.51,84.61Z" transform="translate(0 -2.75)"/><path class="cls-3" d="M218,42a3.4,3.4,0,0,1-.38-.38c-.22.36-.47.71-.68,1.07l-1-.51a20.29,20.29,0,0,1,1.23-2l1,.29c.2.48.39,1,.58,1.44Z" transform="translate(0 -2.75)"/><path class="cls-3" d="M233.65,34.07,232,35.43a9.16,9.16,0,0,0,1.86,1.51c.18.08,1.11-.8,1-1A9.09,9.09,0,0,0,233.65,34.07Zm-8.25,1.08a1.88,1.88,0,0,0-.83.72c-.06.11.34.69.42.66a6.11,6.11,0,0,0,1.19-.63C225.8,35.52,225.5,35.1,225.4,35.15Zm.94-.07.56.66c.15-.39.3-.79.44-1.18a.19.19,0,0,0,0-.07l0,0A4.24,4.24,0,0,0,228,35a2.85,2.85,0,0,0,.64.22,2.13,2.13,0,0,0,.19-.75c0-.11-.33-.29-.5-.28a5.33,5.33,0,0,0-.92.27l0,0v0Zm-3.27,1.48c0,.29.3.57.48.86l.78-.58-.71-1C223.42,36.1,223.06,36.34,223.07,36.56ZM221.76,39c.46-.5.94-.79,1-1.17s-.4-.67-.63-1c-.29.28-.75.52-.83.85S221.55,38.41,221.76,39Zm-.39.51L220.6,38c-.13.15-.39.34-.36.46a11.14,11.14,0,0,0,.5,1.32Zm-1.75-.43c-.13.11-.22.16-.22.2,0,.54,0,1.08,0,1.62h.43c0-.47,0-.94,0-1.41C219.83,39.35,219.7,39.21,219.62,39.06Zm-2.51,1.18a19.53,19.53,0,0,1,11-7.41c1.43-.41,2.86-.75,4.29-1.13a3.62,3.62,0,0,1,1.45-.11l-.08.79a2.92,2.92,0,0,0-1.6.41c2.89.26,4.3,1.65,4,3.91-.22,1.87-1.39,2.64-3.66,2.36l.87,1.27,1.31,2.27,2.85,7-.65.26-.06-.13c-.46-.94-.83-1.93-1.3-2.88-1.46-2.94-2.51-6.13-5.06-8.44a3.26,3.26,0,0,1-.88-1.47c-.21-.73-.52-.8-1.17-.57a19.09,19.09,0,0,0-7.06,4.4A15.94,15.94,0,0,0,217.67,46l-.87-.39A2.63,2.63,0,0,0,217,45c.06-.21-.37-.56-.58-.85l.36-.29c.14.19.32.4.48.64a7.48,7.48,0,0,0,1.09-1.85c0-.18-.18-.4-.42-.64l.71-.05.42-.21-.6-1.38-.4.15Z" transform="translate(0 -2.75)"/><path class="cls-3" d="M216.25,46.51c.17-.31.38-.61.55-.92l.87.39a15.59,15.59,0,0,0-.67,1.89l-1-.29a.26.26,0,0,0,0-.15c-.09-.29-.45-.51-.69-.76l.59-.49Z" transform="translate(0 -2.75)"/><path class="cls-3" d="M215.39,45.54l-1-.07c.14-.36.27-.74.42-1.1a22.85,22.85,0,0,1,1-2.17l1,.51a4.07,4.07,0,0,0-.33.66c0,.12.07.29.24.5l-.36.29Z" transform="translate(0 -2.75)"/><path d="M216.1,56.4a4.45,4.45,0,0,1-.77,2.44l-.78-.46.63-2.4.89-.08A4.19,4.19,0,0,1,216.1,56.4Z" transform="translate(0 -2.75)"/><path class="cls-3" d="M225.68,54.15h-.28a1.29,1.29,0,0,1-.38-.08l.45.37.21-.29c2.4-.06,4.81-.24,7.2-.1a2.16,2.16,0,0,0,2.55-1.72c.24-.67.2-.81-.5-.78-2.35.08-4.7.14-7.05.21-.2,0-.5,0-.6.16C226.73,52.65,226.21,53.4,225.68,54.15Zm-2.49,1.23a2.56,2.56,0,0,0-.49.91,3.61,3.61,0,0,0,.78.16l10.2.19c.53,0,.9,0,.87-.73s-.19-.89-.88-.87c-1.55.05-3.11,0-4.67,0v.11c-1.62,0-3.25,0-4.88,0A1.57,1.57,0,0,0,223.19,55.38Zm-3.83-3.75a3.56,3.56,0,0,0-1.15.58l.92.56,1.14-.54C220,52,219.65,51.61,219.36,51.63Zm-.29,2.93c-1.17-.05-1.36.71-1.62,1.85.43.47.78,1.17,1.31,1.35.76.25,1.72-.8,1.69-1.72A1.34,1.34,0,0,0,219.07,54.56Zm-5.49,8.35c.26-.36.51-.73.76-1.1l.33-.64c.6-.82,1.21-1.62,1.79-2.45a.77.77,0,0,0,0-.58,6.53,6.53,0,0,1-.31-1.74c0-1.09.55-1.83,1.9-2.89a4.12,4.12,0,0,1-1.91-1.94l1.08-.25a2.07,2.07,0,0,0,.63-.13,2.42,2.42,0,0,1,3,.13c.14.11.41.08.62.11l.77.72A3.55,3.55,0,0,1,220,53.53l1.4,1.82,3.31-2.59.1-.08a10.12,10.12,0,0,0,1.05-.77,1.74,1.74,0,0,0,.44-1.77l.93-.12c.22.74.56.75,1.16.73q4-.16,7.94-.24c.55,0,.78-.12.57-.63l.65-.26c.35.85.69,1.71,1,2.56-1.11-.78-1.11-.78-1.52-.37a5,5,0,0,0-.76,6c.16.25.33.48.5.71l-1.1.22a3.41,3.41,0,0,0-2-1.11c-2.8-.06-5.59-.14-8.39-.18a19,19,0,0,0-2,.21,10.5,10.5,0,0,0,2.42,1.61A2.09,2.09,0,0,1,227,61.63a2.9,2.9,0,0,1-.37,1.07l-1-.52a16.92,16.92,0,0,0-.16-1.76c0-.17-.44-.23-.64-.38-1-.76-1.88-1.52-2.84-2.27a3.82,3.82,0,0,0-.64-.32c-.18.42-.62,1-.48,1.24a15.54,15.54,0,0,0,1,1.47l-.78.77c-.09.12-.16.17-.16.22h-.85v-.26a4.25,4.25,0,0,0-.37-1.2,4.38,4.38,0,0,0-.35,1.23c0,.08,0,.15,0,.23l-.8,0a5.4,5.4,0,0,0-.2-1.11,3.73,3.73,0,0,0-1.09.62,1.67,1.67,0,0,0-.35,1.06c0,3.16,0,6.32,0,9.47H216c0-.45,0-.9,0-1.35,0-2.47,0-4.93,0-7.43-.64.5-1.21.91-1.72,1.35Z" transform="translate(0 -2.75)"/><path class="cls-3" d="M237.28,34.05a4.73,4.73,0,0,0,.67,1.37,6.81,6.81,0,0,0,1.55.86l.16-.1c-.3-.39-.59-.8-.92-1.17a5.47,5.47,0,0,0-.68-.58l.74-.36v-.18ZM219.92,15.8c.08.07.29.34.53.38s.47-.34.47-.53a6.41,6.41,0,0,1,2-4.88,6,6,0,0,0,.57-.66,3.08,3.08,0,0,0-.94.19C220.53,11.45,220.25,13.5,219.92,15.8Zm-5.33,6.38-.81-.47a10.28,10.28,0,0,0,3.39-3.54c.43-.79,1-1.48,1.51-2.24a2.4,2.4,0,0,0,.35-1c.23-2.47,1-4.59,3.36-5.88.24-.13.33-.66.37-1,.11-1.07.44-1.45,1.19-1.44l0,.88c0,.3-.24.7-.12.88a15.48,15.48,0,0,0,1.28,1.53l.34-.19L225.17,9l.86-.23c.07.26.21.47.5.47l.25.95c-.63.15-.8.6-.37,1.29,1.3,2.1,2.58,4.22,3.81,6.36a2.35,2.35,0,0,0,2.2,1.3c4.76.07,9.52.15,14.28.2h.24v1c-2.06,0-4.11,0-6.17,0-.62,0-1.05.1-.79.84.12.36.43,1,.51,1,.5-.13,1.14-.29,1.38-.67a2.14,2.14,0,0,1,2.07-1.09c1.6,0,3.19,0,4.79,0v.81c-1.61.08-3.23.22-4.84.37A1.45,1.45,0,0,0,243,22a4,4,0,0,0-1,3.06c0,.71.07,1.43.1,2.14l-.87,0c-.06-1.15-.17-2.32-.25-3.61-.19.25-.27.31-.27.37-.19,3-.36,5.92-.53,8.88,0,.06.06.12.07.19.17,1.46.33,2.91.49,4.36,0,.1-.07.28-.12.29-.65.09-.76.38-.72.71l-1,.11c-.06-.46-.12-.91-.19-1.37,0-.26-.49-.46-.75-.68a3.56,3.56,0,0,0-.41.7c-.14.52-.22,1.06-.3,1.44l-.75,0a15.58,15.58,0,0,1,.23-2.33,3.6,3.6,0,0,0-1.7-3.45,2.21,2.21,0,0,0-1.18-.49l.08-.79a5.73,5.73,0,0,1,1.79.57,8.3,8.3,0,0,0,2.89.43c.16,0,.5-.46.49-.7,0-3.43-.07-6.86-.19-10.29,0-.21-.58-.56-.9-.58-2.1-.05-4.21-.05-6.32,0a2.24,2.24,0,0,1-2.12-1.24q-2.18-3.72-4.43-7.38c-.78-1.26-1.42-1.29-2.08,0s-1.36,2.76-.21,4.38a3.28,3.28,0,0,1,.31,1.93l-1,0c0-1.23,0-1.23-1.36-1.41a1.84,1.84,0,0,1-.53-.1c-.91-.39-1.42,0-1.75.83a7.43,7.43,0,0,1-3.61,4.05Z" transform="translate(0 -2.75)"/><path class="cls-3" d="M213,49.4a1.14,1.14,0,0,1,.94-.3c.16,0,.25.52.37.8.32.72.64,1.45,1,2.34-.15,0-.41.16-.5.09a18.07,18.07,0,0,1-2-1.86A1.23,1.23,0,0,1,213,49.4Z" transform="translate(0 -2.75)"/><path d="M213.13,61.66c.53-.51,1.11-1,2-1.7-.23.64-.32.92-.42,1.21l-.33.64a3.11,3.11,0,0,1-.66.55.57.57,0,0,1-.52-.17A.53.53,0,0,1,213.13,61.66Z" transform="translate(0 -2.75)"/><path class="cls-3" d="M213.86,27.81a7.54,7.54,0,0,0-1.44-.33c.43.35.8.9,1.28,1,2.7.75,5.42,1.41,8.14,2.1l0,.72a21.36,21.36,0,0,1-8.61-1.82,4.09,4.09,0,0,1-2-1.57,12.1,12.1,0,0,1-.79-3.71c0-.3.47-.78.84-1,.86-.5,1.72-1,2.53-1.55l.81.47a6.51,6.51,0,0,0-.64.51c-1.27,1.1-1.24,1.69.31,2.31a24.11,24.11,0,0,0,5,1.49l-.16,1.08c-1-.16-2-.3-3-.45,0,.13,0,.26-.05.39l6.2.75v.93A20.52,20.52,0,0,1,213.86,27.81Z" transform="translate(0 -2.75)"/><path class="cls-3" d="M211.41,58.75c0,.19.27.42.58.85.31-.49.66-.82.59-1s-.48-.46-.75-.69A2.6,2.6,0,0,0,211.41,58.75Zm.77,7.83a2.85,2.85,0,0,0,.27.92c.11-.3.23-.6.34-.92-.11-.36-.21-.68-.32-1A3.71,3.71,0,0,0,212.18,66.58Zm-1-1.91a1,1,0,0,0,.26-.07c0-.58-.08-1.16-.14-1.75,0,0-.12-.06-.27-.14,0,.24,0,.38,0,.52Zm.23.86-.47,0c0,.5,0,1,0,1.5a1.22,1.22,0,0,0,.28.06C211.34,66.54,211.4,66,211.45,65.53Zm.31-8.89c0,.25.35.53.56.77,0,0,.24-.15.37-.23-.41-.58-.76-1.15.31-1.44a2.55,2.55,0,0,0-.18-.79c-.1-.2-.34-.34-.65-.64A21.29,21.29,0,0,0,211.76,56.64Zm1.1-3.9c-.16.31-.36.58-.31.63a11.45,11.45,0,0,0,.94.9c.12-.16.38-.42.35-.45A14.55,14.55,0,0,0,212.86,52.74Zm-1.29,16.48c-.1-.52-.29-1-.43-1.53-.15.49-.29,1-.44,1.48h-1v-.34c.07-5.24.27-10.46,1.69-15.55a2.79,2.79,0,0,0,0-2.25,2.07,2.07,0,0,1,.87-2.69,4.77,4.77,0,0,0,2.15-2.86l1,.07.56.64-.59.49c-.13.24-.38.49-.35.71a4.32,4.32,0,0,0,.56,1.1l-1.14.34a1,1,0,0,0-.6-.21,1.93,1.93,0,0,0-1.31,1.23,2.39,2.39,0,0,0,.5,1.68,8.21,8.21,0,0,0,1.41,1.19,4.83,4.83,0,0,1,1.64,3.19l-.89.08-.44-.11-.63,2.39.44.12.78.46a5,5,0,0,1-.6.72c-.48.48-1.17.75-1.63,1.25a1.78,1.78,0,0,0-.42,1.3c0,.31.59.54.9.8l.7.88-.22.2a1.59,1.59,0,0,0-.6,1c0,1.19,0,2.39,0,3.59h-.79c0-.1-.14-.21-.22-.32-.09.13-.26.27-.26.4s0,.55,0,.82l-.63,0A2.3,2.3,0,0,0,211.57,69.22Z" transform="translate(0 -2.75)"/><path class="cls-4" d="M119.22,252.06a4.13,4.13,0,0,0-2.91.22l-.88-.66a7,7,0,0,0,3.18-2.2c.2-.27.62-.39.94-.58,0,.35.09.7.16,1a8.37,8.37,0,0,0,.27,1.34c.18.52,0,.78-.23.86A.88.88,0,0,1,119.22,252.06Z" transform="translate(0 -2.75)"/><path class="cls-3" d="M109.09,253.67h0l.06,0-.06,0Zm0,0a32.44,32.44,0,0,1-4.42-.93,14.77,14.77,0,0,1-2.14-1l.68-.86a11.11,11.11,0,0,0,8.41.62,9.8,9.8,0,0,0,2.28-1.62c.29-.22.46-.62.77-.76a5.55,5.55,0,0,1,1.31-.29c-.12.43-.12,1-.39,1.26-.75.82-1.61,1.54-2.43,2.29a.45.45,0,0,0,.1.05c.72-.29,1.46-.54,2.17-.82l.88.66c-.35.14-.7.31-1.07.5a32.37,32.37,0,0,1-5.93,2,.46.46,0,0,1-.26,0,8.54,8.54,0,0,1-1-.39c.32-.24.63-.49,1-.72C109.05,253.69,109.07,253.67,109.09,253.67Z" transform="translate(0 -2.75)"/><path class="cls-3" d="M113.11,247.78a7.71,7.71,0,0,1-6.27,3.8,4.65,4.65,0,0,1-4.19-2.78,18.22,18.22,0,0,1-.92-3.89,1.72,1.72,0,0,1,.38-1.31,3.79,3.79,0,0,1,1.34-.56,6.18,6.18,0,0,1,0,1,6,6,0,0,0,1.43,4.66c1.47,1.84,3.75,1.83,5.62,0,.51-.5.89-1.15,1.41-1.65a5.17,5.17,0,0,1,1.18-.65A3.61,3.61,0,0,1,113.11,247.78Z" transform="translate(0 -2.75)"/><path d="M109.1,253.66l.06,0Z" transform="translate(0 -2.75)"/><path d="M109.1,253.66h0Z" transform="translate(0 -2.75)"/><path class="cls-3" d="M109.59,280.36c0,.25-.19.53-.25.79-.29-.24-.71-.43-.85-.75a13,13,0,0,1-.59-1.86l1-.36c.23.64.45,1.28.67,1.93A.67.67,0,0,1,109.59,280.36Z" transform="translate(0 -2.75)"/><path class="cls-3" d="M111.2,241.38a.79.79,0,0,1-.74.1,4.49,4.49,0,0,0-3.78-.79,2.54,2.54,0,0,1-.78-.19c.14-.24.23-.56.44-.68.64-.37,1.33-.67,2.26-1.12.87.6,1.75,1.16,2.57,1.8C111.33,240.63,111.31,241.12,111.2,241.38Z" transform="translate(0 -2.75)"/><path class="cls-3" d="M107,281.32l-1.17-.07c0-.84,0-1.7,0-2.56,0-.41.4-.82.6-1.23.21.33.58.66.66,1a.31.31,0,0,1,0,.16C107.13,279.51,107.08,280.42,107,281.32Z" transform="translate(0 -2.75)"/><path class="cls-3" d="M106.4,246.41a1.14,1.14,0,0,0,.68.38c.76,0,2.29-1.52,2.31-2.68-.17-.47-.46-1.29-.74-2.1a2.78,2.78,0,0,1-.05-.58,1.69,1.69,0,0,1,.67.18c1.78,1.57,1.34,5-.76,6a3.71,3.71,0,0,1-3.15-1,3.33,3.33,0,0,1,.55-4.41,2.82,2.82,0,0,1,1-.2,3.44,3.44,0,0,1-.35.78A2.86,2.86,0,0,0,106.4,246.41Z" transform="translate(0 -2.75)"/><path class="cls-3" d="M101.87,231.75c-.23-.72-.24-1.52-.53-2.21a2.16,2.16,0,0,0-1.12-1.16c-1.94-.57-2.07-.84-.76-2.3.14-.15.45-.3.44-.43a9.87,9.87,0,0,0-.27-1.4l.4-.4,1.25,1.25c.79.81,1.58,1.62,2.34,2.46.5.55,1.2,1.1,1.36,1.76a1.55,1.55,0,0,0,.07.23l-1.14.17a2.21,2.21,0,0,0-1.42-1.23c.15,1,.33,2,.42,3a2.48,2.48,0,0,1-.3.92C102.35,232.21,102,232,101.87,231.75Z" transform="translate(0 -2.75)"/><path class="cls-3" d="M119.5,254.83c-6.37,2.77-12.59,2.92-18.29-1.57A16.16,16.16,0,0,1,98,249.2c-.19-.28.39-1.06.61-1.61a3.47,3.47,0,0,1,.9.54,10.87,10.87,0,0,0,3.67,2.76l-.68.86c-.71-.38-1.4-.78-2.12-1.15a13.9,13.9,0,0,0,8.58,4.65,17.61,17.61,0,0,0,5.92-.3,37.86,37.86,0,0,0,5.22-1.87l.26-.1a4.93,4.93,0,0,1,.67-.11c0,.24,0,.56-.12.7A5,5,0,0,1,119.5,254.83Z" transform="translate(0 -2.75)"/><path d="M87.77,296.08l0,.06,0,.06s0-.05,0-.07Z" transform="translate(0 -2.75)"/><path class="cls-3" d="M124.48,259.26c-.78-.45-1.38-.82-2-1.12-.11-.05-.36.21-.54.32a8.34,8.34,0,0,0,1.23,1.46C123.3,260,123.88,259.57,124.48,259.26Zm265.43-3.18c-1-1.29-1.69-2.95-3.54-3-.52,0-1.15.77-1.57,1.32-.1.13.36.87.7,1.14.58.43.65.83.22,1.35a7,7,0,0,1-.66.59c.84.39,1.63.71,2.38,1.12s1.19,1.18.7,1.9-.12,1,.19,1.46a3.34,3.34,0,0,1,.65,1.61c0,.21-.84.44-1.31.67l1,1.65c.31-.72.59-1.44.82-2.16a17.47,17.47,0,0,0,.9-6.07A2.83,2.83,0,0,0,389.91,256.08Zm-6.9,6.75c-.1-.06-.32.07-.48.11.05.13.06.31.14.37,1.32,1,2.64,1.94,4,2.9l.31-.37C386.22,264.08,384.45,263.67,383,262.83Zm2.86-1.5c-.83-.15-1.57-1.44-2.64-.15Zm.25,6c-1.31-.79-2.65-1.53-4.12-2.37a4.12,4.12,0,0,0,1.71,3.26,1.83,1.83,0,0,0,2.46-.17A.8.8,0,0,0,386.12,267.34Zm-4.55-7c.38-.78.79-1.28-.52-1.16-.36,0-1.06-.75-1,.32.05,1.53.2,3,.29,4.42A33.58,33.58,0,0,1,381.57,260.38Zm-5.8,9.77c1.16-.88,2.22-1.64,3.22-2.47a1.24,1.24,0,0,0,.34-.95c-.27-2.7-.58-5.39-.88-8.09a9.29,9.29,0,0,0-.17-1.29c0-.15-.37-.38-.48-.34-1.44.5-2.88,1-4.25,1.55C376.74,262,377.69,265.77,375.77,270.15Zm2.07,17.71c-1.06-5.65-2.77-11.33.12-17a10.64,10.64,0,0,0-1,1.12c-3.63,5.33-3.48,11-1.32,16.76.38,1,1.09.49,1.73.36C378.19,288.92,377.94,288.43,377.84,287.86Zm-1.22,2.67c.57-.12,1.13-.23,1.69-.36a2.3,2.3,0,0,0,0-.38l-1.43.31a1.11,1.11,0,0,0-.27.13C376.6,290.33,376.61,290.43,376.62,290.53Zm1.14,1c-.12,0-.47.36-.44.42a25.37,25.37,0,0,0,1.26,2.36c.06.11.39.1.59.09s.08-.2.07-.2a14.19,14.19,0,0,0-.52-2.27C378.63,291.66,378.11,291.54,377.76,291.49Zm-10.18-15.65c-.93-.28-.86.06-.88.78-.09,3.77-.1,7.56-.34,11.32,0,.53-.07,1.07-.12,1.61-.26,3.18.13,5.92,2.82,8a4.81,4.81,0,0,1,1,1.12c1.27,1.85,2.56,3.67,2.88,6a26.6,26.6,0,0,0,1.08,3.73c.54-1.15.82-1.88,1.21-2.55,1.25-2.15,2.44-4.29,2-6.94a25.59,25.59,0,0,1-.12-2.63c0-.29.1-.68-.05-.84a16,16,0,0,1-4-7.43,12.16,12.16,0,0,1-.24-1.23l-.12-.77c-.59-3.77-1.13-7.52.43-11.23,0,0-.05-.12-.09-.24A5.22,5.22,0,0,1,367.58,275.84Zm-3.46-14.64c2.13.33,4.24.6,6.33,1,2.58.5,4.35,1.92,4.7,4.75.7-2.43-.75-6.16-2.72-7.13C369.69,258.48,365.63,259.12,364.12,261.2Zm2.51,1.61c-.84-.05-1.68,0-2.53,0,7.74,3.47,8,3.69,8.88,8.77,1.39-1.22,1-3.56.37-4.92C372,263.9,369.5,263,366.63,262.81ZM360,258.19c.24.15.67,0,1,0-.22-.72-.24-1.87-.69-2.08a24.87,24.87,0,0,0-4.16-1.19c-.05.17-.11.33-.16.5C357.37,256.36,358.68,257.31,360,258.19Zm4.83,8.22a6.74,6.74,0,0,0-2.13-.16c.31.66.58,1.33.93,1.95.09.14.44.15.68.19a5.06,5.06,0,0,1,1.32.23c1.67.87,2,1.73,1.39,3.57-.27.76,0,1,.63,1.11,1.13.25,1.73-.46,1.67-2.31a3.16,3.16,0,0,0-1.42-2.81A18.1,18.1,0,0,0,364.87,266.41Zm6.07,2c-1.36-2.88-4.18-3.68-7.09-4.12-.18,0-.39.12-.76.25,6.44,1.37,8.33,3.7,7.37,8.87l.55.53c.17-.4.5-.81.47-1.19C371.39,271.25,371.54,269.62,370.94,268.37Zm-17.39-17.18c.3.91.81.84,1.48.56a8.2,8.2,0,0,0,1-.41c1.82-1,3.64-2.07,5.45-3.1q1.1-.63,2.19-1.23a3.18,3.18,0,0,1,1.25-.09c-.15.39-.2.93-.48,1.15a19.62,19.62,0,0,1-3.52,2.38,4.74,4.74,0,0,0-2.19,2.59c2.2.84,4.42,1.32,6.24,3a6.55,6.55,0,0,0,4.14,1.51,25.69,25.69,0,0,0,6-1,12.38,12.38,0,0,0,8.26-6.08,3.19,3.19,0,0,1,.64-.63h0a8.75,8.75,0,0,1-4,5.89c-.79.46-.1.84-.08,1.25.29-.05.69,0,.85-.17.32-.34.44-1.09.77-1.18,1.43-.36,1.87-1.52,2.43-2.64.2-.37.6-.65.79-1s.48-.92.35-1.23-.7-.61-1.08-.89a0,0,0,0,0,0,0l0,0c-.77-1.67-1.57-3.33-2.32-5-.31-.72-.62-1-1.5-.67-.35.13-1.05-.54-1.49-1a.91.91,0,0,1,.06-.9c.66-.51.47-1,.07-1.49a2.32,2.32,0,0,1-.21-.48c.13,0,.29-.14.39-.1,1.38.49.6-.43.43-.73-.76-1.29-1.59-2.54-2.55-4.06,2.4.8,2.76,3.21,4.54,4.63-1-1.89-1.79-3.56-2.63-5.23l.3-.21,3.26,3.47.9-2.42.2.11c.13,1.9.27,3.8.43,6,.68-1.69,1.2-3.07,1.82-4.41.14-.31.65-.44,1-.65-.1.31-.19.63-.31.94s-.25.32-.25.48c0,.43-1.09,1.31.43,1.2a1.92,1.92,0,0,1,0,.63c-.39,1.49-.84,3-1.2,4.45-.6,2.47.37,4.65,1.43,6.78a1.7,1.7,0,0,0,.65.52c2.44,1.43,4.38,3.33,4.35,6.31-.05,4.12-1.09,7.88-4,10.82a14.4,14.4,0,0,1-1.35,1.2c-1.44,1.13-3.18,1.47-4.31.63-.63-.48-1-.37-1.18.3a43.4,43.4,0,0,0-1.09,5.61c-.41,4.64,1,9.07,1.79,13.58a9.81,9.81,0,0,0,1.14,2.44,8.21,8.21,0,0,0,.64.94c.1-.32.18-.65.3-1,0-.12.17-.31.27-.32.86-.05,1.67-.16,2.06-1.12a1.66,1.66,0,0,1,.86.22,5.65,5.65,0,0,1,1.76,2.46,7.93,7.93,0,0,1,.42,1.79.81.81,0,0,1-.34.7.9.9,0,0,1-.76-.21,11.08,11.08,0,0,1-1-1.15,4.62,4.62,0,0,0,.13,1.34c0,.39,0,1.08-.23,1.16-.82.32-1.19,2-2.52.92,0,0-.22,0-.29.08-1,.8-1.41-.17-1.92-.69-.24-.24-.23-.78-.49-1a3.92,3.92,0,0,0-2.06-.89c-.85.1-1.33.87-.95,1.89a3.23,3.23,0,0,1,.12,1.08,13.61,13.61,0,0,1-2.49,7.66c-1,1.6-.81,2.85,1,3.24a30.08,30.08,0,0,0,7,.77,6.79,6.79,0,0,0,5-2.11,7.38,7.38,0,0,0,1.58-6.22,39,39,0,0,0-2-8.48,36.5,36.5,0,0,0-3.47-7.11,11.33,11.33,0,0,1-1.54-8.29A18.8,18.8,0,0,1,388.4,269a19.17,19.17,0,0,1,3.19-2.79,17.16,17.16,0,0,0,6-7.86,15.77,15.77,0,0,1,6.45-7.7,3.68,3.68,0,0,0,1.63-4.15,9.28,9.28,0,0,0-1.4-2.65c0-.1-.3-.07-.46-.1,0,.09,0,.26,0,.26,1.1.3.33,1,.15,1.31q-1.67,2.39-3.43,4.71l-.69-.52a5.85,5.85,0,0,0,.53-.91,23.08,23.08,0,0,1-2.85,1.12l-.24-1.12a6.65,6.65,0,0,0,4.69-3.82c.37-.71.53-1.7,1.11-2.09,1.29-.84.59-1.59.21-2.44a19.06,19.06,0,0,1-1.53-3.63,4.35,4.35,0,0,0-3-3.58c-2-.64-2.93-2.06-3.73-3.81-.37-.79-.77-1.57-1.19-2.34s-1-1.76-1.53-2.62a4.1,4.1,0,0,0-3.93-2.11,4.54,4.54,0,0,0-3.46,2.41,74.77,74.77,0,0,1-4.21,6.62,16.06,16.06,0,0,1-4,4.2,8,8,0,0,1-1.94.95,15.38,15.38,0,0,0-8.34,6,16.48,16.48,0,0,1-5.44,5.17,16.92,16.92,0,0,1-7.2,2.12,7.62,7.62,0,0,0-1.39.34C352.88,250.38,353.4,250.72,353.55,251.19Zm-1.57.65c-.85-1.49-1.63-1.56-2.91-.34a4.32,4.32,0,0,0-1,1.1,2.06,2.06,0,0,0-.12,1.44,6.85,6.85,0,0,0,1.16,1.47,19,19,0,0,0,1.84-.95.72.72,0,0,0,0-.71c-.74-.64-.47-.87.33-1C351.88,252.8,352.39,252.56,352,251.84ZM350,257.62a6.06,6.06,0,0,0,1.27,0c.61,0,1.39-.1,1.81.22,2.11,1.53,4.16,3.15,6.15,4.84.7.58,1,.43,1.58-.14,1.47-1.52,3-3,4.5-4.42a3,3,0,0,1-.9-.55c-.95-1-1.51,0-1.77.52-1.13,2.08-1.8,2.32-3.77,1.06a44.65,44.65,0,0,0-4.11-2.63c-1.29-.65-1.47-.9-.64-2.15a9.26,9.26,0,0,0,.51-1.05l-.33-.29a5.75,5.75,0,0,0-1.24,1.22,3.54,3.54,0,0,1-3,2.31,2.49,2.49,0,0,0-.82.4C349.51,257.17,349.73,257.54,350,257.62ZM262.4,90.85c0-.32-.38-.65-.59-1-.21.34-.43.67-.64,1,0,0,0,.07,0,.11q-.18,9.43-.33,18.86c0,1.7,0,3.4,0,5.09l.32,0c0-.6.11-1.2.13-1.8.24-4.9.46-9.8.7-14.7C262.12,95.93,262.31,93.39,262.4,90.85Zm-4.74,11.58c-.2,3.92-.41,7.85-.56,11.77,0,.35.33.72.51,1.07.27-.33.75-.66.76-1,.11-2.69.11-5.38.17-8.07.12-5.2.27-10.4.37-15.6a3.22,3.22,0,0,0-.43-1.1,4.53,4.53,0,0,0-.32,1q-.26,5.94-.47,11.88Zm-12.9,156.43c-.56-.16-1,0-1,.81,0,2.46-.14,4.92-.16,7.39,0,.35.35,1,.57,1,.71.05,1.35-.14,1.28-1.15-.08-1.19,0-2.4,0-3.59h.08c0-1.2,0-2.4,0-3.59A1.19,1.19,0,0,0,244.76,258.86Zm-3.42,9.74c.12-.21.36-.42.36-.63,0-1.78,0-3.56,0-5.34h.17c0-.87.13-1.74.09-2.61a3.31,3.31,0,0,0-.51-1.08c-.22.33-.62.65-.63,1,0,2.69,0,5.37.11,8.06C241,268.19,241.2,268.4,241.34,268.6Zm-2.14-8.39c.17-1.11-.2-1.39-1.26-1.32-.76.06-1,.31-1,1s0,1.38,0,2.07c0,1.89,0,3.79.2,5.66.05.42.93.76,1.43,1.13a3.75,3.75,0,0,0,.36-1.07c0-1.31,0-2.62,0-4C239,262.59,239,261.39,239.2,260.21Zm-1.41,10.66c-2.42-.4-2.42-.44-3.54,1.85-.15.29-.26.61-.43.88-.67,1.11-.18,1.84.77,2.43a11.77,11.77,0,0,0,6.66,1.73c2.36-.22,5.22-.22,7.63-2.08a1.06,1.06,0,0,0,.35-1.58c-.73-1.25-1.53-2.47-2.19-3.76-.39-.74-.8-.69-1.46-.46A15.38,15.38,0,0,1,237.79,270.87ZM220.94,90c0-.22-.21-.43-.33-.65a6.38,6.38,0,0,0-.38.67,1.24,1.24,0,0,0,0,.43q.1,12.09.22,24.18a3.27,3.27,0,0,0,.28.94,3.27,3.27,0,0,0,.28-.94q0-6,0-12.09H221V94.27C221,92.86,221,91.44,220.94,90Zm-3.35-2.39c.2-.38.38-.57.34-.67a4,4,0,0,0-.46-.72c-.14.1-.44.26-.42.31A10.62,10.62,0,0,0,217.59,87.63Zm.13,11.52c-.07-2.9-.13-5.81-.24-8.71,0-.25-.34-.48-.52-.73-.15.23-.43.46-.43.69q0,12,.1,24.09c0,.28.27.56.42.84a3,3,0,0,0,.3-.82c.06-3,.08-5.89.15-8.83a3.8,3.8,0,0,1,.35-1,2.94,2.94,0,0,1,.39,1c0,1.88,0,3.77,0,5.66,0,1.16,0,2.32,0,3.48a1.68,1.68,0,0,0,.25.61,1.92,1.92,0,0,0,.2-.63c0-1.63-.08-3.26-.07-4.89.05-6.4.12-12.79.15-19.18,0-.31-.28-.61-.42-.92-.14.32-.41.63-.41.94,0,2,.14,3.92.19,5.88,0,1.28,0,2.56,0,3.85h-.42C217.73,100,217.73,99.57,217.72,99.15Zm-127,158.77c-.06-.53-.12-1.06-.19-1.58l-.4.05c.1.52.19,1.05.31,1.57ZM214.41,113.24l-.69-.8c-.16.18-.48.4-.44.52a11.82,11.82,0,0,0,.63,1.47ZM115.65,268.36l-.29-.44a6.89,6.89,0,0,0-4.15,2.46c.08.13.15.26.23.38Zm-24-29.73.51-.1a7,7,0,0,0,.09-1.64c-.08-.4-.52-.72-.67-1.12-.59-1.53-1.1-3.07-1.68-4.6-.12-.3-.45-.51-.68-.76a4,4,0,0,0,0,.92c.37,1.33.73,2.66,1.16,4C90.82,236.43,91.27,237.52,91.69,238.63Zm-.6,25.88a3.22,3.22,0,0,0-1.39-.93c-.1-.05-.59.35-.58.55a2.7,2.7,0,0,0,.33,1.48,15.65,15.65,0,0,0,1.88,1.94,3.68,3.68,0,0,0,.7.41c0-.25.07-.49.15-1A17.84,17.84,0,0,0,91.09,264.51ZM213.68,108.89c.16-.17.5-.44.47-.51a12.89,12.89,0,0,0-.8-1.27l-.61.85ZM100.53,279.77H96.21C97,280.91,98.9,281,100.53,279.77ZM214.46,104.23c-.56-.47-.86-.72-1.17-1-.17.26-.5.55-.47.79a5.51,5.51,0,0,0,.51,1.28ZM102.18,265.17c.9-.95,1.89-2,2.86-3.05a4,4,0,0,0,.41-.81,39.63,39.63,0,0,1,5.54-.53,45.9,45.9,0,0,1,6,.93,1.74,1.74,0,0,0-.22-.24c-3.4-2.32-9.6-2.26-13,.13C102.21,262.78,101.69,264.1,102.18,265.17ZM99.53,292l-.19-.36c-.92.19-1.83.37-2.74.57a.48.48,0,0,0-.27.24c-.26.53-.5,1.07-1,2.06Zm-17.24-38.8a4.57,4.57,0,0,1-2.32-.33c-1.51-.7-2.94-1.59-4.25-2.31a9.9,9.9,0,0,0,6.79,5.14,4.36,4.36,0,0,0,2.48-.5c4-1.85,5.4-9.11,3.06-13a27.15,27.15,0,0,1,.26,2.75,16.35,16.35,0,0,1-.24,2.71C87.35,251.82,86.47,252.69,82.29,253.22Zm17.4,32.86c1-.15,2-.4,1.86-1.71a13,13,0,0,1-2.73.9h-.21A15.24,15.24,0,0,1,96,285c.54,1.18.92,1.44,2.74,1.23C99,286.18,99.32,286.14,99.69,286.08Zm-5.53-27.82-1.72-1.16A1.16,1.16,0,0,0,94.16,258.26Zm-7.49-24.72c-.12-.26-.44-.42-.67-.63-.13.28-.43.58-.38.82a8.56,8.56,0,0,0,.66,2.7c1.25,2.26,2.64,4.45,4,6.62a.62.62,0,0,0,.06-.15,4.7,4.7,0,0,0-.91-3.57A47.17,47.17,0,0,1,86.67,233.54ZM106.33,269a1.39,1.39,0,0,0,.8,2.11,3.13,3.13,0,0,0,.81.14,2.64,2.64,0,0,1-.08-.73,6.29,6.29,0,0,1,.52-2.14,20.46,20.46,0,0,1,2.17-2.4C108.87,266.7,107.21,267.33,106.33,269Zm14-9c.19.1.46,0,.69,0-.06-.22-.14-.43-.19-.66-.11-.53-.22-1.06-.31-1.6-.07-.37-.1-.76-.19-1.12a1.2,1.2,0,0,0-.54,0l-5.28,2.1,1.72.6c0-1.23.36-1.42,1.42-.82C118.49,259.05,119.37,259.55,120.28,260ZM81.42,245.14c1.09-1,.88-2.23.63-3.43s-.67-2.44-2-2.94a1.58,1.58,0,0,0-1.28.33c-1.31,1.1-.63,4.45,1,5.05a2.49,2.49,0,0,0,.94.17,3.39,3.39,0,0,0,.85-.24l-.26,1.08h0s0,0,0,0v0A.1.1,0,0,0,81.42,245.14Zm8.86,16a30.35,30.35,0,0,0,3-.18c.37,0,.69-.44,1-.7,0,0,0-.26-.13-.35-1-1-3.5-.68-4,.54C90.11,260.66,90.26,261,90.28,261.14Zm2.58-21c1.36-.55.85-1.74.94-2.74ZM211.94,79.37l-.3-1.36c-.1,0-.26.07-.26.1,0,.44,0,.89.08,1.34Zm1.12-2.05c-.12-.65-.2-1.19-.3-1.72l-.27.06c0,.52.12,1,.19,1.56C212.68,77.23,212.74,77.23,213.06,77.32ZM107.73,297.52l-2.92-3.21-.33.3,2.9,3.2ZM79.44,235c-1.56-.44-2.4.25-2.34,1.8Zm15.71,28.7c.12,0,.38-.31.67-.57-.3-.46-.66-1.14-.75-1.11a11,11,0,0,0-1.64.91A16.44,16.44,0,0,0,95.15,263.74Zm-1.44,27.47a.64.64,0,0,0-.58.19c-.74.94-1.48,1.88-2.13,2.87s-2.11,1.8-2.06,3.25l6.15-5.32C94.69,291.91,94.23,291.52,93.71,291.21ZM212.39,93c0-.64-.07-1.27-.14-1.9s-.16-1-.25-1.48c0,.49-.1,1-.09,1.47,0,.65.1,1.3.15,2ZM94,233.62q.65-3.12,1.31-6.26l-.58-.13-1.17,6.3Zm6.44,39.27c-1.5.42-3,.92-4.53,1.43,1.71,1.3,3.53,1.48,4.85.43a1.3,1.3,0,0,0,.32-1.06C101,273.39,100.54,272.85,100.4,272.89Zm113-170.45c.09,0,.45-.32.95-.69a5,5,0,0,0-1.17-.83c-.11,0-.6.52-.55.67A1.91,1.91,0,0,0,213.4,102.44ZM212,83.81c0-.46,0-.93,0-1.4h0c0-.47,0-.94,0-1.4a3.59,3.59,0,0,0-.26-.76,2.57,2.57,0,0,0-.25.7c0,.94,0,1.88,0,2.81a2.71,2.71,0,0,0,.25.76A2.61,2.61,0,0,0,212,83.81ZM100,287.4c-1.56.24-3.14.77-4.81-.59.77,1.62,1.76,2.12,3.24,1.82a10.52,10.52,0,0,0,1.67-.44,4.5,4.5,0,0,0,.89-.65A3.48,3.48,0,0,0,100,287.4Zm.84-4.38c1.14-.21,1.13-.3,1-1.11l-5.36.92c.13.08.52.49.9.49A20.5,20.5,0,0,0,100.82,283ZM212.38,72.15c0,.77,0,1.55,0,2.33,0,.12.14.23.21.34.1-.08.27-.15.27-.23,0-.83,0-1.66,0-2.49Zm.66,21.2h.48c0-1.12,0-2.23,0-3.34,0-.08-.18-.15-.28-.23-.07.12-.19.24-.19.35C213,91.21,213,92.28,213,93.35Zm.3,6.88c.11,0,.4-.38.81-.81-.46-.27-.75-.56-.91-.5s-.46.42-.68.65A2.8,2.8,0,0,0,213.34,100.23ZM108.69,294.3c-1-.67-2-1.3-3-2a2,2,0,0,1-.3-.27c-.12.2-.32.37-.31.54a2,2,0,0,0,.21,1.13c.69.83,1.48,1.57,2.24,2.34.22.21.47.38.7.58a18.62,18.62,0,0,0,1.07-1.75C109.29,294.82,108.92,294.46,108.69,294.3Zm104.58-200c0,.91,0,1.83,0,2.74a2.9,2.9,0,0,1-.26.73c-.14-.23-.37-.45-.39-.7-.1-.92-.13-1.84-.18-2.77l-.33,0c.1,1,.16,2.09.3,3.12,0,.17.42.41.65.41s.67-.23.68-.38c.06-1.06,0-2.11,0-3.17ZM97.52,238.62c.25.75.46,1.52.68,2.28h.38c-.13-1.56-.2-3.14-.42-4.69-.12-.8-.59-1.74-1.53-1.44-.59.19-1,1.08-1.37,1.7-.05.08.3.62.48.64A1.93,1.93,0,0,1,97.52,238.62ZM107,298.55c.06-.14-.09-.47-.24-.61-1-.86-1.93-1.68-2.91-2.53-1.78,3.73-3.91,7.67-.87,11.76C104.3,304.36,105.66,301.47,107,298.55ZM96.66,245.37a28,28,0,0,0-1.7-3.75c-.12-.24-.59-.28-.9-.42a2.77,2.77,0,0,0,0,1c.63,1.53,1.31,3,2.07,4.77C96.35,246.33,96.79,245.75,96.66,245.37Zm4.79,32.11c.31-.21.2-1,.29-1.54-.35.12-.69.26-1,.36-1.16.33-2.3.7-3.47.95a4.23,4.23,0,0,1-1.36-.12,7.73,7.73,0,0,0,1,1.29,6.74,6.74,0,0,0,1.65.6A21,21,0,0,0,101.45,277.48Zm8.48,16.11c0-.38.25-1,.1-1.1-1.2-.85-2.47-1.61-3.8-2.45-.1.17-.28.33-.29.51,0,.34-.08.86.1,1,1,.7,2,1.33,3.08,1.94A2.34,2.34,0,0,0,109.93,293.59ZM109.51,269a1.45,1.45,0,0,0,0,2.06c.77-2.53,2.89-3.48,5.21-4.51C112.53,266.7,110.71,267.22,109.51,269ZM213.45,68.54c0,1.06,0,2.11.08,3.17q.74,14.7,1.54,29.41c0-4-.2-7.91-.39-11.86,0-.83-.23-1.71,1-1.9a2.48,2.48,0,0,0,.08-1.74,3.2,3.2,0,0,1-.68-2.13l.76,0a2.68,2.68,0,0,0,.22.83,1.1,1.1,0,0,0,.76.63,35.11,35.11,0,0,0,3.84-.14c.32,0,.59-.48,1-.85h.45a3.09,3.09,0,0,1-.53,1.74,2.26,2.26,0,0,0-.18,1.54,14,14,0,0,1,.61,2.08q.12,12.48.08,25c0,1.25.4,1.5,1.55,1.45,4.25-.16,8.5-.26,12.75-.33,5.92-.09,11.84-.13,17.77-.17.7,0,1.22,0,1.24-1,.11-8.33.29-16.65.43-25,0-.27-.31-.55-.47-.82s-.69-.84-.6-1.1.68-.54,1.09-.7a3.3,3.3,0,0,1,1,0A3.48,3.48,0,0,1,256,85l1.14-.12a1.11,1.11,0,0,0,.59.61c.89.24,1.83.37,2.47.49.88-.08,1.45-.17,2-.19s.69-.26.73-.55l1.12,0c-.08.31-.17.6-.25.87-.22.83-.11.88.55,1.17s.83.87,1.23,1.33c-.48.36-1,.7-1.42,1.1-.28.25-.67.58-.7.89-.11,1.56-.1,3.12-.16,4.69q-.39,9.31-.8,18.63c0,.64,0,1.13.88,1,3.69-.31,7.39-.55,11.08-.89a1.26,1.26,0,0,0,.82-.9l.09-2,.87,0c0,.59-.05,1.18-.07,1.77s-.15,1.12.68,1c.61-.11,1.54.33,1.54-.94,0-1.82.13-3.64.17-5.45q.25-13.44.5-26.88H280c-.21,10.76-.36,21.53-.56,32.29,0,1,.55.74,1.07.71l17.4-1.31c8.05-.61,16.11-1.13,24.14-1.86,4.63-.42,9.23-1.16,13.84-1.77l7-.94c6.15-.85,12.31-1.65,18.45-2.55,8-1.17,15.95-2.47,23.95-3.6q8.61-1.22,17.26-2.12c5.45-.57,10.92-1.14,16.39-1.34,6.45-.22,12.93-.31,19.37,0,6.86.35,13.66,1.31,20,4.21,3.78,1.73,7.33,3.79,10,7a7.59,7.59,0,0,1,1.7,6.72c-1,4.78-3.88,8.58-6.81,12.29-4.65,5.89-9.61,11.49-16.13,15.46a1.55,1.55,0,0,0-.53,1,280.76,280.76,0,0,1-8.24,34.9,325.25,325.25,0,0,1-15.1,38.9,139.46,139.46,0,0,1-7.06,12.62c-2.08,3.53-4.28,7-6.5,10.44a27.57,27.57,0,0,1-2.27,2.58,1,1,0,0,0-.21.68,6.82,6.82,0,0,0,.44,1.68c1,2.2,0,3.78-1.52,5.2-.82.77-1.72,1.45-2.58,2.18a27,27,0,0,0-5.77,7.43,31.85,31.85,0,0,1-4.54,5.36c-1.5,1.62-3.21,3.06-4.64,4.74-3.83,4.49-3.61,9.59-1.41,14.56,1.58,3.55,4,6.75,5.84,10.19a13.22,13.22,0,0,1,.82,11.87c-1.31,3.18-4,4.71-7,5.67a29,29,0,0,1-4.14.88c-3.08.49-5.87-.57-8.61-1.76a6.09,6.09,0,0,1-3.46-4.12c-.43-1.5-.74-3-1.26-4.5A9.77,9.77,0,0,0,367.6,301a13.08,13.08,0,0,1-3.37-11.07c.3-2.57.45-5.15.74-7.71a14.69,14.69,0,0,0-2.16-9.8A62.12,62.12,0,0,0,353,259.91a2.53,2.53,0,0,0-1.64-.58,4.4,4.4,0,0,1-3.85-1.85,7.29,7.29,0,0,0-1.48-1.79,2.93,2.93,0,0,0-2.36-.68,45.85,45.85,0,0,1-7,.8c-10.92.48-21.85,1-32.78,1.29-12.54.33-25.07.36-37.61.67-6.24.16-12.47.65-18.71,1a1.14,1.14,0,0,0-.76.82c-.07,2.47-.05,4.94,0,7.42a1.06,1.06,0,0,0,.23.67c2,1.81,3.1,4.24,4.15,6.66a1.69,1.69,0,0,1-.63,2.2c-3.81,2.89-8.14,3.35-12.62,2.44a22.77,22.77,0,0,1-5.35-2.22,1.89,1.89,0,0,1-.84-2.8,22,22,0,0,1,2.23-3.71,6.09,6.09,0,0,0,1.44-4.19q0-3,0-6c0-.58-.12-.81-.79-.82-7.37-.12-14.74-.34-22.12-.42-5.91-.07-11.84-.05-17.76,0-8.38.11-16.76.35-25.15.45-6.25.07-12.5,0-18.75,0-7.26,0-14.52.12-21.78.2a1.67,1.67,0,0,0-.88.31c-.86.61-1.71,1.23-2.53,1.89-4.42,3.58-8.64,7.33-11.56,12.33a12.2,12.2,0,0,0-1.35,6.09,38.18,38.18,0,0,0,.18,5.56c.57,4.72-.79,8.89-3.25,12.84-1.53,2.46-2.94,5-4.29,7.57a2.7,2.7,0,0,0,0,1.92,3.46,3.46,0,0,1-1.21,4.17,10.62,10.62,0,0,1-3.19,1.6,34.89,34.89,0,0,1-13.08.81c-2.68-.4-4.21-1.83-4.49-4.4-.52-4.65-.62-9.32,1.28-13.74a16.82,16.82,0,0,1,2.1-3.42,21.48,21.48,0,0,0,3.93-11.82,56.91,56.91,0,0,0-.24-7.83,3.41,3.41,0,0,0-1.13-1.71,19.77,19.77,0,0,0-5.13-3.88c-2.4-1.24-3.27-3.65-3.66-6.15a7.91,7.91,0,0,0-3.78-5.81c-2.61-1.65-5.21-3.31-7.77-5-2.81-1.89-4.61-6.61-3.91-9.91a.81.81,0,0,0-.14-.66c-5.16-5.79-8.74-12.57-12.14-19.46a371.24,371.24,0,0,1-20-50.2c-3.17-9.86-5.91-19.85-8.77-29.81a4.71,4.71,0,0,0-2.71-3.23c-4.69-2.29-9.39-4.61-13.93-7.18a14.29,14.29,0,0,1-7.19-9.17A6.09,6.09,0,0,1,1,116.49c4.77-8,11.39-13.47,20.79-15.15,3-.55,6-1.32,9.07-1.9,5.75-1.09,11.57-.89,17.39-.77.47,0,.94,0,1.11,0a304.51,304.51,0,0,1,31.51,2.13c8.17,1.1,16.37,2,24.54,3.12,3.73.51,7.41,1.43,11.13,2,7.2,1.19,14.41,2.39,21.63,3.42,9.78,1.39,19.57,2.87,29.4,3.86,13.85,1.39,27.77,1.82,41.7,2.08,2.31,0,2.29.07,2.15-2.21-.37-6.23-.6-12.48-1.13-18.7-.72-8.42-.68-16.84-.56-25.26h1l.16,0a6.36,6.36,0,0,0,0,1.07,2.09,2.09,0,0,0,.37.64,2,2,0,0,0,.33-.62,2.82,2.82,0,0,0,0-.82l.63,0c0,.59.09,1.17.13,1.75h.31c0-.88,0-1.76,0-2.65ZM85.73,231.48a3.11,3.11,0,0,1,1.85,1.06,6.22,6.22,0,0,1,.86,1.57c-.14-1.24-.45-2.4-.62-3.58-.25-1.74.36-2.2,2-1.61.18-1.27-.7-3,1.12-3.57s1.68,1.43,2.08,2.18a29.91,29.91,0,0,1,2.19-2.32h0a8.76,8.76,0,0,1,1.24.91c-.07.06,0,0,0,0,.41-.73.86-1.44,1.21-2.19a4,4,0,0,0,.12-1.11,3.17,3.17,0,0,0-1.25-.07c-.29.1-.53.54-.65.87a8.5,8.5,0,0,0-.25,1.44c-.38-.38-.78-.75-1.16-1.14-.17-.19-.28-.43-.43-.62-.88-1.12-1.94-1.34-3-.39a28.4,28.4,0,0,0-2.32,2.68,3.89,3.89,0,0,1-.78.68c-.72.48-1.48.89-2.19,1.39-.15.11-.18.46-.18.71a6.91,6.91,0,0,1,0,1.51c-.14.52-.42,1.28-.81,1.41-1,.35-1.16,1.18-1.3,2a2.35,2.35,0,0,1-.6,1.46l1.51,1.08s.07,0,.07,0a16.18,16.18,0,0,1,0-2.51,2.38,2.38,0,0,1,0-.26C84.65,232.4,85.28,231.5,85.73,231.48Zm10.65,33.81c-.6-.07-1.06-.1-1.51-.18-1.62-.32-1.76-.17-1.37,1.5,0,0,0,.09,0,.11.2.09.49.32.58.25C94.83,266.48,95.53,265.93,96.38,265.29ZM211.12,74.05a2,2,0,0,0,.46.33c0-.92-.06-1.84-.1-2.76h-.41v2C211.07,73.78,211,74,211.12,74.05ZM91.69,227.14c0-.21-.25-.39-.38-.58-.09.22-.29.45-.25.65.27,1.54.59,3.07.9,4.6l.39-.07C92.13,230.2,91.93,228.67,91.69,227.14Zm120.55-139a4.44,4.44,0,0,0,0-.78c0-.3-.1-.94-.2-1.58,0-.12-.22-.21-.34-.31-.06.12-.18.24-.18.35,0,.79.09,1.58.17,2.36a3.63,3.63,0,0,0,.27.76C212.06,88.62,212.16,88.36,212.24,88.09ZM96.6,239.27a2.46,2.46,0,0,0-.84-1c-.06-.06-.56.18-.59.33a2.56,2.56,0,0,0-.06,1.54c.64,1.21,1.45,2.33,2.43,3.84C97.19,242.21,97,240.73,96.6,239.27Zm-12.29.82a4,4,0,0,0-4.15-2.53c2.73.8,4,5.43,2.8,7.68a2.74,2.74,0,0,1-1.22,1.16c-2.11,1-4.74-.62-5.12-3.15a17.06,17.06,0,0,1,0-2.58C75,243.56,76,246,79.24,247.94c2.38,1.42,5.85.12,5.79-2.95A18.44,18.44,0,0,0,84.31,240.09ZM107,273.25c.11.26.27.58.4.92.49,1.34,1,2.67,1.46,4l-1,.36-.09-.3a25.52,25.52,0,0,1-1.27-4.51,4,4,0,0,0-1.28-2.38c-1.5-1.69-2.88-3.49-4.21-5.32-.3-.41-.17-1.12-.29-1.68-.05-.22-.22-.56-.36-.57-1-.07-1.23-.81-1.36-1.58a4.37,4.37,0,0,1,2.09-4.67c.18-.13.36-.64.28-.72-2.13-2.19-2.91-2.13-4.75.33-.09.12-.17.25-.26.35a1.67,1.67,0,0,0-.28,2.09c.57,1.14,1.12,2.29,1.6,3.47a3,3,0,0,1-1.19,3.89,31.06,31.06,0,0,0-3.07,2c-1.09.81-1.8.83-2.8-.15-.82-.82-1.59-1.69-2.44-2.49a2.16,2.16,0,0,1-.58-.85,2.21,2.21,0,0,1,0-1.32c.3-1,1-2,.32-3.11-.09-.17.07-.58.23-.8,1.2-1.58.54-3.36.57-5.07,0-.09-.52-.31-.56-.26-1.39,1.67-3.12,3.3-2.41,5.75.47,1.65,1,3.29,1.61,4.9.36,1,.75,1.92,1.17,2.86s1.65,1.8,2.45,2.73a4.37,4.37,0,0,1,1,1.59,10.33,10.33,0,0,1,.14,2.17c.38,6.07-.14,12-3,17.5a31.48,31.48,0,0,0-1.4,3.69l0,.05s0,.05,0,.07A21.49,21.49,0,0,0,85,310.4a1.83,1.83,0,0,0,1.73,1.67,28.41,28.41,0,0,0,14.88-1.59c.61-.24.83-.38.17-1-1.72-1.49-3.07-3.23-2.92-5.69.06-1.1.17-2.19.27-3.47-1.65,1.28-3.34,2.41-4.8,3.77-1.06,1-.6,1.91.78,2.23.46.1.82.64,1.23,1a13,13,0,0,0-1.08.85c-.22.19-.56.54-.51.67.41,1,0,1.29-.89,1.39a19.24,19.24,0,0,1-2.82.28,5.09,5.09,0,0,1-2.18-.51c-1.28-.66-1.47-3.37-.39-4,2.27-1.41,4.56-2.79,6.78-4.27s2.14-1.5,1.87-3.31a9.36,9.36,0,0,1-1.37,1.24,3.58,3.58,0,0,1-1.23.27,3.77,3.77,0,0,1,.37-1.27c.84-1.07,1.76-2.07,2.63-3.07-1.41.21-2.75.39-4.07.63-.23,0-.43.33-.59.55-1,1.4-.79,3-.92,4.63,0,.43-.48.83-.74,1.24-.26-.42-.73-.84-.74-1.27a36.94,36.94,0,0,1,.22-3.71c-1.37,2-2.53,3.75-2.62,6.05,0,.33-.41.65-.63,1-.24-.31-.67-.61-.69-.94a13.57,13.57,0,0,1,.09-2.92c.23-1.55.6-3.07.91-4.61l0-.06,0-.06c.82-1,1.73-1.9,2.45-3a20.43,20.43,0,0,0,2.21-3.91,21.45,21.45,0,0,0,.66-2.82,41,41,0,0,0,.58-6.59c0-.28.12-.55.13-.83,0-.9.08-1.81,0-2.71s-.29-1.63-.42-2.45c0-.08.06-.2.13-.28a2,2,0,0,1,2-.88,11.26,11.26,0,0,0,3-.24c.2,0,.33-.5.49-.75a3.78,3.78,0,0,1,.74-1.06c.17-.13.72,0,.91.22a7.83,7.83,0,0,1,2.32,5.7c-.07,2.68-.3,5.35-.52,8a38.05,38.05,0,0,1-.59,5,8.41,8.41,0,0,1-1.49,3.62,6,6,0,0,0-1.15,2.06c-.15.42,0,.94-.08,1.38-.29,1.32-.32,1.31,1,2.23,1.18-2.41,2.48-4.71,3.47-7.15a30.87,30.87,0,0,0,2.25-10.45l1.17.07c-.11,2.05-.24,4.11-.32,6.16,0,.23,0,.46,0,.69a2.35,2.35,0,0,0,.75,1.7,22.11,22.11,0,0,0,3,1.69c0-.77.09-1.52.15-2.27s-.21-.62-.77-.65a11.15,11.15,0,0,1-2.48-.63c-.14-.05-.21-.34-.31-.52a2.09,2.09,0,0,1,.61,0c.56.12,1.11.29,1.67.43.92.22,1.22,0,1.17-1.08a38.21,38.21,0,0,1,.09-6.33,1.1,1.1,0,0,1,0-.18c.28-2.14,1-4.21,1.48-6.33.05-.21-.16-.68-.26-.68C110.23,273.23,108.65,273.25,107,273.25ZM211.43,77.17a1.8,1.8,0,0,0,.28,0c0-.58-.09-1.17-.13-1.75a2.31,2.31,0,0,0-.35-.17C211.3,76,211.36,76.59,211.43,77.17ZM105,269.64c.26-1.91,1.56-3,3-3.82A13.91,13.91,0,0,1,115.2,264c1.76,0,2.31.4,2.9,2.22a5.16,5.16,0,0,0,.86-1c.11-.21.06-.74-.08-.8a11.59,11.59,0,0,0-2.67-1.08c-3.94-.79-7.73-.61-11.15,1.84C103.41,266.32,103.31,268.18,105,269.64Zm-4.58-7.95a2.48,2.48,0,0,0,.37-.17l4.53-3.14-1-.28a3.57,3.57,0,0,0-4,3A2.11,2.11,0,0,0,100.42,261.69Zm112.67-176c-.09.17-.26.35-.25.51.06.89.17,1.78.26,2.66h.24c0-.92,0-1.84,0-2.77C213.33,85.92,213.18,85.79,213.09,85.65Zm.63,26.23.77-1.08-.83-1.28c-.14.34-.42.7-.4,1A5.68,5.68,0,0,0,213.72,111.88ZM95.74,222a2.26,2.26,0,0,1,3.3.78,2,2,0,0,0,.25.33l.74.73-.4.4c-.26.09-.61.11-.75.29a11.37,11.37,0,0,1-1.66,2.26c-1.4,1-.78,2.49-1.09,3.74.31-.25.48-.59.74-.83a11.22,11.22,0,0,1,1.13-.77,4.37,4.37,0,0,1-.18,1.33c-.45,1-1,1.85-1.5,2.79a.75.75,0,0,0,.22.6c2,0,2.65,1.4,2.91,3,.66,3.92.3,7.67-2.14,11-1.23,1.7-1.2,1.72.15,3.35a8.13,8.13,0,0,1,1,1.19c1.17,2.28,3.62,3.1,5.56,4.11,3.62,1.88,7.77,1.75,11.69.54a34,34,0,0,0,5.33-2.59c.64-.33,1.24-.73,1.86-1.1q-.5.9-1,1.8a3.41,3.41,0,0,0-.19.62c.27,0,.72.14.79,0,.77-1.31,1.67-.53,2.55-.23a1.19,1.19,0,0,0,.64-.07c.29-.09.63-.39.85-.31a7.41,7.41,0,0,1,2.18,1,1.33,1.33,0,0,0,2.21-.34c-2.32-.63-3.33-1.54-3.4-3.11a6.2,6.2,0,0,1,1.26.64c1.8,1.56,3.48.84,5.05-.29a2,2,0,0,0,.72-1.68c-.09-.38-1-.78-1.54-.81-1.52-.08-3,0-4.57.07-1.35,0-2.66.15-3.85-.9a25.65,25.65,0,0,0-3.43-2.19c-1.63-1-3.24-2.1-4.93-3.2a12.7,12.7,0,0,1-.32,1.43c-.1.31-.31.75-.55.8s-.83-.24-.85-.44a5.14,5.14,0,0,1,0-2.14c.7-2.23.45-4.05-1.5-5.32a16.08,16.08,0,0,0-4.76-1.65c-.82-.2-1-.44-1-1.28a1.83,1.83,0,0,0-.8-1.42,6.39,6.39,0,0,0-2.12-.5,5.83,5.83,0,0,0-1.18,0,3.43,3.43,0,0,1,.38-1.17,2.62,2.62,0,0,0,.34-2.79l1.14-.17a2.41,2.41,0,0,0,2.16,1.71,2.58,2.58,0,0,1,2.36,2.58c0,.7.34.95,1.08,1,3.3.3,5.6,2.71,6.49,5.87a5.07,5.07,0,0,0,3.3,3.71,14.75,14.75,0,0,1,3.07,1.76c1.29.8,1.93,2.5,3.71,2.63,1.2.08,2.39.21,3.6.32a.86.86,0,0,1,0-.16h2.4c1.92,0,3.18,1.29,2.77,3.14a12.53,12.53,0,0,1-1.52,3,6.72,6.72,0,0,1-.5.69,3.62,3.62,0,0,0,.89.22c6.06.15,12.12.33,18.18.41,4.94.07,9.89.09,14.83,0,9.26-.15,18.53-.41,27.79-.58s18.39-.31,27.58-.43c3.45,0,6.9.09,10.35,0,6.1-.19,12.2-.64,18.29-.71,9.6-.11,19.19,0,28.79,0,4.11,0,8.22.14,12.32,0,7.72-.32,15.44-.82,23.17-1.23,5.37-.29,10.74-.52,16.1-.85,3.55-.21,7.09-.55,10.63-.87a2.08,2.08,0,0,0,1.34-.48,8.27,8.27,0,0,1,4.8-2.81c3.11-.72,6.23-1.38,9.32-2.16a8.78,8.78,0,0,0,5.9-4.67,14.45,14.45,0,0,1,9.53-7.84,7.35,7.35,0,0,0,4.56-3.15c1.53-2.47,3-4.95,4.64-7.38a6.3,6.3,0,0,1,10.58-.26,47.32,47.32,0,0,1,3.14,5.09,9.47,9.47,0,0,0,3.66,3.92,6.32,6.32,0,0,1,2.89,3.81,25.11,25.11,0,0,0,1.74,3.94c.6,1.12.76,1.06,1.42,0,2-3.32,4.15-6.57,6.05-9.95,2.48-4.43,5-8.86,7.11-13.49,3.11-7,5.85-14.09,8.69-21.18,1.05-2.63,2-5.3,2.9-8,2.56-7.81,5.23-15.58,7.51-23.47,1.58-5.51,2.59-11.18,3.85-16.79.07-.3.1-.61.16-.92a5.57,5.57,0,0,0-.92.2,146.37,146.37,0,0,1-17.23,5.38,352.7,352.7,0,0,1-41.79,7.11q-25.38,2.64-50.82,4.56c-12.76,1-25.54,1.58-38.32,2.21-6.46.32-12.93.42-19.41.45-7.33,0-14.67-.07-22-.17-14.83-.2-29.67-.36-44.5-.68-8.64-.19-17.29-.57-25.93-1-9.18-.46-18.35-1.06-27.53-1.63-4.83-.3-9.66-.56-14.46-1q-12.42-1.22-24.8-2.68c-7.36-.88-14.71-1.8-22-3-8.63-1.38-17.25-2.88-25.82-4.63-7.9-1.6-15.78-3.41-23.57-5.49-5.25-1.4-10.33-3.43-15.49-5.17a5.21,5.21,0,0,0-.79-.13,4.42,4.42,0,0,0,.1.73c.54,2,1.07,3.92,1.66,5.87,1.87,6.07,3.66,12.16,5.65,18.19,2.34,7.07,4.76,14.12,7.34,21.1,2.22,6,4.83,11.85,7,17.85,3.63,9.8,7.56,19.44,13.24,28.27a14.77,14.77,0,0,0,11.35,6.81c1,.11,1.41-.14,1.61-1.17.76-3.84,1.51-4.94,5.51-4.2.94.18,1.25-.19,1.46-1.07a3.79,3.79,0,0,1,1.11-2.12,1.7,1.7,0,0,0,.84-1.76,2.82,2.82,0,0,1,1.56-3,9.35,9.35,0,0,0,2-1.53c.89-.84,1.62-1.87,2.57-2.63a3.14,3.14,0,0,1,4.43.26A1,1,0,0,0,95.74,222ZM212.65,78.19c0,2.08.1,4.16.17,6.24,0,.12.18.23.28.35a1.43,1.43,0,0,0,.21-.56c-.05-1.58-.13-3.17-.21-4.76,0-.47-.08-.94-.14-1.51C212.75,78.11,212.65,78.15,212.65,78.19ZM70.75,242.85a26.59,26.59,0,0,1-2.83-.29c-.82-.2-1.64.22-1.47,1.05.46,2.26,1.06,4.51,3.13,5.9s4.14,2.66,6.39,4.1a47.8,47.8,0,0,1-3-5.11,48.47,48.47,0,0,1-1.63-5.38C71.26,243,70.94,242.87,70.75,242.85Zm97.44-81.76c6.7.47,13.42.62,20.14,1,3.77.19,7.53.66,11.3.67,19.22.07,42.84.44,62.05.44l.39,0c1.95-.09,23.92.28,40.75-.88a213.25,213.25,0,0,0,26-1.53c16-1.92,32.07-3.58,48.11-5.4,9.52-1.07,19.09-1.89,28.54-3.46,8.14-1.35,16.18-3.47,24.2-5.49,4.53-1.14,8.95-2.73,13.4-4.19a11,11,0,0,0,3.31-1.59,75.76,75.76,0,0,0,7.25-6.23c3.3-3.31,6.48-6.77,9.47-10.36a13,13,0,0,0,3.22-6.69c.35-2.76-.24-5.48-2.43-7.11a30.51,30.51,0,0,0-4.39-2.69,38.68,38.68,0,0,0-3.62-1.6c-7.69-3-15.83-3.36-23.94-3.71-4.13-.18-8.28,0-12.42.15-6.35.18-12.71.17-19,1.21-7.52,1.24-15.07,2.33-22.62,3.4q-13,1.84-26.11,3.55c-7.23,1-14.47,1.92-21.71,2.76-4.08.47-8.19.62-12.27,1-4.84.48-9.66,1.15-14.49,1.63-3.29.33-6.6.47-9.89.71-6.27.46-12.53,1-18.8,1.39-5.63.34-11.26.5-16.88.7-11.62.4-23.23,1-34.85,1.1-8.92.11-17.85-.31-26.78-.5-2,0-4-.14-5.94-.31-6.94-.58-13.87-1.14-20.8-1.82-6.07-.6-12.14-1.22-18.17-2.08-7.21-1-14.38-2.4-21.59-3.54-4.73-.75-9.49-1.34-14.23-2q-9.44-1.38-18.86-2.83c-4-.62-8-1.4-12-1.9-4.65-.58-9.32-.93-14-1.39a184.78,184.78,0,0,0-25.22-1,156.48,156.48,0,0,0-19.21,1.48,33.23,33.23,0,0,0-9.31,2.86,26.74,26.74,0,0,0-9.74,8c-3.38,4.47-2.85,8,.82,11.54,5.53,5.34,12.22,8.85,19.32,11.53,12.54,4.75,25.55,7.78,38.7,10.26,7.47,1.41,15,2.64,22.48,4,3.14.57,6.22,1.39,9.36,1.88,4.69.74,9.4,1.33,14.11,1.91,5.28.64,10.58,1.28,15.88,1.8,4.55.45,9.12.71,13.68,1.09C150.3,159.55,159.24,160.45,168.19,161.09ZM83.86,237a3.24,3.24,0,0,0-3.49-.87c2.2.48,4,1.35,5,3.33a10.5,10.5,0,0,1,.85,6.39,4.64,4.64,0,0,1-5.26,4c-3.27-.46-6.2-2.73-6.45-6.45,0-.22.06-.49,0-.64s-.4-.25-.61-.37c-.09.18-.3.39-.26.53,1.12,3.66,2.68,7,6.59,8.53,3,1.21,5.67,0,6.41-3.14a11.71,11.71,0,0,0,.23-1.18C87.27,243.34,86.6,239.88,83.86,237Zm10.82,19.61c.87-.74,1.79-1.5,2.67-2.31a.86.86,0,0,0,.19-.79,20.84,20.84,0,0,0-2.09-2.76c-.78-.82-1.58-1.5-.4-2.58a.33.33,0,0,0,0-.31c-.52-1.46-1-2.92-1.58-4.38l-.42.14A32.89,32.89,0,0,0,94.68,256.65Z" transform="translate(0 -2.75)"/><path d="M81.33,245.16v0s0,0,0,0h0Z" transform="translate(0 -2.75)"/><path class="cls-3" d="M198,154.37c-7.51-.44-15-1-22.51-1.59-5.43-.42-10.87-.83-16.28-1.49q-16.32-2-32.6-4.27c-18.5-2.6-36.7-6.66-54.86-10.92-8.41-2-16.76-4.19-25.14-6.3-3.09-.77-6.26-1.33-9.28-2.35-7.09-2.4-13.89-5.41-19.55-10.5a15.74,15.74,0,0,1-2.43-2.78c-1.7-2.46-1.28-4.93,1.42-6.22l.47-.21a46.15,46.15,0,0,1,7.34-2.35,37.13,37.13,0,0,1,5.2-.65c0,.17.05.33.08.49-1.47.36-2.93.77-4.41,1.06a15.3,15.3,0,0,0-8.21,4.39,2.27,2.27,0,0,0-.29,2,10.55,10.55,0,0,0,2.28,3.13,33.36,33.36,0,0,0,10,6,139.09,139.09,0,0,0,14.75,5.25c10.48,2.87,21,5.48,31.63,8q13,3,26.11,5.55c7.27,1.39,14.6,2.54,21.94,3.52,8.68,1.16,17.38,2.12,26.1,3,9,.9,17.94,1.6,26.91,2.34,3.69.31,7.38.6,11.08.75q20.44.85,40.91,1.6c7.92.29,15.83.61,23.76.69,9.74.11,19.48.06,29.22-.07,10.9-.13,21.81-.25,32.7-.72,5.13-.23,10.34-.89,15.47-1.46,3.93-.44,7.76-1,11.7-1.44,7.58-.78,15.17-1.57,22.74-2.48a337.94,337.94,0,0,0,69.16-15.72c6.09-2.1,12-4.8,17.93-7.35a18.18,18.18,0,0,0,7.49-6.34,5,5,0,0,0,1.11-4,3.22,3.22,0,0,0-1.13-1.74c-2.67-2.06-5.86-3-9-4-5.51-1.72-11.25-2.15-16.94-2.85-2.18-.26-4.37-.45-6.56-.67a75.41,75.41,0,0,1,16.52.39,67.94,67.94,0,0,1,14.44,3.5,18.78,18.78,0,0,1,1.84.82,30.31,30.31,0,0,1,3.83,2.33c1.69,1.18,1.88,3.29,1.05,5.2-1.45,3.35-4.13,5.52-7.07,7.36A74.48,74.48,0,0,1,440,131.43c-4.28,1.38-8.47,3.06-12.79,4.29-5.75,1.64-11.6,2.94-17.4,4.42-22.69,5.81-45.78,9.32-69.05,11.77-3.68.4-7.34,1-11,1.41-8.92.93-17.82,2-26.82,2-6.65,0-13.28.62-19.93.75-7.13.14-14.26.08-21.38.05-11.78-.06-23.57,0-35.34-.3C216.85,155.54,207.42,154.92,198,154.37Z" transform="translate(0 -2.75)"/><g class="cls-5"><circle class="cls-6" cx="189.89" cy="153.33" r="33.38"/><circle class="cls-7" cx="191.74" cy="151.46" r="28.16"/><ellipse class="cls-8" cx="204.29" cy="138.62" rx="5.73" ry="8.26" transform="matrix(0.86, -0.51, 0.51, 0.86, -42.04, 119.44)"/><circle class="cls-6" cx="118.27" cy="62.55" r="12.07"/><circle class="cls-7" cx="118.94" cy="61.88" r="10.18"/><ellipse class="cls-8" cx="123.48" cy="58.99" rx="2.07" ry="2.99" transform="translate(-12.89 67.71) rotate(-30.34)"/><ellipse class="cls-6" cx="432.93" cy="121.47" rx="18.02" ry="16.82"/><ellipse class="cls-7" cx="433.92" cy="120.53" rx="15.2" ry="14.18"/><ellipse class="cls-8" cx="440.7" cy="115.43" rx="3.03" ry="4.25" transform="translate(15.43 276.03) rotate(-35.69)"/><circle class="cls-6" cx="252.44" cy="135.87" r="9.91"/><circle class="cls-7" cx="252.99" cy="135.32" r="8.36"/><ellipse class="cls-8" cx="256.71" cy="133.44" rx="1.7" ry="2.45" transform="translate(-32.24 145.21) rotate(-30.34)"/><circle class="cls-6" cx="161.64" cy="137.78" r="21.11"/><circle class="cls-7" cx="162.8" cy="136.6" r="17.8"/><ellipse class="cls-8" cx="170.74" cy="129.49" rx="3.62" ry="5.22" transform="translate(-42.03 101.24) rotate(-30.34)"/><circle class="cls-6" cx="208.49" cy="167.32" r="30.87"/><circle class="cls-7" cx="210.2" cy="165.59" r="26.04"/><ellipse class="cls-8" cx="221.8" cy="153.93" rx="5.3" ry="7.64" transform="translate(-47.38 130.38) rotate(-30.34)"/><ellipse class="cls-6" cx="128.39" cy="129.92" rx="24.95" ry="26.07"/><ellipse class="cls-7" cx="129.76" cy="128.46" rx="21.05" ry="21.99"/><ellipse class="cls-8" cx="139.15" cy="119.04" rx="4.33" ry="6.39" transform="translate(-39.17 74.63) rotate(-27.4)"/><circle class="cls-6" cx="273.79" cy="152.97" r="21.11"/><circle class="cls-7" cx="274.96" cy="151.79" r="17.8"/><ellipse class="cls-8" cx="282.89" cy="144.69" rx="3.62" ry="5.22" transform="translate(-34.34 159.98) rotate(-30.34)"/><circle class="cls-6" cx="408.54" cy="83.12" r="33.38"/><circle class="cls-7" cx="410.39" cy="81.26" r="28.16"/><ellipse class="cls-8" cx="422.94" cy="68.42" rx="5.73" ry="8.26" transform="matrix(0.86, -0.51, 0.51, 0.86, 23.37, 220.28)"/><circle class="cls-6" cx="62.56" cy="79.49" r="33.38"/><circle class="cls-7" cx="64.4" cy="77.63" r="28.16"/><ellipse class="cls-8" cx="76.96" cy="64.79" rx="5.73" ry="8.26" transform="translate(-22.19 45) rotate(-30.34)"/><circle class="cls-6" cx="62.21" cy="6.39" r="6.39"/><circle class="cls-7" cx="62.56" cy="6.04" r="5.39"/><ellipse class="cls-8" cx="64.97" cy="5.8" rx="1.1" ry="1.58" transform="translate(5.97 30.86) rotate(-30.34)"/><circle class="cls-6" cx="367.49" cy="40.83" r="6.39"/><circle class="cls-7" cx="367.84" cy="40.47" r="5.39"/><ellipse class="cls-8" cx="370.24" cy="40.23" rx="1.1" ry="1.58" transform="translate(30.39 189.8) rotate(-30.34)"/><circle class="cls-6" cx="303.94" cy="145.78" r="21.54"/><circle class="cls-7" cx="305.13" cy="144.58" r="18.16"/><ellipse class="cls-8" cx="313.23" cy="137.28" rx="3.7" ry="5.33" transform="translate(-26.44 174.29) rotate(-30.34)"/><ellipse class="cls-6" cx="278.08" cy="120.28" rx="16.09" ry="16.82"/><ellipse class="cls-7" cx="278.97" cy="119.34" rx="13.57" ry="14.18"/><ellipse class="cls-8" cx="285.01" cy="114.24" rx="2.79" ry="4.12" transform="translate(-20.61 141.09) rotate(-27.37)"/><circle class="cls-6" cx="73.22" cy="128.46" r="14.95"/><circle class="cls-7" cx="74.05" cy="127.63" r="12.61"/><ellipse class="cls-8" cx="79.67" cy="123.4" rx="2.57" ry="3.7" transform="matrix(0.86, -0.51, 0.51, 0.86, -51.42, 54.4)"/><circle class="cls-6" cx="231.25" cy="150.45" r="12.07"/><circle class="cls-7" cx="231.91" cy="149.78" r="10.18"/><ellipse class="cls-8" cx="236.45" cy="146.89" rx="2.07" ry="2.99" transform="translate(-41.82 136.82) rotate(-30.34)"/><circle class="cls-6" cx="93.65" cy="131.13" r="12.07"/><circle class="cls-7" cx="94.32" cy="130.46" r="10.18"/><ellipse class="cls-8" cx="98.85" cy="127.57" rx="2.07" ry="2.99" transform="translate(-50.91 64.66) rotate(-30.34)"/><circle class="cls-6" cx="37.85" cy="25.63" r="7.78"/><circle class="cls-7" cx="38.28" cy="25.19" r="6.57"/><ellipse class="cls-8" cx="41.2" cy="24.31" rx="1.34" ry="1.93" transform="translate(-6.63 21.4) rotate(-30.34)"/><circle class="cls-6" cx="40.41" cy="120.7" r="21.54"/><circle class="cls-7" cx="41.6" cy="119.49" r="18.16"/><ellipse class="cls-8" cx="49.7" cy="112.19" rx="3.7" ry="5.33" transform="translate(-49.86 37.72) rotate(-30.34)"/><ellipse class="cls-6" cx="342.56" cy="121.66" rx="32.3" ry="33.38" transform="translate(160.14 433.34) rotate(-79.43)"/><ellipse class="cls-7" cx="344.72" cy="120.25" rx="27.24" ry="28.16" transform="translate(163.29 434.31) rotate(-79.43)"/><ellipse class="cls-8" cx="362.27" cy="111.17" rx="5.59" ry="8.2" transform="translate(49.18 321.9) rotate(-51.35)"/><ellipse class="cls-6" cx="388.68" cy="122.43" rx="20.83" ry="21.54" transform="translate(225.41 493.04) rotate(-83.86)"/><ellipse class="cls-7" cx="390" cy="121.41" rx="17.57" ry="18.16" transform="translate(227.59 493.45) rotate(-83.86)"/><ellipse class="cls-8" cx="400.83" cy="114.7" rx="3.61" ry="5.29" transform="translate(80.57 378.88) rotate(-55.78)"/></g><path class="cls-9" d="M364.07,146.19" transform="translate(0 -2.75)"/></svg>