<svg id="Layer_1" data-name="Layer 1" xmlns="http://www.w3.org/2000/svg" viewBox="0 0 56.97 56.97"><defs><style>.cls-1{fill:#141f44;}.cls-2,.cls-3{fill:#fff;}.cls-3{stroke:#141f44;stroke-miterlimit:10;stroke-width:0.5px;}</style></defs><title>brush_S</title><circle class="cls-1" cx="28.48" cy="28.48" r="28.48"/><circle class="cls-2" cx="28.48" cy="28.6" r="26.21"/><path class="cls-1" d="M15.09,37.2l.31-.37-4.51-2.32-.39-1.68,6.62-8,1.36.84L29.88,11.8l.69,2.43L20.42,27.09l.83.51L32.51,15.19a3.89,3.89,0,0,0-.67-3c-1-1.62-1.9-1.48-1.9-1.48L18.35,25,17,24.2,9.79,32.93l.44,1.8Z" transform="translate(-0.91 -0.91)"/><polygon class="cls-2" points="14.81 36.08 16.42 33.62 14.49 35.92 14.81 36.08"/><polygon class="cls-2" points="14.49 35.92 16.42 33.62 20.4 27.57 19.85 27.23 20.34 26.7 19.51 26.18 29.66 13.32 28.97 10.89 17.57 24.74 16.21 23.9 9.59 31.92 9.98 33.6 14.49 35.92"/><polygon class="cls-1" points="16.42 33.62 21.14 28.02 20.4 27.57 16.42 33.62"/><polygon class="cls-2" points="19.85 27.23 20.4 27.57 20.79 26.98 20.34 26.7 19.85 27.23"/><polygon class="cls-3" points="21.24 29 20.75 27.98 30.69 14.67 29.37 11.45 17.94 26.25 16.59 25.41 10.18 33.14 15.12 37.16 21.24 29"/><polygon class="cls-1" points="25.58 30.62 21.01 27.61 31.27 14.33 30.05 12.12 18.83 26.51 17.48 25.66 10.73 33.82 18.08 38.52 25.58 30.62"/><polygon class="cls-1" points="19.96 28.43 25.32 31.02 23.39 32.03 24.39 32.83 23.26 33.2 23.51 33.78 22.73 33.47 22.73 34.69 22.24 34.57 22.5 35.9 20.88 36.14 21.3 37.33 19.95 36.73 20.35 37.63 19.42 38.22 19.79 39.04 17.26 38.45 14.79 36.05 19.96 28.43"/><polygon class="cls-3" points="17.12 27.39 22.05 30.46 20.54 30.96 21.54 31.75 20.41 32.13 20.66 32.7 19.22 32.14 19.88 33.61 18.71 33.43 19.65 34.81 17.82 34.84 18.44 36.23 17.1 35.64 17.5 36.54 16.46 36.88 16.93 37.94 11.97 34.31 17.12 27.39"/><path class="cls-1" d="M30.17,38.39s-1.75-6.63.31-7.53c.21-.09,3.41,5.23,4.35,5.15C36.14,35.91,32.25,40.9,30.17,38.39Z" transform="translate(-0.91 -0.91)"/><path class="cls-1" d="M19,43.23s-1.75-6.63.31-7.53c.21-.09,4.24,5.54,5.19,5.47C25.8,41.07,21.09,45.74,19,43.23Z" transform="translate(-0.91 -0.91)"/><path class="cls-1" d="M24.55,41.36S22.84,34.1,24,33.49c.75-.38,5.57,3.74,5.51,5A3.71,3.71,0,0,1,24.55,41.36Z" transform="translate(-0.91 -0.91)"/><path class="cls-1" d="M27.3,46.94c-8.88,3.85-10-3.45-10.39-4.19s.41.73,3.85,0c1.7-.36,1.85-.51,2.69-2,0,0-.63,1.15,3.35-.17A28.75,28.75,0,0,0,30,37.38c.95-.48,1.35,1.6,4,.17.43-.23,2.08-2.78,2.51-3,1.34-.71,2.34-.17,3.52-.83,1.72-1,1.78-2.41,2.35-2.85,2.11-1.64,5-2.6,6-.84,1.29,2.16.77,5.77-5.36,8.88S33.76,44.14,27.3,46.94Z" transform="translate(-0.91 -0.91)"/><path class="cls-2" d="M19.9,43.58s-1.72-5.08-.18-5.88c.16-.08,3.36,4,4.09,3.89C24.82,41.45,21.66,45.43,19.9,43.58Z" transform="translate(-0.91 -0.91)"/><path class="cls-2" d="M25.18,41.8s-1.43-6.12-.43-6.63c.63-.32,4.7,3.15,4.64,4.19A3.12,3.12,0,0,1,25.18,41.8Z" transform="translate(-0.91 -0.91)"/><path class="cls-2" d="M31.07,38.74s-1.73-5.08-.18-5.88c.16-.08,2.93,3.91,3.66,3.8C35.56,36.52,32.82,40.59,31.07,38.74Z" transform="translate(-0.91 -0.91)"/><path class="cls-1" d="M45.88,29.32S40.09,24.63,39,25.44c-.67.51.94,6.64,2.08,7.13A3.71,3.71,0,0,0,45.88,29.32Z" transform="translate(-0.91 -0.91)"/><path class="cls-2" d="M46,30.08s-4.88-3.95-5.78-3.27c-.56.43.79,5.6,1.75,6A3.13,3.13,0,0,0,46,30.08Z" transform="translate(-0.91 -0.91)"/><path class="cls-1" d="M44,33s-10.94-9.72-14-7c-.3.28,5.7,9.83,4.85,11.34C33.68,39.34,46.35,38.41,44,33Z" transform="translate(-0.91 -0.91)"/><path class="cls-2" d="M42.09,33.21s-6.76-6.92-9.23-5c-.25.19,4,8,3.23,9.11C35.09,38.87,43.68,37.6,42.09,33.21Z" transform="translate(-0.91 -0.91)"/><path class="cls-1" d="M15.1,36.8a66.88,66.88,0,0,0,7.82-2.29,61.79,61.79,0,0,0,7.5-3.22,73.55,73.55,0,0,0,7.08-4,31.64,31.64,0,0,0,6-5.44l.17.13a22.63,22.63,0,0,1-5.71,6,59.51,59.51,0,0,1-7.17,4.14c-1.22.62-2.47,1.2-3.72,1.79a34.75,34.75,0,0,1-3.83,1.6A29.84,29.84,0,0,1,15.11,37Z" transform="translate(-0.91 -0.91)"/></svg>