<svg id="Layer_1" data-name="Layer 1" xmlns="http://www.w3.org/2000/svg" viewBox="0 0 56.97 56.97"><defs><style>.cls-1{fill:#141f44;}.cls-2{fill:#fff;}</style></defs><title>cut_S</title><circle class="cls-1" cx="28.48" cy="28.48" r="28.48"/><circle class="cls-2" cx="28.48" cy="28.6" r="26.21"/><path class="cls-1" d="M39.81,8a.18.18,0,0,1,.07.05.18.18,0,0,1,.08.13.39.39,0,0,1,0,.15,1.54,1.54,0,0,1,0,.3h0L38.7,11.7c-.41,1-.81,2.05-1.22,3.08l-2.4,6.16c-.8,2-1.62,4.1-2.43,6.15L32,28.63l-.63,1.53c-.42,1-.85,2-1.3,3l0,.06,0,0h0a1.92,1.92,0,0,1-.92.38,3.91,3.91,0,0,1-.48.05l-.47,0a.93.93,0,0,0-.44.06,1.39,1.39,0,0,0-.38.25,3.79,3.79,0,0,0-.6.67h0l-.54.67-.57.66-1.16,1.3-1.15,1.3-.57.65-.06.08-.07.08a1.63,1.63,0,0,0-.11.17,2.58,2.58,0,0,0-.19.37c-.06.12-.1.25-.15.38l-.12.41,0,.11v.06h0v0l0,.2c0,.13,0,.27,0,.42-.05.56-.09,1.13-.12,1.7l0,.42v.21a.74.74,0,0,0,0,.21,2.83,2.83,0,0,0,0,.41c0,.14,0,.28.05.42s0,.08,0,.12v.11h0a.3.3,0,0,1-.11.19.46.46,0,0,1-.13.08.86.86,0,0,1-.25.07l-.25,0h-.06l-.06,0a.83.83,0,0,0-.16.12c-.11.09-.22.18-.35.27l-.1.07-.09.06-.2.12-.19.1-.21.1a2.65,2.65,0,0,1-.42.18l-.44.13a3.55,3.55,0,0,1-.92.09,3.18,3.18,0,0,1-.91-.17,2.47,2.47,0,0,1-.42-.17l-.11,0-.1-.07a1.39,1.39,0,0,1-.19-.15,2.13,2.13,0,0,1-.5-.77,3.24,3.24,0,0,1-.2-.87,3.17,3.17,0,0,1,0-.44,3.25,3.25,0,0,1,0-.44,6.21,6.21,0,0,1,.16-.86l0-.11a.36.36,0,0,0,0-.11,2,2,0,0,1,.1-.21,3.11,3.11,0,0,1,.25-.38,3.47,3.47,0,0,1,.65-.62,6,6,0,0,1,.74-.5c.26-.15.52-.29.79-.42a8.24,8.24,0,0,1,.81-.35c.28-.11.56-.2.84-.29l.42-.13.22-.07.1,0,.06,0h.05l.1-.07.11-.08a2.09,2.09,0,0,0,.22-.2l.39-.43c.25-.3.49-.62.72-.93.47-.64.91-1.29,1.33-2,.22-.32.43-.66.63-1,.11-.17.21-.33.3-.5a.83.83,0,0,0,.07-.13l.08-.13.16-.26c.21-.33.41-.66.6-1s.35-.69.51-1,.32-.71.48-1.07.31-.72.48-1.07c.33-.72.67-1.42,1-2.13s.71-1.4,1.07-2.1.73-1.39,1.11-2.08.75-1.38,1.13-2.06l1.17-2.05c.39-.68.79-1.36,1.2-2l.61-1,.62-1q1.26-2,2.55-4c.43-.66.87-1.31,1.31-2,.23-.32.45-.64.69-1l.19-.23L39.72,8h.09Zm-20,37a2.39,2.39,0,0,0,.43-.74c0-.15.09-.29.13-.44a3.63,3.63,0,0,0,.1-.45,4.7,4.7,0,0,0,.1-.91,2.18,2.18,0,0,0,0-.44,1.48,1.48,0,0,0-.12-.41,1.08,1.08,0,0,0-.24-.32.66.66,0,0,0-.17-.12l-.1,0-.11,0a2.4,2.4,0,0,0-.93-.06,3,3,0,0,0-.93.26,3.37,3.37,0,0,0-.83.51,3.12,3.12,0,0,0-.64.72,3,3,0,0,0-.33.9,2.65,2.65,0,0,0-.07.48,1.87,1.87,0,0,0,0,.47,1.43,1.43,0,0,0,.41.81,1.94,1.94,0,0,0,.82.42,2.64,2.64,0,0,0,1.8-.1A2.08,2.08,0,0,0,19.83,45Z" transform="translate(-0.91 -0.91)"/><polygon class="cls-1" points="19.86 38.66 19.86 38.66 19.86 38.66 19.86 38.66"/><path class="cls-1" d="M31.1,34.86h0l0,0a3.88,3.88,0,0,1-.31-.26c-.21-.17-.43-.33-.65-.48l-.33-.21a2.6,2.6,0,0,0-.34-.16l-.18-.06-.1,0h-.06l-.07,0,0,0,0,0a.18.18,0,0,1-.07,0l-.06-.05,0,0a1.13,1.13,0,0,1-.13-.2c-.15-.25-.26-.49-.38-.73-.48-1-.91-2-1.33-3l-.32-.75L26.3,28l-.6-1.5c-.79-2-1.53-4-2.25-6.06S22,16.37,21.36,14.32l-1-3.07-.49-1.54c-.16-.51-.32-1-.46-1.55a.78.78,0,0,1,0-.22.57.57,0,0,1,0-.12.23.23,0,0,1,.08-.13.15.15,0,0,1,.09,0,.14.14,0,0,1,.09,0,.34.34,0,0,1,.12.06.64.64,0,0,1,.16.17l.46.68.86,1.38c.56.93,1.11,1.86,1.64,2.8q1.62,2.82,3.08,5.71t2.85,5.82c.92,1.95,1.82,3.92,2.69,5.89.22.5.43,1,.64,1.49.1.25.21.5.3.76l0,.1a.3.3,0,0,1,0,.1l0,.09a.32.32,0,0,0,0,.09c0,.13.09.25.14.37q.31.75.66,1.47c.23.49.46,1,.7,1.46s.48,1,.73,1.44l.38.72.2.35.11.17a.76.76,0,0,0,.11.16c.16.22.31.45.46.67l.47.67c.16.21.32.43.5.63a3.7,3.7,0,0,0,.28.28,1.39,1.39,0,0,0,.31.23l.37.17.38.15.77.31c.26.11.51.22.76.35l.37.19a2.71,2.71,0,0,1,.35.24,2.8,2.8,0,0,1,.58.61,2.76,2.76,0,0,1,.33.77c0,.13.05.27.08.4a3,3,0,0,1,0,.42c0,.27,0,.54-.07.81s-.08.53-.11.8a7,7,0,0,0,0,.79,1.58,1.58,0,0,0,0,.38,1,1,0,0,0,.12.34.72.72,0,0,0,.25.24,1.42,1.42,0,0,0,.36.14,3.42,3.42,0,0,0,.79.07c.27,0,.55,0,.82-.05l.41,0c.14,0,.28,0,.43,0h.14a.31.31,0,0,1,.09,0l0,0,0,0a.25.25,0,0,1,.09.13.37.37,0,0,1,0,.18.41.41,0,0,1-.08.13.41.41,0,0,1-.1.09l-.21.12a2.25,2.25,0,0,1-.42.13,3,3,0,0,1-.43.07,4,4,0,0,1-.85,0,9.26,9.26,0,0,1-1.67-.29c-.54-.13-1.08-.3-1.6-.48l-.39-.13-.1,0-.1,0-.2-.07a10.67,10.67,0,0,1-1.51-.76,4.83,4.83,0,0,1-.68-.51,2.84,2.84,0,0,1-.58-.66,1.77,1.77,0,0,1-.18-.42c0-.14-.06-.28-.08-.42a8.26,8.26,0,0,1,0-1.65c0-.53.09-1.06.1-1.59,0-.13,0-.26,0-.39s0-.12,0-.19v-.17a2.69,2.69,0,0,0-.13-.32,3.72,3.72,0,0,0-.19-.34,12.83,12.83,0,0,0-1-1.28c-.68-.84-1.4-1.66-2.07-2.52l-.26-.33a1,1,0,0,1-.11-.17l-.09-.19a2.6,2.6,0,0,0-.21-.36c-.08-.11-.15-.23-.22-.34l-.43-.69-.1-.17,0-.06Zm9.68,10a3.15,3.15,0,0,0-.32-.76,2.71,2.71,0,0,0-.24-.35,2,2,0,0,0-.28-.3,2.31,2.31,0,0,0-.69-.46,1.81,1.81,0,0,0-1.63.07,2.29,2.29,0,0,0-.68.56,2.09,2.09,0,0,0-.39.79,2.22,2.22,0,0,0,0,.89,2.64,2.64,0,0,0,.31.85,2.74,2.74,0,0,0,.57.7,2.08,2.08,0,0,0,.79.45,1.92,1.92,0,0,0,.89,0A2.59,2.59,0,0,0,39.9,47a2.34,2.34,0,0,0,.63-.58,2.09,2.09,0,0,0,.19-.36,1.9,1.9,0,0,0,.11-.39A2,2,0,0,0,40.78,44.83Z" transform="translate(-0.91 -0.91)"/></svg>