<svg id="Layer_1" data-name="Layer 1" xmlns="http://www.w3.org/2000/svg" viewBox="0 0 1131.04 293.17"><defs><style>.cls-1{fill:#151f44;}.cls-2{fill:#fff;}.cls-3{fill:none;stroke:#fff;stroke-miterlimit:10;stroke-width:2px;}</style></defs><title>lookinRuff_S</title><rect class="cls-1" width="1131.04" height="293.17" rx="33.25"/><path class="cls-2" d="M1051.2,167.67a15.18,15.18,0,1,1-15.13-14.77A14.83,14.83,0,0,1,1051.2,167.67Zm-26.56,0a11.44,11.44,0,0,0,11.52,11.79c6.49,0,11.26-5.22,11.26-11.7s-4.77-11.89-11.35-11.89A11.47,11.47,0,0,0,1024.64,167.67Zm9.09,7.74h-3.42V160.64a29.89,29.89,0,0,1,5.67-.45c2.8,0,4.06.45,5.14,1.08a4.1,4.1,0,0,1,1.44,3.25c0,1.62-1.26,2.88-3.06,3.42v.18c1.44.54,2.25,1.62,2.7,3.6a11.28,11.28,0,0,0,1.08,3.69h-3.69a12.64,12.64,0,0,1-1.17-3.6c-.27-1.62-1.17-2.34-3.07-2.34h-1.62Zm.09-8.37h1.62c1.89,0,3.43-.63,3.43-2.16,0-1.35-1-2.26-3.16-2.26a8.19,8.19,0,0,0-1.89.18Z" transform="translate(-0.18 -0.22)"/><path class="cls-2" d="M160.63,155l10,10H96.05V36l10,10V155ZM107.52,46l10-10V143.55h53.11l-10,10H107.52Z" transform="translate(-0.18 -0.22)"/><path class="cls-2" d="M267.84,73.89v53.6a37.54,37.54,0,1,1-75.07,0V73.89a37.54,37.54,0,0,1,75.07,0Zm-10.16,0a27.46,27.46,0,0,0-54.92,0v53.6a27.46,27.46,0,0,0,54.92,0Zm-1.48,0v53.6a26,26,0,1,1-52,0V73.89a26,26,0,1,1,52,0Zm-10,0A15.68,15.68,0,0,0,230.3,58a16.8,16.8,0,0,0-11.47,4.59,16.39,16.39,0,0,0-4.59,11.31v53.6a16.39,16.39,0,0,0,4.59,11.31,16.1,16.1,0,0,0,11.47,4.59,15.71,15.71,0,0,0,11.31-4.59,16.39,16.39,0,0,0,4.59-11.31Z" transform="translate(-0.18 -0.22)"/><path class="cls-2" d="M366.2,73.89v53.6a37.54,37.54,0,1,1-75.08,0V73.89a37.54,37.54,0,0,1,75.08,0Zm-10.16,0a27.46,27.46,0,0,0-54.92,0v53.6a27.46,27.46,0,0,0,54.92,0Zm-1.48,0v53.6a26,26,0,1,1-52,0V73.89a26,26,0,1,1,52,0Zm-10,0A15.68,15.68,0,0,0,328.66,58a16.8,16.8,0,0,0-11.47,4.59,16.39,16.39,0,0,0-4.59,11.31v53.6a16.39,16.39,0,0,0,4.59,11.31,16.1,16.1,0,0,0,11.47,4.59A15.71,15.71,0,0,0,340,138.8a16.39,16.39,0,0,0,4.59-11.31Z" transform="translate(-0.18 -0.22)"/><path class="cls-2" d="M400.63,46.51V155l-10,10V36.35ZM402.1,98.8V46.51l10-10.16V74.71L450,36.84v14.1Zm14.26,2.14,48.85,48.84H451L402.1,100.94,451,52.09h14.26ZM450,150.77V165L412.1,127.16V165l-10-10V102.9Z" transform="translate(-0.18 -0.22)"/><path class="cls-2" d="M498.33,46.51l-10-10h54.91l-10,10Zm0,107-10-10h16.72V58H488.33l10-10.17h16.72V153.55ZM533.24,155l10,10H488.33l10-10Zm10-97H526.52v85.56h16.72l-10,10H516.52V47.82h16.72Z" transform="translate(-0.18 -0.22)"/><path class="cls-2" d="M576.69,154.86,566.52,165V36l53.77,67.7V36.35l10,10v86.22l-53.6-67.7Zm65.07,10.66-53.6-67.7V165L578,154.86V69l53.76,67.7V46.35l10-10Z" transform="translate(-0.18 -0.22)"/><path class="cls-2" d="M729.47,100.94a37.42,37.42,0,0,1,11.14,26.55V165l-10.16-10V127.49a27.53,27.53,0,0,0-9.34-20.65,27.92,27.92,0,0,0-11.81-6.07,26.21,26.21,0,0,0,11.81-6.06,27.53,27.53,0,0,0-18-48.2H675.54V155l-10,10V36.51h37.54a36.63,36.63,0,0,1,26.39,11,36.86,36.86,0,0,1,11.14,26.55,37.46,37.46,0,0,1-11.14,26.56l-.17.16A.17.17,0,0,0,729.47,100.94Zm-26.39-.82H677V48h26.07a26.06,26.06,0,0,1,16.72,45.9A25.42,25.42,0,0,1,703.08,100.12ZM729,127.49V155l-10,10V127.49a15.68,15.68,0,0,0-15.9-15.9H687V165l-10-10v-53.6h26.07a27.19,27.19,0,0,1,16.72,6.22A26.22,26.22,0,0,1,729,127.49ZM687,90h16.07A15.68,15.68,0,0,0,719,74.05a16.14,16.14,0,0,0-4.59-11.31A15.86,15.86,0,0,0,703.08,58H687Z" transform="translate(-0.18 -0.22)"/><path class="cls-2" d="M838.81,35.53v92A37.52,37.52,0,0,1,801.27,165a37.51,37.51,0,0,1-37.54-37.54v-92l10.17,10v82a27.46,27.46,0,0,0,54.91,0v-82Zm-63.6,92v-82l10.16-10v92A16.39,16.39,0,0,0,790,138.8a15.71,15.71,0,0,0,11.31,4.59,15.44,15.44,0,0,0,11.31-4.59,15.85,15.85,0,0,0,4.75-11.31v-92l10,10v82a26.06,26.06,0,0,1-52.12,0Z" transform="translate(-0.18 -0.22)"/><path class="cls-2" d="M862.42,165V36.51H937l-10,10H872.42V155ZM883.89,58V88.48H927l-10,10H873.89V48H927l10,10Zm0,107-10-10V100H917l10,10H883.89Z" transform="translate(-0.18 -0.22)"/><path class="cls-2" d="M960.77,165V36.51h74.59l-10,10H970.77V155ZM982.25,58V88.48h43.11l-10,10H972.25V48h53.11l10,10Zm0,107-10-10V100h43.11l10,10H982.25Z" transform="translate(-0.18 -0.22)"/><line class="cls-3" x1="82.88" y1="197.25" x2="1048.16" y2="196.34"/><path class="cls-2" d="M370.55,242.61v13.46h-5V222.93h5.67a25.38,25.38,0,0,1,6.29.58,8.34,8.34,0,0,1,3.78,2.19,9.43,9.43,0,0,1,2.85,7,9.07,9.07,0,0,1-3.05,7.21,12.07,12.07,0,0,1-8.22,2.66Zm0-4.64h1.86q6.9,0,6.89-5.3,0-5.13-7.1-5.13h-1.65Z" transform="translate(-0.18 -0.22)"/><path class="cls-2" d="M412.32,227.63H399v8h12.9v4.7H399v11.08h13.29v4.7H394V222.93h18.29Z" transform="translate(-0.18 -0.22)"/><path class="cls-2" d="M432.78,227.63v28.44h-5V227.63h-7.62v-4.7h20.22v4.7Z" transform="translate(-0.18 -0.22)"/><path class="cls-2" d="M485,238.81h13.69v1.1a22.51,22.51,0,0,1-.88,6.61,14.09,14.09,0,0,1-2.9,5,15,15,0,0,1-11.74,5.19,16.11,16.11,0,0,1-11.91-5,17.26,17.26,0,0,1,12.36-29.39,16.82,16.82,0,0,1,7.26,1.59,21.15,21.15,0,0,1,6.33,5.15l-3.56,3.42q-4.08-5.43-9.94-5.43a11.92,11.92,0,0,0-8.83,3.62,12.15,12.15,0,0,0-3.56,8.93,12.44,12.44,0,0,0,12,12.45,10,10,0,0,0,6.64-2.49,8.89,8.89,0,0,0,3.28-6H485Z" transform="translate(-0.18 -0.22)"/><path class="cls-2" d="M520.9,241.94l10.26,14.13h-6.11l-9.47-13.57h-.9v13.57h-5V222.93h5.86q6.57,0,9.49,2.47a9.08,9.08,0,0,1,3.22,7.25,9.46,9.46,0,0,1-2,6.06A9,9,0,0,1,520.9,241.94Zm-6.22-3.79h1.59q7.1,0,7.1-5.43,0-5.1-6.91-5.09h-1.78Z" transform="translate(-0.18 -0.22)"/><path class="cls-2" d="M538.49,239.35a16.25,16.25,0,0,1,5.12-12,16.89,16.89,0,0,1,12.28-5,17.33,17.33,0,0,1,17.24,17.23A16.28,16.28,0,0,1,568,251.67a17.52,17.52,0,0,1-23.91.56A16.28,16.28,0,0,1,538.49,239.35Zm5,.06a12,12,0,0,0,3.69,9,12.24,12.24,0,0,0,17.28-.06,12.88,12.88,0,0,0,0-17.78,11.69,11.69,0,0,0-8.71-3.6,11.83,11.83,0,0,0-8.74,3.6A12,12,0,0,0,543.53,239.41Z" transform="translate(-0.18 -0.22)"/><path class="cls-2" d="M582.52,239.35a16.22,16.22,0,0,1,5.12-12,16.89,16.89,0,0,1,12.28-5,17.33,17.33,0,0,1,17.24,17.23,16.32,16.32,0,0,1-5.11,12.13,17.52,17.52,0,0,1-23.91.56A16.28,16.28,0,0,1,582.52,239.35Zm5,.06a12,12,0,0,0,3.69,9,12.24,12.24,0,0,0,17.28-.06,12.88,12.88,0,0,0,0-17.78,11.7,11.7,0,0,0-8.71-3.6,11.83,11.83,0,0,0-8.74,3.6A12,12,0,0,0,587.56,239.41Z" transform="translate(-0.18 -0.22)"/><path class="cls-2" d="M627,256.07l7-35.63,11.38,25.75,11.78-25.75,6.27,35.63h-5.13l-3.2-20-9.81,21.53L635.77,236l-3.56,20Z" transform="translate(-0.18 -0.22)"/><path class="cls-2" d="M680.21,222.93v33.14h-5V222.93Z" transform="translate(-0.18 -0.22)"/><path class="cls-2" d="M692.92,256.07v-35.4L717.09,246v-23h5v35.16l-24.17-25.22v23.2Z" transform="translate(-0.18 -0.22)"/><path class="cls-2" d="M752.16,238.81h13.7v1.1a22.51,22.51,0,0,1-.88,6.61,14.09,14.09,0,0,1-2.9,5,15,15,0,0,1-11.74,5.19,16.11,16.11,0,0,1-11.91-5,17.26,17.26,0,0,1,12.36-29.39,16.82,16.82,0,0,1,7.26,1.59,21.15,21.15,0,0,1,6.33,5.15l-3.57,3.42c-2.71-3.62-6-5.43-9.93-5.43a11.92,11.92,0,0,0-8.83,3.62,12.15,12.15,0,0,0-3.56,8.93,12.44,12.44,0,0,0,12,12.45,10,10,0,0,0,6.64-2.49,8.89,8.89,0,0,0,3.28-6h-8.27Z" transform="translate(-0.18 -0.22)"/><path class="cls-2" d="M221,246.36c0,4.07-5.06,2.16-7.1,2.16-2.23,0-6.63,1.78-6.63-2.1,0-3.22,2.43-3.94,3.35-5.91s1.64-3.28,3.41-3.28c2.5,0,3,1.7,3.88,3.41S221,243.73,221,246.36Z" transform="translate(-0.18 -0.22)"/><ellipse class="cls-2" cx="206.85" cy="238.07" rx="2.23" ry="3.15" transform="translate(-70.86 88.04) rotate(-20.65)"/><ellipse class="cls-2" cx="217.35" cy="233.2" rx="3.68" ry="2.5" transform="translate(-51.22 405) rotate(-79.67)"/><ellipse class="cls-2" cx="221.69" cy="237.92" rx="3.15" ry="2.23" transform="translate(-91.99 324.14) rotate(-62.44)"/><ellipse class="cls-2" cx="210.92" cy="233.16" rx="2.5" ry="3.55" transform="translate(-54.88 64.72) rotate(-15.52)"/><path class="cls-2" d="M273.91,248.34c0,5.21-6.47,2.77-9.08,2.77-2.86,0-8.49,2.27-8.49-2.69,0-4.11,3.11-5,4.29-7.56s2.1-4.2,4.37-4.2c3.19,0,3.86,2.18,5,4.37S273.91,245,273.91,248.34Z" transform="translate(-0.18 -0.22)"/><ellipse class="cls-2" cx="255.83" cy="237.74" rx="2.86" ry="4.03" transform="translate(-67.59 105.29) rotate(-20.65)"/><ellipse class="cls-2" cx="269.27" cy="231.51" rx="4.71" ry="3.19" transform="translate(-6.95 454.68) rotate(-79.67)"/><ellipse class="cls-2" cx="274.82" cy="237.55" rx="4.03" ry="2.86" transform="translate(-63.11 371.04) rotate(-62.44)"/><ellipse class="cls-2" cx="261.04" cy="231.45" rx="3.19" ry="4.54" transform="translate(-52.6 78.07) rotate(-15.52)"/><path class="cls-2" d="M326.59,250.06c0,6.2-7.7,3.3-10.8,3.3-3.4,0-10.1,2.7-10.1-3.2,0-4.9,3.7-6,5.1-9s2.5-5,5.2-5c3.8,0,4.6,2.6,5.9,5.2S326.59,246.06,326.59,250.06Z" transform="translate(-0.18 -0.22)"/><ellipse class="cls-2" cx="305.09" cy="237.45" rx="3.4" ry="4.8" transform="translate(-64.33 122.65) rotate(-20.65)"/><ellipse class="cls-2" cx="321.08" cy="230.04" rx="5.6" ry="3.8" transform="translate(37.02 504.44) rotate(-79.67)"/><ellipse class="cls-2" cx="327.68" cy="237.22" rx="4.8" ry="3.4" transform="translate(-34.42 417.72) rotate(-62.44)"/><ellipse class="cls-2" cx="311.28" cy="229.97" rx="3.8" ry="5.4" transform="translate(-50.37 91.47) rotate(-15.52)"/><path class="cls-2" d="M913.51,240.64c.86-1.71,1.38-3.41,3.88-3.41,1.77,0,2.5,1.31,3.42,3.28s3.35,2.69,3.35,5.91c0,3.88-4.41,2.1-6.64,2.1-2,0-7.09,1.91-7.09-2.16C910.43,243.73,912.66,242.35,913.51,240.64Z" transform="translate(-0.18 -0.22)"/><ellipse class="cls-2" cx="924.55" cy="238.07" rx="3.15" ry="2.23" transform="translate(375.5 1019.01) rotate(-69.35)"/><ellipse class="cls-2" cx="914.05" cy="233.2" rx="2.5" ry="3.68" transform="translate(-27.18 167.44) rotate(-10.33)"/><ellipse class="cls-2" cx="909.72" cy="237.92" rx="2.23" ry="3.15" transform="translate(-7.03 447.71) rotate(-27.56)"/><ellipse class="cls-2" cx="920.49" cy="233.16" rx="3.55" ry="2.5" transform="translate(449.32 1057.45) rotate(-74.48)"/><path class="cls-2" d="M861.45,241c1.09-2.19,1.76-4.37,5-4.37,2.27,0,3.19,1.68,4.37,4.2s4.28,3.45,4.28,7.56c0,5-5.63,2.69-8.49,2.69-2.6,0-9.07,2.44-9.07-2.77C857.5,245,860.35,243.21,861.45,241Z" transform="translate(-0.18 -0.22)"/><ellipse class="cls-2" cx="875.57" cy="237.74" rx="4.03" ry="2.86" transform="translate(344.11 972.96) rotate(-69.35)"/><ellipse class="cls-2" cx="862.13" cy="231.51" rx="3.19" ry="4.71" transform="translate(-27.72 158.11) rotate(-10.33)"/><ellipse class="cls-2" cx="856.59" cy="237.55" rx="2.86" ry="4.03" transform="translate(-12.88 423.08) rotate(-27.56)"/><ellipse class="cls-2" cx="870.37" cy="231.45" rx="4.54" ry="3.19" transform="translate(414.26 1007.91) rotate(-74.48)"/><path class="cls-2" d="M809.51,241.36c1.3-2.6,2.1-5.2,5.9-5.2,2.7,0,3.8,2,5.2,5s5.1,4.1,5.1,9c0,5.9-6.7,3.2-10.1,3.2-3.1,0-10.8,2.9-10.8-3.3C804.81,246.06,808.21,244,809.51,241.36Z" transform="translate(-0.18 -0.22)"/><ellipse class="cls-2" cx="826.32" cy="237.45" rx="4.8" ry="3.4" transform="translate(312.49 926.68) rotate(-69.35)"/><ellipse class="cls-2" cx="810.33" cy="230.04" rx="3.8" ry="5.6" transform="translate(-28.3 148.8) rotate(-10.33)"/><ellipse class="cls-2" cx="803.73" cy="237.22" rx="3.4" ry="4.8" transform="translate(-18.73 398.59) rotate(-27.56)"/><ellipse class="cls-2" cx="820.12" cy="229.97" rx="5.4" ry="3.8" transform="translate(378.89 958.42) rotate(-74.48)"/></svg>