<svg id="Layer_1" data-name="Layer 1" xmlns="http://www.w3.org/2000/svg" viewBox="0 0 282.76 73.29"><defs><style>.cls-1{fill:#151f44;}.cls-2{fill:#fff;}.cls-3{fill:none;stroke:#fff;stroke-miterlimit:10;}</style></defs><title>lookinRuff_S</title><rect class="cls-1" width="282.76" height="73.29" rx="8.31"/><path class="cls-2" d="M262.75,41.86a3.79,3.79,0,1,1-3.89-3.69H259a3.7,3.7,0,0,1,3.78,3.63Zm-6.64,0a2.88,2.88,0,0,0,2.78,3h.1a2.83,2.83,0,0,0,2.82-2.93,2.85,2.85,0,1,0-5.7-.09.17.17,0,0,0,0,.07Zm2.28,1.94h-.86V40.1A7.49,7.49,0,0,1,259,40a2.26,2.26,0,0,1,1.28.27,1,1,0,0,1,.36.82.93.93,0,0,1-.76.85v0a1.1,1.1,0,0,1,.67.91,3,3,0,0,0,.27.92h-.92a3.26,3.26,0,0,1-.29-.9c-.07-.41-.29-.59-.77-.59h-.4Zm0-2.09h.4c.48,0,.86-.16.86-.54s-.25-.57-.79-.57a1.88,1.88,0,0,0-.47,0Z"/><path class="cls-2" d="M40.11,38.7l2.5,2.5H24V9l2.5,2.5V38.7ZM26.83,11.45,29.33,9V35.83H42.61l-2.5,2.5H26.83Z"/><path class="cls-2" d="M66.91,18.42v13.4a9.38,9.38,0,0,1-18.76.3V18.42a9.38,9.38,0,0,1,18.76,0Zm-2.54,0a6.87,6.87,0,1,0-13.73,0v13.4a6.87,6.87,0,0,0,13.73,0Zm-.37,0v13.4a6.5,6.5,0,0,1-13,0V18.42a6.5,6.5,0,0,1,13,0Zm-2.5,0a3.92,3.92,0,0,0-3.86-4h-.11a4.19,4.19,0,0,0-2.87,1.14,4.08,4.08,0,0,0-1.14,2.83v13.4a4.08,4.08,0,0,0,1.14,2.83,4,4,0,0,0,2.87,1.14,3.89,3.89,0,0,0,2.83-1.14,4.08,4.08,0,0,0,1.14-2.83Z"/><path class="cls-2" d="M91.51,18.42v13.4a9.39,9.39,0,0,1-18.78,0V18.42a9.39,9.39,0,1,1,18.78,0Zm-2.54,0a6.87,6.87,0,0,0-13.74,0v13.4a6.87,6.87,0,0,0,13.73,0Zm-.38,0v13.4a6.5,6.5,0,0,1-13,0V18.42a6.5,6.5,0,0,1,13,0Zm-2.5,0a3.92,3.92,0,0,0-3.86-4h-.11a4.19,4.19,0,0,0-2.87,1.14,4.08,4.08,0,0,0-1.14,2.83v13.4a4.08,4.08,0,0,0,1.14,2.83,4,4,0,0,0,2.87,1.14A3.89,3.89,0,0,0,85,34.65a4.06,4.06,0,0,0,1.15-2.83Z"/><path class="cls-2" d="M100.11,11.57V38.7l-2.5,2.5V9Zm.37,13.08V11.57L103,9v9.59l9.47-9.46v3.52Zm3.57.53,12.21,12.21H112.7L100.48,25.18,112.7,13h3.57Zm8.4,12.46V41.2L103,31.74V41.2l-2.5-2.5v-13Z"/><path class="cls-2" d="M124.54,11.57,122,9.07h13.72l-2.5,2.5Zm0,26.75-2.5-2.5h4.18V14.45H122l2.5-2.55h4.18V38.33Zm8.72.38,2.5,2.5H122l2.5-2.5Zm2.5-24.25h-4.17V35.83h4.17l-2.5,2.5h-4.17V11.9h4.17Z"/><path class="cls-2" d="M144.13,38.66l-2.54,2.54V9L155,25.87V9l2.5,2.5V33.09l-13.4-16.93Zm16.27,2.67L147,24.4V41.2l-2.55-2.54V17.2L157.9,34.12V11.53L160.4,9Z"/><path class="cls-2" d="M182.32,25.18a9.36,9.36,0,0,1,2.79,6.64V41.2l-2.54-2.5V31.82a6.88,6.88,0,0,0-2.34-5.17,7,7,0,0,0-2.95-1.51,6.62,6.62,0,0,0,2.95-1.52,6.88,6.88,0,0,0-4.5-12h-6.89V38.7l-2.5,2.5V9.07h9.38a9.17,9.17,0,0,1,6.6,2.75,9.23,9.23,0,0,1,2.79,6.64,9.36,9.36,0,0,1-2.79,6.64l0,0A0,0,0,0,0,182.32,25.18Zm-6.6-.2H169.2V12h6.52a6.51,6.51,0,0,1,4.18,11.47A6.34,6.34,0,0,1,175.73,25Zm6.48,6.84V38.7l-2.5,2.5V31.82a3.91,3.91,0,0,0-3.86-4H171.7V41.2l-2.5-2.5V25.3h6.52a6.79,6.79,0,0,1,4.18,1.55A6.52,6.52,0,0,1,182.2,31.82Zm-10.5-9.37h4a3.94,3.94,0,0,0,4-3.86.53.53,0,0,0,0-.13,4,4,0,0,0-1.14-2.83,3.93,3.93,0,0,0-2.83-1.18h-4Z"/><path class="cls-2" d="M209.66,8.83v23a9.39,9.39,0,0,1-18.77,0v-23l2.54,2.5v20.5a6.87,6.87,0,0,0,13.73,0V11.31Zm-15.9,23V11.33l2.54-2.5v23a4.13,4.13,0,0,0,1.15,2.82,3.93,3.93,0,0,0,2.83,1.14,3.88,3.88,0,0,0,2.83-1.14,4,4,0,0,0,1.19-2.83v-23l2.5,2.5v20.5a6.52,6.52,0,0,1-13,0Z"/><path class="cls-2" d="M215.56,41.2V9.07H234.2l-2.5,2.5H218.06V38.7Zm5.37-26.75v7.62H231.7l-2.5,2.5H218.43V12H231.7l2.5,2.5Zm0,26.75-2.5-2.5V25H229.2l2.5,2.5H220.93Z"/><path class="cls-2" d="M240.15,41.2V9.07h18.64l-2.5,2.5H242.65V38.7Zm5.37-26.75v7.62h10.77l-2.5,2.5H243V12h13.27l2.5,2.5Zm0,26.75L243,38.7V25h10.77l2.5,2.5H245.52Z"/><line class="cls-3" x1="20.72" y1="49.31" x2="262.04" y2="49.08"/><path class="cls-2" d="M92.59,60.6V64H91.34V55.68h1.42a6.33,6.33,0,0,1,1.57.14,2.17,2.17,0,0,1,1,.55A2.35,2.35,0,0,1,96,58.12a2.26,2.26,0,0,1-.76,1.8,3,3,0,0,1-2.06.67Zm0-1.16h.47c1.15,0,1.72-.44,1.72-1.33s-.59-1.28-1.78-1.28h-.41Z"/><path class="cls-2" d="M103,56.85H99.7v2h3.23V60H99.7V62.8H103V64H98.45V55.68H103Z"/><path class="cls-2" d="M108.15,56.85V64H106.9V56.85H105V55.68h5v1.17Z"/><path class="cls-2" d="M121.2,59.65h3.43v.27a5.83,5.83,0,0,1-.22,1.66,3.67,3.67,0,0,1-.73,1.25,3.73,3.73,0,0,1-2.93,1.29,4,4,0,0,1-3-1.25,4.32,4.32,0,0,1,3.09-7.35,4.39,4.39,0,0,1,1.82.4,5.31,5.31,0,0,1,1.58,1.29l-.89.85a3,3,0,0,0-2.49-1.35,3.06,3.06,0,0,0-3.09,3.13,3.11,3.11,0,0,0,3,3.12,2.49,2.49,0,0,0,1.66-.63,2.26,2.26,0,0,0,.82-1.5H121.2Z"/><path class="cls-2" d="M130.18,60.43,132.75,64h-1.53l-2.37-3.39h-.22V64h-1.25V55.68h1.46a3.64,3.64,0,0,1,2.37.61,2.3,2.3,0,0,1,.81,1.82,2.41,2.41,0,0,1-.5,1.51A2.27,2.27,0,0,1,130.18,60.43Zm-1.55-1H129c1.19,0,1.78-.45,1.78-1.35s-.58-1.28-1.73-1.28h-.44Z"/><path class="cls-2" d="M134.58,59.78a4.07,4.07,0,0,1,1.28-3,4.21,4.21,0,0,1,3.07-1.25,4.34,4.34,0,0,1,4.31,4.31,4.07,4.07,0,0,1-1.29,3,4.37,4.37,0,0,1-6,.14A4,4,0,0,1,134.58,59.78Zm1.25,0a3,3,0,0,0,.92,2.25,3.06,3.06,0,0,0,4.32,0,3.21,3.21,0,0,0,0-4.44,3.09,3.09,0,0,0-4.36,0,3,3,0,0,0-.87,2.21Z"/><path class="cls-2" d="M145.59,59.78a4,4,0,0,1,1.28-3,4.2,4.2,0,0,1,3.07-1.25,4.34,4.34,0,0,1,4.31,4.31,4.1,4.1,0,0,1-1.28,3,4.39,4.39,0,0,1-6,.14A4.06,4.06,0,0,1,145.59,59.78Zm1.25,0a3,3,0,0,0,.92,2.25,3.06,3.06,0,0,0,4.32,0,3.23,3.23,0,0,0,0-4.44,3.09,3.09,0,0,0-4.36,0,3,3,0,0,0-.88,2.21Z"/><path class="cls-2" d="M156.7,64l1.75-8.9,2.85,6.43,2.95-6.43,1.56,8.9h-1.28l-.8-5-2.45,5.39L158.9,59,158,64Z"/><path class="cls-2" d="M170,55.68V64h-1.25V55.68Z"/><path class="cls-2" d="M173.18,64V55.11l6,6.34V55.7h1.25v8.79l-6-6.31V64Z"/><path class="cls-2" d="M188,59.65h3.43v.27a5.83,5.83,0,0,1-.22,1.66,3.52,3.52,0,0,1-.73,1.25,3.73,3.73,0,0,1-2.93,1.29,4,4,0,0,1-3-1.25,4.32,4.32,0,0,1,3.09-7.35,4.39,4.39,0,0,1,1.82.4,5.31,5.31,0,0,1,1.58,1.29l-.89.85a3.05,3.05,0,0,0-5.58,1.78,3.11,3.11,0,0,0,3,3.12,2.49,2.49,0,0,0,1.66-.63,2.22,2.22,0,0,0,.82-1.5H188Z"/><path class="cls-2" d="M55.2,61.54c0,1-1.26.54-1.77.54s-1.66.44-1.66-.53c0-.81.61-1,.84-1.48s.41-.82.85-.82c.63,0,.75.43,1,.85S55.2,60.88,55.2,61.54Z"/><ellipse class="cls-2" cx="51.66" cy="59.47" rx="0.56" ry="0.79" transform="translate(-17.65 22.04) rotate(-20.65)"/><ellipse class="cls-2" cx="54.29" cy="58.25" rx="0.92" ry="0.63" transform="translate(-12.75 101.22) rotate(-79.67)"/><ellipse class="cls-2" cx="55.38" cy="59.42" rx="0.79" ry="0.56" transform="translate(-22.92 81.02) rotate(-62.44)"/><ellipse class="cls-2" cx="52.68" cy="58.24" rx="0.62" ry="0.89" transform="translate(-13.66 16.22) rotate(-15.52)"/><path class="cls-2" d="M68.43,62c0,1.3-1.61.69-2.27.69S64,63.29,64,62.05c0-1,.78-1.25,1.07-1.89s.53-1,1.1-1c.79,0,1,.54,1.25,1.09S68.43,61.2,68.43,62Z"/><ellipse class="cls-2" cx="63.91" cy="59.38" rx="0.72" ry="1.01" transform="translate(-16.84 26.35) rotate(-20.65)"/><ellipse class="cls-2" cx="67.27" cy="57.82" rx="1.18" ry="0.8" transform="translate(-1.68 113.64) rotate(-79.67)"/><ellipse class="cls-2" cx="68.66" cy="59.33" rx="1.01" ry="0.72" transform="translate(-15.7 92.75) rotate(-62.44)"/><ellipse class="cls-2" cx="65.21" cy="57.81" rx="0.8" ry="1.13" transform="translate(-13.09 19.56) rotate(-15.52)"/><path class="cls-2" d="M81.6,62.46c0,1.55-1.92.83-2.7.83s-2.52.67-2.52-.8c0-1.23.92-1.5,1.27-2.25S78.28,59,79,59c1,0,1.15.65,1.48,1.3S81.6,61.46,81.6,62.46Z"/><ellipse class="cls-2" cx="76.22" cy="59.31" rx="0.85" ry="1.2" transform="translate(-16.02 30.69) rotate(-20.65)"/><ellipse class="cls-2" cx="80.23" cy="57.45" rx="1.4" ry="0.95" transform="translate(9.32 126.08) rotate(-79.67)"/><ellipse class="cls-2" cx="81.87" cy="59.24" rx="1.2" ry="0.85" transform="translate(-8.53 104.42) rotate(-62.44)"/><ellipse class="cls-2" cx="77.77" cy="57.44" rx="0.95" ry="1.35" transform="translate(-12.53 22.9) rotate(-15.52)"/><path class="cls-2" d="M228.33,60.1c.22-.42.35-.85,1-.85.45,0,.63.33.86.82s.83.67.83,1.48c0,1-1.1.53-1.66.53s-1.77.47-1.77-.54C227.56,60.88,228.12,60.53,228.33,60.1Z"/><ellipse class="cls-2" cx="231.08" cy="59.45" rx="0.79" ry="0.56" transform="translate(93.95 254.72) rotate(-69.35)"/><ellipse class="cls-2" cx="228.47" cy="58.24" rx="0.63" ry="0.92" transform="translate(-6.74 41.91) rotate(-10.33)"/><ellipse class="cls-2" cx="227.39" cy="59.43" rx="0.56" ry="0.79" transform="translate(-1.7 111.95) rotate(-27.56)"/><ellipse class="cls-2" cx="230.07" cy="58.23" rx="0.89" ry="0.62" transform="translate(112.4 264.33) rotate(-74.48)"/><path class="cls-2" d="M215.32,60.2c.27-.55.44-1.1,1.25-1.1.57,0,.8.42,1.09,1s1.07.86,1.07,1.89c0,1.25-1.41.68-2.12.68s-2.27.61-2.27-.7C214.33,61.2,215,60.75,215.32,60.2Z"/><ellipse class="cls-2" cx="218.84" cy="59.37" rx="1.01" ry="0.72" transform="translate(86.11 243.21) rotate(-69.35)"/><ellipse class="cls-2" cx="215.49" cy="57.82" rx="0.8" ry="1.18" transform="translate(-6.88 39.58) rotate(-10.33)"/><ellipse class="cls-2" cx="214.1" cy="59.34" rx="0.71" ry="1.01" transform="translate(-3.16 105.79) rotate(-27.56)"/><ellipse class="cls-2" cx="217.54" cy="57.8" rx="1.13" ry="0.8" transform="translate(103.64 251.94) rotate(-74.48)"/><path class="cls-2" d="M202.33,60.29c.33-.66.53-1.3,1.48-1.3.67,0,.95.5,1.3,1.25s1.27,1,1.27,2.25c0,1.47-1.67.8-2.52.8s-2.7.72-2.7-.83C201.16,61.46,202,61,202.33,60.29Z"/><ellipse class="cls-2" cx="206.52" cy="59.3" rx="1.2" ry="0.85" transform="translate(78.2 231.64) rotate(-69.35)"/><ellipse class="cls-2" cx="202.54" cy="57.45" rx="0.95" ry="1.4" transform="translate(-7.02 37.25) rotate(-10.33)"/><ellipse class="cls-2" cx="200.89" cy="59.26" rx="0.85" ry="1.2" transform="translate(-4.62 99.67) rotate(-27.56)"/><ellipse class="cls-2" cx="204.98" cy="57.43" rx="1.35" ry="0.95" transform="translate(94.79 239.57) rotate(-74.48)"/></svg>