<svg id="Layer_1" data-name="Layer 1" xmlns="http://www.w3.org/2000/svg" viewBox="0 0 56.97 56.97"><defs><style>.cls-1{fill:#141f44;}.cls-2,.cls-3{fill:#fff;}.cls-3{stroke:#141f44;stroke-miterlimit:10;}</style></defs><title>nails</title><circle class="cls-1" cx="28.48" cy="28.48" r="28.48"/><circle class="cls-2" cx="28.48" cy="28.6" r="26.21"/><rect class="cls-1" x="16.11" y="6.26" width="8.38" height="32.11" rx="4.19" transform="translate(24.35 -8.34) rotate(51.75)"/><rect class="cls-3" x="17.94" y="5.87" width="8.38" height="32.11" rx="4.19" transform="translate(24.73 -9.93) rotate(51.75)"/><circle class="cls-1" cx="26.03" cy="15.95" r="0.21"/><circle class="cls-1" cx="26.86" cy="17.14" r="0.21"/><circle class="cls-1" cx="26.34" cy="15.07" r="0.21"/><circle class="cls-1" cx="27.17" cy="16.26" r="0.21"/><circle class="cls-1" cx="26.81" cy="15.51" r="0.21"/><circle class="cls-1" cx="27.64" cy="16.7" r="0.21"/><circle class="cls-1" cx="27.12" cy="14.63" r="0.21"/><circle class="cls-1" cx="27.95" cy="15.82" r="0.21"/><circle class="cls-1" cx="29.55" cy="14.25" r="0.21"/><circle class="cls-1" cx="30.38" cy="15.43" r="0.21"/><circle class="cls-1" cx="29.85" cy="13.37" r="0.21"/><circle class="cls-1" cx="30.68" cy="14.56" r="0.21"/><circle class="cls-1" cx="27.89" cy="15.1" r="0.21"/><circle class="cls-1" cx="28.72" cy="16.29" r="0.21"/><circle class="cls-1" cx="28.2" cy="14.22" r="0.21"/><circle class="cls-1" cx="29.03" cy="15.41" r="0.21"/><circle class="cls-1" cx="28.68" cy="14.66" r="0.21"/><circle class="cls-1" cx="29.51" cy="15.85" r="0.21"/><circle class="cls-1" cx="28.99" cy="13.78" r="0.21"/><circle class="cls-1" cx="29.82" cy="14.97" r="0.21"/><circle class="cls-1" cx="20.22" cy="19.94" r="0.21"/><circle class="cls-1" cx="21.05" cy="21.12" r="0.21"/><circle class="cls-1" cx="20.53" cy="19.06" r="0.21"/><circle class="cls-1" cx="21.36" cy="20.24" r="0.21"/><circle class="cls-1" cx="21" cy="19.5" r="0.21"/><circle class="cls-1" cx="21.83" cy="20.68" r="0.21"/><circle class="cls-1" cx="21.31" cy="18.62" r="0.21"/><circle class="cls-1" cx="22.14" cy="19.8" r="0.21"/><circle class="cls-1" cx="23.74" cy="18.24" r="0.21"/><circle class="cls-1" cx="24.57" cy="19.42" r="0.21"/><circle class="cls-1" cx="24.05" cy="17.36" r="0.21"/><circle class="cls-1" cx="24.88" cy="18.54" r="0.21"/><circle class="cls-1" cx="22.08" cy="19.09" r="0.21"/><circle class="cls-1" cx="22.91" cy="20.27" r="0.21"/><circle class="cls-1" cx="22.39" cy="18.21" r="0.21"/><circle class="cls-1" cx="23.22" cy="19.39" r="0.21"/><circle class="cls-1" cx="22.87" cy="18.65" r="0.21"/><circle class="cls-1" cx="23.7" cy="19.83" r="0.21"/><circle class="cls-1" cx="23.18" cy="17.77" r="0.21"/><circle class="cls-1" cx="24.01" cy="18.95" r="0.21"/><circle class="cls-1" cx="15.39" cy="24.14" r="0.21"/><circle class="cls-1" cx="16.22" cy="25.33" r="0.21"/><circle class="cls-1" cx="15.69" cy="23.26" r="0.21"/><circle class="cls-1" cx="16.52" cy="24.45" r="0.21"/><circle class="cls-1" cx="16.17" cy="23.7" r="0.21"/><circle class="cls-1" cx="17" cy="24.89" r="0.21"/><circle class="cls-1" cx="16.48" cy="22.82" r="0.21"/><circle class="cls-1" cx="17.31" cy="24.01" r="0.21"/><circle class="cls-1" cx="18.9" cy="22.44" r="0.21"/><circle class="cls-1" cx="19.73" cy="23.62" r="0.21"/><circle class="cls-1" cx="19.21" cy="21.56" r="0.21"/><circle class="cls-1" cx="20.04" cy="22.74" r="0.21"/><circle class="cls-1" cx="17.25" cy="23.29" r="0.21"/><circle class="cls-1" cx="18.08" cy="24.47" r="0.21"/><circle class="cls-1" cx="17.56" cy="22.41" r="0.21"/><circle class="cls-1" cx="18.39" cy="23.59" r="0.21"/><circle class="cls-1" cx="18.03" cy="22.85" r="0.21"/><circle class="cls-1" cx="18.86" cy="24.03" r="0.21"/><circle class="cls-1" cx="18.34" cy="21.97" r="0.21"/><circle class="cls-1" cx="19.17" cy="23.15" r="0.21"/><circle class="cls-1" cx="10.97" cy="27.93" r="0.21"/><circle class="cls-1" cx="11.8" cy="29.11" r="0.21"/><circle class="cls-1" cx="11.28" cy="27.05" r="0.21"/><circle class="cls-1" cx="12.11" cy="28.23" r="0.21"/><circle class="cls-1" cx="11.76" cy="27.49" r="0.21"/><circle class="cls-1" cx="12.59" cy="28.67" r="0.21"/><circle class="cls-1" cx="12.06" cy="26.61" r="0.21"/><circle class="cls-1" cx="12.89" cy="27.79" r="0.21"/><circle class="cls-1" cx="14.49" cy="26.22" r="0.21"/><circle class="cls-1" cx="15.32" cy="27.41" r="0.21"/><circle class="cls-1" cx="14.8" cy="25.34" r="0.21"/><circle class="cls-1" cx="15.63" cy="26.53" r="0.21"/><circle class="cls-1" cx="12.83" cy="27.08" r="0.21"/><circle class="cls-1" cx="13.66" cy="28.26" r="0.21"/><circle class="cls-1" cx="13.14" cy="26.2" r="0.21"/><circle class="cls-1" cx="13.97" cy="27.38" r="0.21"/><circle class="cls-1" cx="13.62" cy="26.64" r="0.21"/><circle class="cls-1" cx="14.45" cy="27.82" r="0.21"/><circle class="cls-1" cx="13.93" cy="25.76" r="0.21"/><circle class="cls-1" cx="14.76" cy="26.94" r="0.21"/><path class="cls-1" d="M43.79,31.12s-1.81-8.4-4.63-8.24c-.29,0-.84,7.78-1.94,8.24C35.71,31.75,42.88,35.11,43.79,31.12Z" transform="translate(-0.91 -0.9)"/><path class="cls-1" d="M16,31s1.81-8.4,4.62-8.24c.29,0,.85,7.78,1.95,8.24C24.09,31.6,16.92,35,16,31Z" transform="translate(-0.91 -0.9)"/><path class="cls-1" d="M26.19,31.4s2.22-9.08,3.9-9.08c1.06,0,4.11,7.35,3.34,8.69A4.66,4.66,0,0,1,26.19,31.4Z" transform="translate(-0.91 -0.9)"/><path class="cls-1" d="M21.9,47.34c-8.83,0-7.78-9.67-7.78-10.73S15.74,26.09,20,27.23c2.11.56,1.48,4.34,4.42,4.34,2.73,0,.21-4.2,5.46-4.34,4.63-.13,3.37,4.13,5.68,4.13,3.15,0,1.89-3.57,4.84-4.13,3.28-.63,4.87,6.83,5,9.38.21,3.16,0,10.73-8.62,10.73Z" transform="translate(-0.91 -0.9)"/><path class="cls-2" d="M22.44,46.07C14,46.07,15,38.49,15,37.67s.5-8.88,4.58-8c2,.44,1,4,4.63,4,3.22,0,1.47-4.18,5.67-4.41,3.79-.21,2.47,4,5.89,4,3.82,0,2.17-3.53,5.26-3.78,2.52-.21,3.57,6,3.73,8,.2,2.47.2,8.56-8,8.56Z" transform="translate(-0.91 -0.9)"/></svg>