<svg id="Layer_1" data-name="Layer 1" xmlns="http://www.w3.org/2000/svg" viewBox="0 0 249.21 56.97"><defs><style>.cls-1{fill:#141f44;}.cls-2,.cls-3,.cls-4{fill:#fff;}.cls-3,.cls-4{stroke:#141f44;stroke-miterlimit:10;}.cls-4{stroke-width:0.5px;}</style></defs><title>options_S4</title><circle class="cls-1" cx="28.48" cy="28.48" r="28.48"/><circle class="cls-2" cx="28.48" cy="28.6" r="26.21"/><rect class="cls-1" x="19.19" y="8.03" width="8.38" height="32.11" rx="4.19" transform="translate(23.82 -11.85) rotate(51.75)"/><rect class="cls-3" x="21.02" y="7.63" width="8.38" height="32.11" rx="4.19" transform="translate(24.21 -13.44) rotate(51.75)"/><circle class="cls-1" cx="26.03" cy="15.95" r="0.21"/><circle class="cls-1" cx="26.86" cy="17.14" r="0.21"/><circle class="cls-1" cx="26.34" cy="15.07" r="0.21"/><circle class="cls-1" cx="27.17" cy="16.26" r="0.21"/><circle class="cls-1" cx="26.81" cy="15.51" r="0.21"/><circle class="cls-1" cx="27.64" cy="16.7" r="0.21"/><circle class="cls-1" cx="27.12" cy="14.63" r="0.21"/><circle class="cls-1" cx="27.95" cy="15.82" r="0.21"/><circle class="cls-1" cx="29.55" cy="14.25" r="0.21"/><circle class="cls-1" cx="30.38" cy="15.43" r="0.21"/><circle class="cls-1" cx="29.85" cy="13.37" r="0.21"/><circle class="cls-1" cx="30.68" cy="14.56" r="0.21"/><circle class="cls-1" cx="27.89" cy="15.1" r="0.21"/><circle class="cls-1" cx="28.72" cy="16.29" r="0.21"/><circle class="cls-1" cx="28.2" cy="14.22" r="0.21"/><circle class="cls-1" cx="29.03" cy="15.41" r="0.21"/><circle class="cls-1" cx="28.68" cy="14.66" r="0.21"/><circle class="cls-1" cx="29.51" cy="15.85" r="0.21"/><circle class="cls-1" cx="28.99" cy="13.78" r="0.21"/><circle class="cls-1" cx="29.82" cy="14.97" r="0.21"/><circle class="cls-1" cx="20.22" cy="19.94" r="0.21"/><circle class="cls-1" cx="21.05" cy="21.12" r="0.21"/><circle class="cls-1" cx="20.53" cy="19.06" r="0.21"/><circle class="cls-1" cx="21.36" cy="20.24" r="0.21"/><circle class="cls-1" cx="21" cy="19.5" r="0.21"/><circle class="cls-1" cx="21.83" cy="20.68" r="0.21"/><circle class="cls-1" cx="21.31" cy="18.62" r="0.21"/><circle class="cls-1" cx="22.14" cy="19.8" r="0.21"/><circle class="cls-1" cx="23.74" cy="18.24" r="0.21"/><circle class="cls-1" cx="24.57" cy="19.42" r="0.21"/><circle class="cls-1" cx="24.05" cy="17.36" r="0.21"/><circle class="cls-1" cx="24.88" cy="18.54" r="0.21"/><circle class="cls-1" cx="22.08" cy="19.09" r="0.21"/><circle class="cls-1" cx="22.91" cy="20.27" r="0.21"/><circle class="cls-1" cx="22.39" cy="18.21" r="0.21"/><circle class="cls-1" cx="23.22" cy="19.39" r="0.21"/><circle class="cls-1" cx="22.87" cy="18.65" r="0.21"/><circle class="cls-1" cx="23.7" cy="19.83" r="0.21"/><circle class="cls-1" cx="23.18" cy="17.77" r="0.21"/><circle class="cls-1" cx="24.01" cy="18.95" r="0.21"/><circle class="cls-1" cx="15.39" cy="24.14" r="0.21"/><circle class="cls-1" cx="16.22" cy="25.33" r="0.21"/><circle class="cls-1" cx="15.69" cy="23.26" r="0.21"/><circle class="cls-1" cx="16.52" cy="24.45" r="0.21"/><circle class="cls-1" cx="16.17" cy="23.7" r="0.21"/><circle class="cls-1" cx="17" cy="24.89" r="0.21"/><circle class="cls-1" cx="16.48" cy="22.82" r="0.21"/><circle class="cls-1" cx="17.31" cy="24.01" r="0.21"/><circle class="cls-1" cx="18.9" cy="22.44" r="0.21"/><circle class="cls-1" cx="19.73" cy="23.62" r="0.21"/><circle class="cls-1" cx="19.21" cy="21.56" r="0.21"/><circle class="cls-1" cx="20.04" cy="22.74" r="0.21"/><circle class="cls-1" cx="17.25" cy="23.29" r="0.21"/><circle class="cls-1" cx="18.08" cy="24.47" r="0.21"/><circle class="cls-1" cx="17.56" cy="22.41" r="0.21"/><circle class="cls-1" cx="18.39" cy="23.59" r="0.21"/><circle class="cls-1" cx="18.03" cy="22.85" r="0.21"/><circle class="cls-1" cx="18.86" cy="24.03" r="0.21"/><circle class="cls-1" cx="18.34" cy="21.97" r="0.21"/><circle class="cls-1" cx="19.17" cy="23.15" r="0.21"/><circle class="cls-1" cx="10.97" cy="27.93" r="0.21"/><circle class="cls-1" cx="11.8" cy="29.11" r="0.21"/><circle class="cls-1" cx="11.28" cy="27.05" r="0.21"/><circle class="cls-1" cx="12.11" cy="28.23" r="0.21"/><circle class="cls-1" cx="11.76" cy="27.49" r="0.21"/><circle class="cls-1" cx="12.59" cy="28.67" r="0.21"/><circle class="cls-1" cx="12.06" cy="26.61" r="0.21"/><circle class="cls-1" cx="12.89" cy="27.79" r="0.21"/><circle class="cls-1" cx="14.49" cy="26.22" r="0.21"/><circle class="cls-1" cx="15.32" cy="27.41" r="0.21"/><circle class="cls-1" cx="14.8" cy="25.34" r="0.21"/><circle class="cls-1" cx="15.63" cy="26.53" r="0.21"/><circle class="cls-1" cx="12.83" cy="27.08" r="0.21"/><circle class="cls-1" cx="13.66" cy="28.26" r="0.21"/><circle class="cls-1" cx="13.14" cy="26.2" r="0.21"/><circle class="cls-1" cx="13.97" cy="27.38" r="0.21"/><circle class="cls-1" cx="13.62" cy="26.64" r="0.21"/><circle class="cls-1" cx="14.45" cy="27.82" r="0.21"/><circle class="cls-1" cx="13.93" cy="25.76" r="0.21"/><circle class="cls-1" cx="14.76" cy="26.94" r="0.21"/><path class="cls-1" d="M46.87,32.88s-1.81-8.4-4.63-8.23c-.28,0-.84,7.77-1.94,8.23C38.79,33.51,46,36.87,46.87,32.88Z" transform="translate(-3.99 -2.66)"/><path class="cls-1" d="M19.09,32.74s1.81-8.4,4.63-8.24c.28,0,.84,7.78,1.94,8.24C27.17,33.37,20,36.73,19.09,32.74Z" transform="translate(-3.99 -2.66)"/><path class="cls-1" d="M29.27,33.17s2.23-9.09,3.91-9.09c1,0,4.1,7.35,3.33,8.7A4.67,4.67,0,0,1,29.27,33.17Z" transform="translate(-3.99 -2.66)"/><path class="cls-1" d="M25,49.1c-8.83,0-7.78-9.67-7.78-10.72S18.82,27.85,23.09,29c2.1.56,1.47,4.34,4.41,4.34,2.73,0,.21-4.2,5.47-4.34,4.62-.13,3.36,4.13,5.67,4.13,3.16,0,1.89-3.57,4.84-4.13,3.29-.63,4.87,6.83,5,9.39.21,3.15,0,10.72-8.62,10.72Z" transform="translate(-3.99 -2.66)"/><path class="cls-2" d="M25.52,47.84c-8.45,0-7.44-7.58-7.44-8.41s.51-8.88,4.59-8c2,.44,1,4,4.62,4,3.22,0,1.47-4.18,5.68-4.41,3.78-.21,2.46,4,5.88,4,3.82,0,2.17-3.52,5.26-3.78,2.52-.21,3.57,6,3.73,8,.2,2.47.2,8.57-8,8.57Z" transform="translate(-3.99 -2.66)"/><circle class="cls-1" cx="92.56" cy="28.48" r="28.48"/><circle class="cls-2" cx="92.56" cy="28.6" r="26.21"/><path class="cls-1" d="M107,9.76l.07,0a.39.39,0,0,1,.08.14.77.77,0,0,1,0,.15,1.47,1.47,0,0,1-.05.29h0l-1.23,3.07c-.41,1-.82,2.05-1.22,3.08l-2.41,6.16q-1.2,3.09-2.43,6.16l-.62,1.53c-.21.51-.41,1-.63,1.53-.42,1-.85,2-1.29,3.05l0,0,0,0h0a2,2,0,0,1-.92.38,3.91,3.91,0,0,1-.48.05c-.16,0-.32,0-.47,0a1,1,0,0,0-.45.06,1.92,1.92,0,0,0-.38.25,3.47,3.47,0,0,0-.59.68h0l-.54.68c-.18.22-.38.44-.57.65l-1.15,1.3-1.15,1.3-.57.66-.07.08-.06.08-.12.16c-.07.12-.13.24-.19.37s-.1.26-.14.39a4,4,0,0,0-.12.41.42.42,0,0,1,0,.1v.06h0v0l0,.2c0,.14,0,.28,0,.42C89,43.87,89,44.44,89,45l0,.42v.42a2.73,2.73,0,0,0,0,.41l.06.43s0,.07,0,.11v.1h0v0a.32.32,0,0,1-.1.18.5.5,0,0,1-.14.08.78.78,0,0,1-.25.07,1,1,0,0,1-.25,0h-.05l-.07,0-.16.12c-.11.09-.22.19-.35.28l-.09.06-.1.06-.19.12-.2.11-.2.1-.42.17-.44.13a3.55,3.55,0,0,1-.92.09,3.47,3.47,0,0,1-.91-.16,3.25,3.25,0,0,1-.43-.18l-.1,0-.11-.07a1.19,1.19,0,0,1-.18-.15,2.13,2.13,0,0,1-.5-.77,2.93,2.93,0,0,1-.21-.86c0-.15,0-.3,0-.45a3.37,3.37,0,0,1,0-.44,5,5,0,0,1,.17-.86l0-.1a.36.36,0,0,1,0-.11.67.67,0,0,1,.09-.21,2.59,2.59,0,0,1,.25-.39,4.74,4.74,0,0,1,.65-.62,8.73,8.73,0,0,1,.74-.5c.26-.15.52-.29.79-.42s.54-.24.82-.35.55-.2.84-.29l.42-.13.21-.07.11,0h.1l.11-.06.11-.09.21-.2a4,4,0,0,0,.39-.43c.25-.3.49-.61.73-.93.46-.63.9-1.28,1.33-1.94l.63-1,.3-.5.07-.12.07-.14c.05-.09.11-.17.16-.25a10.32,10.32,0,0,0,.6-1c.18-.34.36-.69.52-1l.47-1.08.48-1.07c.33-.71.67-1.42,1-2.12s.7-1.41,1.06-2.11l1.11-2.08c.37-.69.75-1.38,1.14-2.06s.77-1.37,1.17-2.05.79-1.36,1.2-2l.61-1,.62-1c.83-1.34,1.68-2.66,2.55-4,.43-.66.86-1.31,1.31-2q.33-.49.69-1l.18-.24a1.27,1.27,0,0,1,.12-.1H107Zm-20,37a2.12,2.12,0,0,0,.43-.74,3.19,3.19,0,0,0,.13-.44c0-.15.08-.3.11-.45a4.58,4.58,0,0,0,.09-.9,3.15,3.15,0,0,0,0-.44,1.64,1.64,0,0,0-.13-.41.78.78,0,0,0-.24-.33l-.17-.11-.09,0-.11,0a2.28,2.28,0,0,0-.94-.07,3.39,3.39,0,0,0-.93.26,3.7,3.7,0,0,0-.83.51,2.74,2.74,0,0,0-.63.73,3,3,0,0,0-.34.9,3.54,3.54,0,0,0-.07.47,2.43,2.43,0,0,0,0,.47,1.51,1.51,0,0,0,.14.44,1.29,1.29,0,0,0,.28.37,1.77,1.77,0,0,0,.81.43,2.73,2.73,0,0,0,1.81-.1A2.21,2.21,0,0,0,87,46.76Z" transform="translate(-3.99 -2.66)"/><path class="cls-1" d="M112.1,50.32a.41.41,0,0,1,.08.13.28.28,0,0,1,0,.18.32.32,0,0,1-.08.14l-.1.09-.2.11a2.25,2.25,0,0,1-.42.13,3.25,3.25,0,0,1-.43.08,5,5,0,0,1-.86,0,10.4,10.4,0,0,1-1.67-.28c-.54-.14-1.07-.31-1.6-.49l-.39-.13-.09,0-.11,0-.2-.08c-.26-.1-.52-.22-.77-.34s-.5-.27-.74-.42a6.23,6.23,0,0,1-.68-.5,3,3,0,0,1-.57-.66,1.57,1.57,0,0,1-.18-.42,3.1,3.1,0,0,1-.08-.42,8.27,8.27,0,0,1,0-1.65c0-.54.1-1.07.1-1.59,0-.13,0-.26,0-.39s0-.13,0-.19V43.4a1.51,1.51,0,0,0-.13-.33c-.06-.11-.12-.23-.19-.34a14.1,14.1,0,0,0-1-1.28c-.68-.84-1.4-1.66-2.07-2.52l-.25-.32-.12-.17c0-.07-.06-.13-.08-.19a2.16,2.16,0,0,0-.22-.36l-.22-.35-.42-.69-.11-.16a.43.43,0,0,0,0-.07h0l0,0a3.88,3.88,0,0,0-.31-.26,7.12,7.12,0,0,0-.64-.48,2.39,2.39,0,0,0-.34-.21,1.54,1.54,0,0,0-.34-.17l-.17-.06-.1,0-.06,0s0,0-.07,0h0l0,0a.18.18,0,0,0-.07,0l0-.06s0,0,0,0L95.8,35c-.14-.25-.25-.49-.38-.74-.47-1-.91-2-1.33-3l-.31-.74-.31-.75c-.2-.5-.41-1-.6-1.51-.79-2-1.54-4-2.26-6.06s-1.41-4.07-2.08-6.11c-.34-1-.67-2-1-3.07l-.48-1.54c-.16-.52-.32-1-.47-1.55a.83.83,0,0,1,0-.22.49.49,0,0,1,0-.12.21.21,0,0,1,.07-.14.18.18,0,0,1,.09,0h.09l.13.06a1.29,1.29,0,0,1,.16.17c.16.23.3.45.45.68.29.46.58.92.86,1.38.56.93,1.11,1.86,1.65,2.8,1.08,1.88,2.1,3.79,3.08,5.72S95.06,24.07,96,26s1.82,3.91,2.69,5.89c.21.49.43,1,.64,1.49.1.25.2.5.29.75l0,.1,0,.1,0,.1,0,.09a3.59,3.59,0,0,0,.15.37c.2.49.43,1,.66,1.47s.46,1,.7,1.45.48,1,.73,1.45c.12.24.25.47.38.71a4,4,0,0,0,.2.35,1,1,0,0,0,.1.17l.11.16c.17.22.32.45.47.67s.3.45.46.67a7.68,7.68,0,0,0,.5.63,2.47,2.47,0,0,0,.28.28,1.72,1.72,0,0,0,.31.24,3.17,3.17,0,0,0,.37.16l.38.15.77.31.76.35c.13.06.25.13.37.2a2.64,2.64,0,0,1,.35.23,2.4,2.4,0,0,1,.58.61,2.49,2.49,0,0,1,.33.77,3.14,3.14,0,0,1,.08.4,2,2,0,0,1,0,.42,7.35,7.35,0,0,1-.07.82c0,.26-.07.53-.1.79a5.32,5.32,0,0,0,0,.79,2.34,2.34,0,0,0,0,.38,1.2,1.2,0,0,0,.12.35,1,1,0,0,0,.26.24,1.33,1.33,0,0,0,.35.13,3,3,0,0,0,.8.07,7.34,7.34,0,0,0,.81-.05l.42,0c.14,0,.27,0,.43,0l.13,0,.1,0,0,0Zm-4.16-3.73a2.73,2.73,0,0,0-.32-.77,2.88,2.88,0,0,0-.23-.34,2.8,2.8,0,0,0-.28-.31,2.5,2.5,0,0,0-.7-.46,1.81,1.81,0,0,0-1.63.07,2.25,2.25,0,0,0-.67.56,2.11,2.11,0,0,0-.4.79,2.23,2.23,0,0,0,0,.89,2.55,2.55,0,0,0,.31.85,2.78,2.78,0,0,0,.57.71,2.06,2.06,0,0,0,.79.44,1.83,1.83,0,0,0,.9,0,2.46,2.46,0,0,0,.82-.34,2.3,2.3,0,0,0,.62-.58,1.58,1.58,0,0,0,.2-.36,1.64,1.64,0,0,0,.1-.38A2,2,0,0,0,107.94,46.59Z" transform="translate(-3.99 -2.66)"/><circle class="cls-1" cx="156.64" cy="28.48" r="28.48"/><circle class="cls-2" cx="156.64" cy="28.6" r="26.21"/><ellipse class="cls-1" cx="154.33" cy="12.25" rx="3.26" ry="3.57"/><circle class="cls-1" cx="146.55" cy="9.21" r="1.37"/><circle class="cls-1" cx="161.69" cy="8.79" r="2.21"/><path class="cls-1" d="M177.91,18.56l-1.22,1.57a9.29,9.29,0,0,1-4.21-1.57,9.36,9.36,0,0,1-2.56-4s1-1.19,1.16-1.36c1.14-1.45,3.56-1.46,5.52.07S179.05,17.11,177.91,18.56Z" transform="translate(-3.99 -2.66)"/><path class="cls-2" d="M177.32,18.52c-1,1.24-3,1.26-4.74-.09s-2.28-3.4-1.32-4.64,3.08-1.2,4.82.16S178.28,17.28,177.32,18.52Z" transform="translate(-3.99 -2.66)"/><ellipse class="cls-1" cx="173.4" cy="17.24" rx="3.34" ry="4.37" transform="translate(49.06 140.59) rotate(-52)"/><ellipse class="cls-2" cx="173.19" cy="17.5" rx="2.84" ry="3.89" transform="translate(48.77 140.53) rotate(-52)"/><rect class="cls-1" x="168.52" y="14.96" width="5.73" height="9.75" rx="2.86" transform="translate(44.56 -103.98) rotate(38)"/><rect class="cls-2" x="169.2" y="16.03" width="4.16" height="8" rx="2.08" transform="translate(44.66 -103.87) rotate(38)"/><rect class="cls-1" x="150.38" y="17.83" width="15.78" height="36.98" rx="7.89" transform="translate(51.93 -92.41) rotate(38)"/><rect class="cls-2" x="151.37" y="19.19" width="13.92" height="34.3" rx="6.96" transform="translate(51.95 -92.44) rotate(38)"/><ellipse class="cls-1" cx="150.05" cy="46.76" rx="4.38" ry="6.96" transform="translate(16.82 133.54) rotate(-52)"/><ellipse class="cls-2" cx="149.78" cy="47.1" rx="3.73" ry="6.19" transform="translate(16.45 133.46) rotate(-52)"/><path class="cls-1" d="M147.9,39.8s2.29-.44,5.75,2.26c3.62,2.84,3.58,5,3.58,5l12.08-15.46s.33-2.38-3.3-5.22c-2.76-2.15-5.45-2.45-6-2.07S147.9,39.8,147.9,39.8Z" transform="translate(-3.99 -2.66)"/><path class="cls-2" d="M149.36,39s1.84-.13,4.91,2.28a16,16,0,0,1,3.6,3.95l10.35-13.25s.3-2.12-2.93-4.64c-2.46-1.93-4.86-2.19-5.37-1.85S149.36,39,149.36,39Z" transform="translate(-3.99 -2.66)"/><polygon class="cls-1" points="157.96 33.11 157.55 31.2 155.73 30.46 157.43 29.47 157.57 27.52 159.03 28.82 160.94 28.35 160.15 30.15 161.18 31.81 159.23 31.62 157.96 33.11"/><polygon class="cls-1" points="152.55 33.26 152.15 32.17 151.03 31.88 151.95 31.16 151.88 30 152.84 30.66 153.93 30.23 153.6 31.35 154.34 32.25 153.18 32.29 152.55 33.26"/><polygon class="cls-1" points="153.89 36.4 153.62 35.52 152.73 35.24 153.49 34.71 153.48 33.78 154.22 34.34 155.1 34.04 154.8 34.92 155.35 35.66 154.43 35.65 153.89 36.4"/><circle class="cls-1" cx="220.72" cy="28.48" r="28.48"/><circle class="cls-2" cx="220.72" cy="28.6" r="26.21"/><path class="cls-1" d="M210.41,39l.32-.37-4.51-2.31-.4-1.69,6.62-8,1.36.84,11.4-13.85.69,2.44L215.74,28.84l.83.52L227.83,17a3.91,3.91,0,0,0-.66-3c-1-1.63-1.9-1.49-1.9-1.49l-11.59,14.3L212.32,26l-7.2,8.73.43,1.8Z" transform="translate(-3.99 -2.66)"/><polygon class="cls-2" points="207.05 36.08 208.66 33.63 206.73 35.92 207.05 36.08"/><polygon class="cls-2" points="206.73 35.92 208.66 33.63 212.64 27.57 212.09 27.23 212.58 26.7 211.75 26.18 221.9 13.32 221.21 10.88 209.81 24.74 208.45 23.9 201.83 31.92 202.22 33.6 206.73 35.92"/><polygon class="cls-1" points="208.66 33.63 213.38 28.02 212.64 27.57 208.66 33.63"/><polygon class="cls-2" points="212.09 27.23 212.64 27.57 213.03 26.98 212.58 26.7 212.09 27.23"/><polygon class="cls-4" points="213.48 29 212.99 27.98 222.93 14.67 221.61 11.45 210.18 26.25 208.83 25.41 202.42 33.14 207.36 37.16 213.48 29"/><polygon class="cls-1" points="217.82 30.62 213.25 27.61 223.51 14.33 222.29 12.12 211.07 26.51 209.72 25.66 202.97 33.82 210.32 38.52 217.82 30.62"/><polygon class="cls-1" points="212.2 28.43 217.56 31.02 215.63 32.03 216.63 32.83 215.5 33.2 215.75 33.78 214.97 33.47 214.97 34.69 214.48 34.57 214.74 35.9 213.12 36.14 213.54 37.33 212.19 36.73 212.59 37.63 211.66 38.22 212.03 39.04 209.5 38.45 207.03 36.05 212.2 28.43"/><polygon class="cls-4" points="209.37 27.39 214.29 30.46 212.78 30.96 213.78 31.75 212.65 32.13 212.9 32.7 211.46 32.14 212.12 33.61 210.95 33.43 211.89 34.81 210.06 34.84 210.68 36.23 209.34 35.64 209.74 36.54 208.7 36.88 209.17 37.94 204.21 34.31 209.37 27.39"/><path class="cls-1" d="M225.49,40.14s-1.75-6.62.31-7.52c.21-.1,3.41,5.22,4.36,5.15C231.46,37.67,227.58,42.65,225.49,40.14Z" transform="translate(-3.99 -2.66)"/><path class="cls-1" d="M214.32,45s-1.74-6.62.31-7.52c.22-.1,4.25,5.53,5.2,5.46C221.13,42.82,216.41,47.49,214.32,45Z" transform="translate(-3.99 -2.66)"/><path class="cls-1" d="M219.87,43.11s-1.7-7.26-.51-7.86c.75-.38,5.58,3.73,5.51,5A3.7,3.7,0,0,1,219.87,43.11Z" transform="translate(-3.99 -2.66)"/><path class="cls-1" d="M222.63,48.69c-8.89,3.86-10-3.44-10.4-4.19s.41.73,3.86,0c1.69-.36,1.84-.5,2.68-2,0,0-.62,1.16,3.35-.17a28.08,28.08,0,0,0,3.19-3.18c.94-.48,1.34,1.59,4,.16.43-.23,2.08-2.78,2.52-3,1.33-.72,2.34-.18,3.52-.84,1.71-1,1.77-2.41,2.34-2.85,2.11-1.64,5-2.59,6-.84,1.29,2.17.76,5.77-5.37,8.89S229.08,45.89,222.63,48.69Z" transform="translate(-3.99 -2.66)"/><path class="cls-2" d="M215.22,45.34s-1.72-5.08-.17-5.89c.16-.08,3.36,4,4.09,3.9C220.14,43.21,217,47.19,215.22,45.34Z" transform="translate(-3.99 -2.66)"/><path class="cls-2" d="M220.51,43.55s-1.44-6.11-.43-6.63c.63-.32,4.69,3.15,4.64,4.19A3.13,3.13,0,0,1,220.51,43.55Z" transform="translate(-3.99 -2.66)"/><path class="cls-2" d="M226.39,40.5s-1.72-5.08-.18-5.89c.16-.08,2.94,3.91,3.67,3.81C230.88,38.28,228.15,42.35,226.39,40.5Z" transform="translate(-3.99 -2.66)"/><path class="cls-1" d="M241.21,31.07s-5.8-4.69-6.86-3.88c-.67.51.93,6.65,2.08,7.13A3.72,3.72,0,0,0,241.21,31.07Z" transform="translate(-3.99 -2.66)"/><path class="cls-2" d="M241.32,31.84s-4.87-4-5.77-3.27c-.57.42.79,5.59,1.75,6A3.12,3.12,0,0,0,241.32,31.84Z" transform="translate(-3.99 -2.66)"/><path class="cls-1" d="M239.28,34.7s-10.94-9.71-14-7C225,28,231,37.5,230.17,39,229,41.09,241.67,40.16,239.28,34.7Z" transform="translate(-3.99 -2.66)"/><path class="cls-2" d="M237.41,35s-6.76-6.92-9.23-5c-.25.2,4,8,3.24,9.11C230.42,40.62,239,39.35,237.41,35Z" transform="translate(-3.99 -2.66)"/><path class="cls-1" d="M216.83,52.33a69.08,69.08,0,0,0,7.83-2.3,60.06,60.06,0,0,0,7.49-3.21,73.79,73.79,0,0,0,7.09-4,31.24,31.24,0,0,0,6-5.43l.18.12a22.63,22.63,0,0,1-5.71,6,57.66,57.66,0,0,1-7.17,4.14c-1.23.63-2.48,1.2-3.73,1.79A36,36,0,0,1,225,51a30.15,30.15,0,0,1-8.14,1.5Z" transform="translate(-3.99 -2.66)"/></svg>