<?xml version="1.0" encoding="utf-8"?>
<!-- Generator: Adobe Illustrator 23.1.1, SVG Export Plug-In . SVG Version: 6.00 Build 0)  -->
<svg version="1.1" id="Layer_1" xmlns="http://www.w3.org/2000/svg" xmlns:xlink="http://www.w3.org/1999/xlink" x="0px" y="0px"
	 viewBox="0 0 31.5 31.4" style="enable-background:new 0 0 31.5 31.4;" xml:space="preserve">
<style type="text/css">
	.st0{fill:#FFFFFF;}
</style>
<title>pawPrint_W</title>
<g>
	<path class="st0" d="M25.8,26.5c0,6.2-7.7,3.3-10.8,3.3c-3.4,0-10.1,2.7-10.1-3.2c0-4.9,3.7-6,5.1-9s2.5-5,5.2-5
		c3.8,0,4.6,2.6,5.9,5.2C22.4,20.4,25.8,22.5,25.8,26.5z"/>
	<ellipse transform="matrix(0.9357 -0.3527 0.3527 0.9357 -4.63 2.3971)" class="st0" cx="4.3" cy="13.9" rx="3.4" ry="4.8"/>
	<ellipse transform="matrix(0.1793 -0.9838 0.9838 0.1793 10.3473 25.2997)" class="st0" cx="20.3" cy="6.4" rx="5.6" ry="3.8"/>
	<ellipse transform="matrix(0.4627 -0.8865 0.8865 0.4627 2.3802 31.2155)" class="st0" cx="26.9" cy="13.6" rx="4.8" ry="3.4"/>
	<ellipse transform="matrix(0.9635 -0.2676 0.2676 0.9635 -1.3417 3.0499)" class="st0" cx="10.5" cy="6.4" rx="3.8" ry="5.4"/>
</g>
</svg>
