<?xml version="1.0" encoding="utf-8"?>
<!-- Generator: Adobe Illustrator 23.1.1, SVG Export Plug-In . SVG Version: 6.00 Build 0)  -->
<svg version="1.1" id="Layer_1" xmlns="http://www.w3.org/2000/svg" xmlns:xlink="http://www.w3.org/1999/xlink" x="0px" y="0px"
	 viewBox="0 0 176.6 172.5" style="enable-background:new 0 0 176.6 172.5;" xml:space="preserve">
<g>
	<path d="M146.9,148.3c0.1,35.5-44.5,19.1-62.1,19.1c-19.5,0-58.2,15.8-58.2-18.4c0-28.4,21.1-34.7,29.4-51.5
		c8.2-16.7,14.5-28.8,29.8-28.8c22.1,0,26.7,15.1,34,30.2C126.9,113.6,146.9,125.1,146.9,148.3z"/>
	<ellipse transform="matrix(0.9358 -0.3526 0.3526 0.9358 -25.313 12.8792)" cx="22.7" cy="75.9" rx="19.5" ry="27.7"/>
	<ellipse transform="matrix(0.1794 -0.9838 0.9838 0.1794 62.0421 140.4515)" cx="115.2" cy="33" rx="32.2" ry="21.8"/>
	<ellipse transform="matrix(0.4626 -0.8865 0.8865 0.4626 16.3407 175.8206)" cx="153.2" cy="74.4" rx="27.6" ry="19.4"/>
	<ellipse transform="matrix(0.9635 -0.2676 0.2676 0.9635 -6.7004 16.9122)" cx="58.7" cy="33" rx="21.8" ry="31.1"/>
</g>
</svg>
