<?xml version="1.0" encoding="utf-8"?>
<!-- Generator: Adobe Illustrator 23.1.1, SVG Export Plug-In . SVG Version: 6.00 Build 0)  -->
<svg version="1.1" id="Layer_1" xmlns="http://www.w3.org/2000/svg" xmlns:xlink="http://www.w3.org/1999/xlink" x="0px" y="0px"
	 viewBox="0 0 140 265" style="enable-background:new 0 0 140 265;" xml:space="preserve">
<style type="text/css">
	.st0{fill:url(#SVGID_1_);}
	.st1{fill:url(#SVGID_2_);}
	.st2{fill:url(#SVGID_3_);}
	.st3{fill:url(#SVGID_4_);}
	.st4{fill:url(#SVGID_5_);}
	.st5{fill:url(#SVGID_6_);}
	.st6{fill:url(#SVGID_7_);}
	.st7{fill:url(#SVGID_8_);}
	.st8{fill:url(#SVGID_9_);}
	.st9{fill:url(#SVGID_10_);}
</style>
<g>
	<g id="XMLID_24_">
		<g>
			<linearGradient id="SVGID_1_" gradientUnits="userSpaceOnUse" x1="39.1519" y1="101.8802" x2="97.8197" y2="122.2617">
				<stop  offset="0" style="stop-color:#FFFFFF"/>
				<stop  offset="1" style="stop-color:#514D4E"/>
			</linearGradient>
			<path class="st0" d="M135.8,7.8C135.8,7.8,135.8,7.8,135.8,7.8C135.8,7.8,135.8,7.8,135.8,7.8c0.1,0,0.2,0,0.2,0.1
				c0.1,0,0.2,0.1,0.3,0.2c0.2,0.2,0.3,0.4,0.3,0.6c0.1,0.2,0.1,0.5,0.1,0.8c0,0.5-0.1,1.1-0.2,1.6l0,0l-7,17
				c-2.4,5.6-4.7,11.3-7.1,16.9L108,78.7c-4.8,11.3-9.5,22.6-14.2,33.9l-3.5,8.5c-1.1,2.8-2.3,5.7-3.4,8.5
				c-2.2,5.6-4.5,11.2-6.6,16.8c-0.6,0.3-1.2,0.7-1.8,0.9c-0.7,0.3-1.4,0.5-2.2,0.7c-0.8,0.2-1.6,0.3-2.4,0.5
				c-0.8,0.1-1.6,0.4-2.5,0.6c-0.8,0.3-1.6,0.5-2.4,0.8c-0.1,0-0.2,0.1-0.3,0.1c-0.7,0.3-1.3,0.8-1.9,1.2c-0.7,0.5-1.3,1.1-1.9,1.7
				c-0.6,0.6-1.2,1.2-1.8,1.8c-1.1,1.1-2.3,2.2-3.4,3.4c-1.1,1.1-2.2,2.3-3.2,3.5l-6.4,7.1l-6.3,7.1c-1.1,1.2-2.1,2.4-3.2,3.6
				l-0.4,0.5c-0.1,0.2-0.3,0.3-0.4,0.5c-0.3,0.3-0.5,0.7-0.7,1c-0.4,0.7-0.8,1.5-1.2,2.2c-0.7,1.5-1.1,3.1-1.6,4.6
				c-0.1,0.2-0.1,0.4-0.2,0.5l0,0.1l0,0.1c0,0.1-0.1,0.2-0.1,0.2l0,0.2c-0.1,0.4-0.2,0.8-0.2,1.2c-0.1,0.8-0.2,1.6-0.3,2.4
				c-0.3,3.2-0.6,6.4-0.8,9.5l-0.2,2.4l-0.1,1.2c0,0.4,0,0.8,0,1.2c0,0.8,0.1,1.6,0.1,2.4c0.1,0.8,0.2,1.6,0.3,2.4
				c0,0.2,0,0.4,0.1,0.6c0,0.1,0,0.2,0,0.2c0,0,0,0.1,0,0.1l0,0c0,0,0,0,0,0c0,0-0.2,0.1-0.3,0.2c-0.5,0.2-1.3,0.3-2,0.3l-0.1,0
				l-0.1,0c0,0-0.1,0-0.1,0c-0.2,0-0.3,0-0.5,0.1c-0.3,0.1-0.5,0.2-0.7,0.3c-0.4,0.2-0.7,0.5-1.1,0.8c-0.6,0.5-1.2,1-1.8,1.5
				c-0.2,0.1-0.3,0.2-0.5,0.3l-0.5,0.3c-0.3,0.2-0.7,0.4-1,0.6c-0.3,0.2-0.7,0.4-1,0.6c-0.3,0.2-0.7,0.4-1,0.5
				c-0.7,0.3-1.4,0.6-2.1,0.9c-0.7,0.3-1.5,0.5-2.2,0.6c-1.5,0.3-3,0.5-4.5,0.4c-1.5-0.1-3-0.4-4.4-0.9c-0.7-0.3-1.4-0.6-2.1-0.9
				c-0.2-0.1-0.3-0.2-0.5-0.3c-0.1-0.1-0.3-0.2-0.4-0.3c-0.3-0.2-0.6-0.4-0.8-0.7c-1-1-1.8-2.3-2.3-3.7c-0.5-1.4-0.8-2.9-1-4.4
				c-0.1-0.8-0.1-1.5-0.1-2.3c0-0.8,0.1-1.5,0.2-2.3c0.2-1.5,0.5-3.1,0.9-4.6l0.2-0.6c0.1-0.2,0.1-0.3,0.2-0.5
				c0.1-0.3,0.3-0.7,0.5-1c0.3-0.7,0.8-1.3,1.2-1.9c0.9-1.2,2.1-2.2,3.3-3.2c1.2-1,2.5-1.8,3.9-2.6c2.7-1.6,5.6-2.9,8.4-4.2
				c1.4-0.6,2.9-1.2,4.4-1.8c0.7-0.3,1.5-0.5,2.2-0.8c0.4-0.1,0.8-0.2,1.1-0.4l0.6-0.2l0.6-0.2c0.3-0.2,0.6-0.3,0.8-0.5
				c0.2-0.2,0.5-0.3,0.7-0.5c0.4-0.4,0.8-0.7,1.2-1.1c0.8-0.8,1.5-1.6,2.2-2.4c1.4-1.7,2.7-3.4,4-5.2c2.6-3.5,5-7.1,7.4-10.7
				c1.2-1.8,2.4-3.6,3.5-5.5c0.6-0.9,1.1-1.8,1.7-2.8c0.1-0.2,0.3-0.5,0.4-0.7c0.1-0.2,0.2-0.5,0.4-0.7c0.3-0.4,0.6-0.9,0.9-1.3
				c1.2-1.8,2.4-3.7,3.4-5.6c1.1-1.9,2-3.9,3-5.8c0.9-2,1.8-4,2.7-5.9c0.9-2,1.8-3.9,2.7-5.9c1.9-3.9,3.8-7.8,5.7-11.7
				c2-3.9,4-7.7,6-11.5c2-3.8,4.1-7.7,6.2-11.5s4.2-7.6,6.3-11.4c2.1-3.8,4.3-7.6,6.4-11.3l6.5-11.3l6.5-11.3
				c4.3-7.5,8.7-15,13.3-22.4c2.3-3.7,4.6-7.4,7-11c1.2-1.8,2.4-3.6,3.7-5.3c0.3-0.4,0.7-0.9,1-1.3C135.4,8.1,135.5,7.9,135.8,7.8
				C135.8,7.8,135.8,7.8,135.8,7.8z M135.3,11.2l-0.2-0.1c-2.5,5.5-5,11.1-7.5,16.7c-2.5,5.6-5,11.1-7.5,16.7l-7.5,16.7l-7.4,16.7
				c-4.9,11.2-9.8,22.3-14.7,33.5c-4.8,11.2-9.6,22.4-14.2,33.7l0.2,0.1c5.2-11,10.2-22.2,15.2-33.3c5-11.1,9.8-22.3,14.7-33.5
				l7.3-16.8l7.2-16.8c2.4-5.6,4.8-11.2,7.2-16.8C130.5,22.4,132.9,16.8,135.3,11.2z M31.1,209.4c0.3-0.9,0.6-1.8,0.8-2.7
				c0.2-0.9,0.4-1.8,0.6-2.8c0.3-1.9,0.4-3.8,0.3-5.7c-0.1-1.9-0.5-3.9-1.5-5.7c-0.5-0.9-1.2-1.7-2.1-2.3c-0.4-0.3-0.9-0.6-1.4-0.8
				c-0.2-0.1-0.5-0.2-0.7-0.2c-0.2-0.1-0.5-0.1-0.7-0.2c-1.9-0.4-3.8-0.3-5.6,0c-1.8,0.4-3.6,1-5.2,1.9c-0.8,0.4-1.6,0.9-2.3,1.4
				c-0.7,0.5-1.5,1.1-2.1,1.7c-0.7,0.6-1.3,1.3-1.9,2c-0.6,0.7-1.1,1.4-1.6,2.2c-0.5,0.8-0.8,1.6-1.1,2.5c-0.3,0.8-0.6,1.7-0.8,2.6
				c-0.2,0.9-0.4,1.8-0.5,2.7c-0.1,0.9-0.1,1.8-0.1,2.7c0.1,0.9,0.2,1.8,0.6,2.7c0.3,0.9,0.8,1.7,1.4,2.5c1.2,1.5,2.9,2.6,4.6,3.3
				c1.7,0.7,3.6,1.2,5.5,1.3c1.9,0.1,3.9-0.1,5.8-0.8c1.9-0.7,3.6-1.8,5-3.3c0.7-0.7,1.3-1.5,1.8-2.4
				C30.3,211.2,30.7,210.3,31.1,209.4z"/>
			<path d="M128.1,28c-2.4,5.6-4.8,11.2-7.2,16.8l-7.2,16.8l-7.3,16.8c-4.9,11.2-9.8,22.4-14.7,33.5c-5,11.1-10,22.3-15.2,33.3
				l-0.2-0.1c4.6-11.3,9.4-22.5,14.2-33.7c4.8-11.2,9.8-22.4,14.7-33.5l7.4-16.7l7.5-16.7c2.5-5.6,5-11.1,7.5-16.7
				c2.5-5.6,5-11.1,7.5-16.7l0.2,0.1C132.9,16.8,130.5,22.4,128.1,28z"/>
			<path d="M80.5,146.2l-0.3,0.4c0-0.1,0.1-0.2,0.1-0.3C80.4,146.3,80.4,146.3,80.5,146.2z"/>
			<path d="M129.8,28.1c-2.3,5.7-4.5,11.4-6.8,17.1l-13.4,34.2c-4.5,11.4-9,22.8-13.5,34.1l-3.4,8.5c-1.2,2.8-2.3,5.7-3.5,8.5
				c-2.3,5.7-4.7,11.3-7.2,16.9l-0.1,0.3l-0.2,0.1c-0.7,0.6-1.5,1-2.4,1.4c-0.8,0.3-1.7,0.6-2.6,0.7c-0.9,0.1-1.7,0.2-2.6,0.2
				c-0.9,0-1.7-0.1-2.5-0.2c-0.8-0.1-1.7,0-2.4,0.3c-0.1,0-0.2,0.1-0.3,0.1l-0.1-0.2c0.1,0,0.2-0.1,0.3-0.1c0.8-0.3,1.6-0.6,2.4-0.8
				c0.8-0.3,1.7-0.5,2.5-0.6c0.8-0.1,1.6-0.3,2.4-0.5c0.8-0.2,1.5-0.4,2.2-0.7c0.6-0.3,1.2-0.6,1.8-0.9c0,0.1-0.1,0.2-0.1,0.3
				l0.3-0.4c-0.1,0-0.1,0.1-0.2,0.1c2.1-5.6,4.3-11.2,6.6-16.8c1.1-2.8,2.3-5.7,3.4-8.5l3.5-8.5c4.7-11.3,9.4-22.6,14.2-33.9
				l14.3-33.8c2.4-5.6,4.7-11.3,7.1-16.9l7-17l0.2,0.1L129.8,28.1z"/>
			<linearGradient id="SVGID_2_" gradientUnits="userSpaceOnUse" x1="37.4624" y1="102.0198" x2="97.8293" y2="122.9916">
				<stop  offset="0" style="stop-color:#514D4E"/>
				<stop  offset="0.9885" style="stop-color:#000000"/>
			</linearGradient>
			<path class="st1" d="M137,9.4c0,0.6-0.1,1.1-0.3,1.6l0,0l0,0l-0.2-0.1l0,0c0.1-0.5,0.2-1,0.2-1.6c0-0.3,0-0.5-0.1-0.8
				c-0.1-0.2-0.2-0.5-0.3-0.6c-0.1-0.1-0.2-0.1-0.3-0.2c-0.1,0-0.1,0-0.2-0.1c0,0,0,0,0,0c0,0,0,0,0,0c0,0,0,0-0.1,0
				c-0.2,0.1-0.4,0.3-0.6,0.5c-0.4,0.4-0.7,0.8-1,1.3c-1.3,1.7-2.5,3.5-3.7,5.3c-2.4,3.6-4.7,7.3-7,11c-4.6,7.4-8.9,14.9-13.3,22.4
				l-6.5,11.3l-6.5,11.3c-2.1,3.8-4.3,7.5-6.4,11.3c-2.1,3.8-4.2,7.6-6.3,11.4s-4.1,7.6-6.2,11.5c-2,3.8-4,7.7-6,11.5
				c-2,3.9-3.9,7.8-5.7,11.7c-0.9,2-1.8,3.9-2.7,5.9c-0.9,2-1.8,4-2.7,5.9c-0.9,2-1.9,3.9-3,5.8c-1.1,1.9-2.2,3.8-3.4,5.6
				c-0.3,0.4-0.6,0.9-0.9,1.3c-0.1,0.2-0.3,0.5-0.4,0.7c-0.1,0.3-0.3,0.5-0.4,0.7c-0.6,0.9-1.1,1.9-1.7,2.8
				c-1.2,1.8-2.3,3.7-3.5,5.5c-2.4,3.6-4.9,7.2-7.4,10.7c-1.3,1.8-2.6,3.5-4,5.2c-0.7,0.8-1.4,1.7-2.2,2.4c-0.4,0.4-0.8,0.8-1.2,1.1
				c-0.2,0.2-0.4,0.4-0.7,0.5c-0.2,0.2-0.5,0.3-0.8,0.5l-0.6,0.2l-0.6,0.2c-0.4,0.1-0.8,0.2-1.1,0.4c-0.7,0.2-1.5,0.5-2.2,0.8
				c-1.5,0.6-2.9,1.2-4.4,1.8c-2.9,1.3-5.8,2.6-8.4,4.2c-1.3,0.8-2.6,1.7-3.9,2.6c-1.2,1-2.3,2-3.3,3.2c-0.5,0.6-0.9,1.2-1.2,1.9
				c-0.2,0.3-0.3,0.7-0.5,1c-0.1,0.2-0.1,0.3-0.2,0.5L5,200.3c-0.4,1.5-0.7,3-0.9,4.6c-0.1,0.8-0.1,1.5-0.2,2.3c0,0.8,0,1.5,0.1,2.3
				c0.1,1.5,0.4,3,1,4.4c0.5,1.4,1.3,2.7,2.3,3.7c0.3,0.3,0.5,0.5,0.8,0.7c0.1,0.1,0.3,0.2,0.4,0.3c0.1,0.1,0.3,0.2,0.5,0.3
				c0.7,0.3,1.4,0.7,2.1,0.9c1.4,0.5,2.9,0.8,4.4,0.9c1.5,0.1,3-0.1,4.5-0.4c0.7-0.2,1.5-0.4,2.2-0.6c0.7-0.3,1.4-0.5,2.1-0.9
				c0.4-0.2,0.7-0.3,1-0.5c0.3-0.2,0.7-0.4,1-0.6c0.3-0.2,0.7-0.4,1-0.6l0.5-0.3c0.2-0.1,0.3-0.2,0.5-0.3c0.6-0.4,1.2-1,1.8-1.5
				c0.3-0.3,0.7-0.5,1.1-0.8c0.2-0.1,0.4-0.2,0.7-0.3c0.1,0,0.3-0.1,0.5-0.1c0,0,0.1,0,0.1,0l0.1,0l0.1,0c0.7,0,1.4-0.1,2-0.3
				c0.1-0.1,0.2-0.1,0.3-0.2c0,0,0,0,0,0l0,0l0,0c0,0,0,0,0,0l0,0c0,0,0-0.1,0-0.1c0-0.1,0-0.2,0-0.2c0-0.2,0-0.4-0.1-0.6
				c-0.1-0.8-0.2-1.6-0.3-2.4c-0.1-0.8-0.1-1.6-0.1-2.4c0-0.4,0-0.8,0-1.2l0.1-1.2l0.2-2.4c0.2-3.2,0.5-6.4,0.8-9.5
				c0.1-0.8,0.2-1.6,0.3-2.4c0.1-0.4,0.1-0.8,0.2-1.2l0-0.2c0-0.1,0.1-0.2,0.1-0.2l0-0.1l0-0.1c0.1-0.2,0.1-0.3,0.2-0.5
				c0.4-1.5,0.9-3.1,1.6-4.6c0.3-0.8,0.7-1.5,1.2-2.2c0.2-0.4,0.5-0.7,0.7-1c0.1-0.2,0.3-0.3,0.4-0.5l0.4-0.5c1-1.2,2.1-2.4,3.2-3.6
				l6.3-7.1l6.4-7.1c1.1-1.2,2.1-2.4,3.2-3.5c1.1-1.1,2.2-2.3,3.4-3.4c0.6-0.6,1.2-1.2,1.8-1.8c0.6-0.6,1.2-1.1,1.9-1.7
				c0.6-0.5,1.2-0.9,1.9-1.2l0.1,0.2c-0.6,0.3-1.2,0.8-1.8,1.2c-1.3,1.1-2.3,2.4-3.3,3.7l0,0c-1,1.3-2,2.5-3,3.7
				c-1,1.2-2.1,2.4-3.1,3.6l-6.3,7.2l-6.3,7.2c-1,1.2-2.1,2.4-3.1,3.6l-0.4,0.4c-0.1,0.1-0.2,0.3-0.3,0.4c-0.2,0.3-0.4,0.6-0.6,0.9
				c-0.4,0.6-0.7,1.3-1,2c-0.3,0.7-0.6,1.4-0.8,2.2c-0.2,0.7-0.4,1.5-0.7,2.3c-0.1,0.2-0.1,0.4-0.2,0.6l-0.1,0.2l-0.1,0.2
				c0,0,0,0,0,0.1l0,0.1c-0.1,0.3-0.1,0.7-0.2,1.1c-0.1,0.8-0.2,1.6-0.3,2.3c-0.3,3.1-0.6,6.3-0.8,9.5l-0.1,2.4l-0.1,1.2
				c0,0.4,0,0.8,0,1.1c0,0.8,0.1,1.5,0.1,2.3c0.1,0.8,0.2,1.5,0.3,2.4c0,0.2,0,0.4,0.1,0.6c0,0.1,0,0.2,0,0.3c0,0.1,0,0.1,0,0.2
				l0,0.1l0,0.1l0,0.1c-0.1,0.4-0.3,0.8-0.6,1c-0.2,0.2-0.5,0.3-0.7,0.5c-0.5,0.2-0.9,0.3-1.4,0.4c-0.4,0.1-0.9,0.1-1.4,0.1
				c-0.1,0-0.1,0-0.2,0c0,0,0,0,0,0c0,0,0,0,0,0c0,0,0,0,0,0c0,0,0,0-0.1,0c-0.1,0-0.2,0.1-0.3,0.2c-0.3,0.2-0.6,0.4-0.9,0.6
				c-0.6,0.5-1.2,1-1.9,1.5c-0.2,0.1-0.3,0.2-0.5,0.4l-0.5,0.3c-0.3,0.2-0.7,0.4-1,0.6c-0.4,0.2-0.7,0.4-1.1,0.6
				c-0.4,0.2-0.7,0.4-1.1,0.5c-0.7,0.3-1.5,0.7-2.3,0.9c-0.8,0.3-1.6,0.5-2.4,0.7c-1.6,0.4-3.3,0.5-5,0.4c-1.7-0.1-3.3-0.4-4.9-1
				c-0.8-0.3-1.5-0.6-2.3-1c-0.2-0.1-0.4-0.2-0.6-0.3c-0.2-0.1-0.4-0.2-0.6-0.4c-0.4-0.3-0.7-0.6-1-0.9c-1.2-1.2-2.1-2.8-2.7-4.3
				c-0.6-1.6-0.9-3.2-1-4.9c-0.1-0.8-0.1-1.6-0.1-2.5c0-0.8,0.1-1.6,0.2-2.5c0.2-1.6,0.5-3.2,1-4.8l0.2-0.6c0.1-0.2,0.1-0.4,0.2-0.6
				c0.2-0.4,0.3-0.8,0.5-1.2c0.4-0.8,0.9-1.5,1.4-2.1c1-1.3,2.3-2.4,3.5-3.4c1.3-1,2.6-1.9,4-2.7c1.4-0.8,2.8-1.6,4.3-2.3
				c1.4-0.7,2.9-1.3,4.4-1.9c1.5-0.6,3-1.1,4.5-1.6l2.3-0.7l1.1-0.3l0.6-0.2l0.3-0.1l0.1,0l0.1,0l0,0l0,0c0,0,0,0,0,0
				c0.2-0.1,0.4-0.2,0.6-0.4c0.2-0.1,0.4-0.3,0.6-0.5c0.4-0.3,0.8-0.7,1.2-1.1c0.7-0.8,1.5-1.6,2.1-2.4c1.4-1.7,2.7-3.4,4-5.1
				c2.6-3.5,5-7.1,7.3-10.7c1.2-1.8,2.3-3.7,3.5-5.5c0.6-0.9,1.1-1.8,1.7-2.8c0.1-0.2,0.3-0.5,0.4-0.7c0.1-0.3,0.3-0.5,0.4-0.7
				c0.3-0.5,0.6-0.9,0.9-1.4c1.2-1.8,2.3-3.6,3.3-5.6c1-1.9,2-3.8,2.9-5.8c0.9-2,1.7-4,2.6-6c0.9-2,1.8-4,2.7-6
				c1.8-4,3.7-7.9,5.6-11.8c1.9-3.9,3.9-7.8,5.9-11.6s4-7.7,6.1-11.5c2.1-3.8,4.2-7.6,6.3-11.4c2.1-3.8,4.3-7.6,6.4-11.3
				c2.2-3.8,4.4-7.5,6.6-11.2l3.4-5.6l3.4-5.5c4.6-7.4,9.3-14.7,14-22c2.4-3.6,4.8-7.3,7.2-10.9c1.2-1.8,2.5-3.6,3.8-5.3
				c0.3-0.4,0.7-0.9,1-1.3c0.2-0.2,0.4-0.4,0.6-0.6c0,0,0.1,0,0.1-0.1c0,0,0.1,0,0.1,0c0,0,0,0,0.1,0c0.1,0,0.1,0,0.2,0.1
				c0.1,0.1,0.3,0.1,0.4,0.2c0.2,0.2,0.3,0.5,0.4,0.8C137,8.9,137,9.2,137,9.4z"/>
			<path d="M35.1,213.3C35.1,213.3,35.1,213.3,35.1,213.3L35.1,213.3L35.1,213.3z"/>
			<linearGradient id="SVGID_3_" gradientUnits="userSpaceOnUse" x1="7.1005" y1="198.9929" x2="31.7177" y2="207.5451">
				<stop  offset="0" style="stop-color:#514D4E"/>
				<stop  offset="0.9885" style="stop-color:#000000"/>
			</linearGradient>
			<path class="st2" d="M11.4,194.4c-1.4,1.1-2.6,2.5-3.5,4c-0.9,1.5-1.4,3.3-1.9,5c-0.2,0.9-0.3,1.7-0.4,2.6
				c-0.1,0.9,0,1.8,0.1,2.6c0.1,0.9,0.4,1.7,0.7,2.5c0.4,0.8,0.9,1.5,1.5,2.1c1.2,1.2,2.8,1.9,4.4,2.4c3.3,1,6.8,0.9,9.7-0.4
				c1.5-0.7,2.8-1.6,3.8-2.8c1-1.2,1.8-2.6,2.3-4.1c0.3-0.8,0.5-1.6,0.8-2.5c0.2-0.8,0.4-1.7,0.6-2.5c0.3-1.7,0.6-3.4,0.6-5
				c0-0.8,0-1.7-0.2-2.5c-0.1-0.8-0.3-1.6-0.6-2.3c-0.3-0.7-0.7-1.3-1.3-1.8c-0.3-0.3-0.6-0.5-0.9-0.7c-0.2-0.1-0.3-0.2-0.5-0.2
				c-0.2-0.1-0.4-0.1-0.6-0.2c-1.6-0.5-3.3-0.6-5-0.4c-1.7,0.2-3.4,0.7-5,1.4C14.2,192.3,12.7,193.3,11.4,194.4z M13.2,192.4
				c0.7-0.5,1.5-1,2.3-1.4c1.6-0.8,3.4-1.5,5.2-1.9c1.8-0.4,3.7-0.4,5.6,0c0.2,0.1,0.5,0.1,0.7,0.2c0.2,0.1,0.5,0.2,0.7,0.2
				c0.5,0.2,0.9,0.5,1.4,0.8c0.9,0.6,1.5,1.4,2.1,2.3c1,1.8,1.4,3.8,1.5,5.7c0.1,1.9,0,3.8-0.3,5.7c-0.2,0.9-0.3,1.8-0.6,2.8
				c-0.2,0.9-0.5,1.8-0.8,2.7c-0.3,0.9-0.8,1.8-1.3,2.7c-0.5,0.9-1.1,1.7-1.8,2.4c-1.4,1.5-3.1,2.6-5,3.3c-1.9,0.7-3.9,0.9-5.8,0.8
				c-1.9-0.1-3.8-0.6-5.5-1.3c-1.7-0.7-3.4-1.8-4.6-3.3c-0.6-0.8-1.1-1.6-1.4-2.5c-0.3-0.9-0.5-1.8-0.6-2.7c-0.1-0.9,0-1.8,0.1-2.7
				c0.1-0.9,0.3-1.8,0.5-2.7c0.2-0.9,0.5-1.7,0.8-2.6c0.3-0.9,0.7-1.7,1.1-2.5c0.5-0.8,1-1.5,1.6-2.2c0.6-0.7,1.2-1.3,1.9-2
				C11.8,193.5,12.5,192.9,13.2,192.4z"/>
		</g>
		<g>
		</g>
	</g>
</g>
<g>
	<g>
		<g>
			<g id="XMLID_25_">
				<g>
					<linearGradient id="SVGID_4_" gradientUnits="userSpaceOnUse" x1="66.1979" y1="123.1238" x2="100.0063" y2="134.869">
						<stop  offset="0" style="stop-color:#514D4E"/>
						<stop  offset="0.9885" style="stop-color:#000000"/>
					</linearGradient>
					<path class="st3" d="M55.2,259.3C55.2,259.3,55.2,259.3,55.2,259.3C55.2,259.1,55.2,259.2,55.2,259.3c-0.1-0.1-0.2-0.2-0.3-0.4
						c-0.4-0.5-1-1-1.5-1.5l-1.6-1.5c-1.1-1-2.2-2.1-3.2-3.2c-1-1.2-2-2.4-2.7-3.8c-0.4-0.7-0.6-1.5-0.8-2.3
						c-0.1-0.8-0.1-1.7,0.2-2.5c0.3-0.8,0.7-1.5,1.2-2.1c0.5-0.6,1.1-1.2,1.6-1.7c1.1-1,2.4-1.9,3.6-2.8c1.2-0.9,2.5-1.7,3.7-2.5
						c0.5-0.3,1-0.7,1.5-1.1c0.7-0.5,1.4-1,2-1.6c0.6-0.5,1.1-1,1.5-1.5c0.5-0.6,0.9-1.1,1.4-1.7c0.8-1.2,1.5-2.5,1.9-3.9
						c0.4-1.4,0.6-2.8,0.5-4.3c0-0.7-0.1-1.4-0.3-2.2c-0.1-0.7-0.3-1.4-0.4-2c0,0,0-0.1,0-0.1c-0.4-1.4-0.8-2.9-1.2-4.3
						c-0.4-1.4-0.9-2.8-1.4-4.2l-0.7-2.1c-0.2-0.7-0.5-1.4-0.7-2.2c-0.2-0.8-0.2-1.6-0.2-2.3c0-0.8,0.1-1.5,0.2-2.3
						c0.2-1.5,0.5-3,0.9-4.5c0.3-1.5,0.7-2.9,1.1-4.4c0.4-1.4,0.8-2.9,1.1-4.3c0.1-0.3,0.2-0.8,0.3-1.1c0.1-0.4,0.2-0.7,0.3-1.1
						c0.2-0.7,0.5-1.4,0.8-2.1c0.5-1.4,1.1-2.8,1.6-4.2c1.1-2.8,2.2-5.6,3.3-8.3c1.1-2.8,2.3-5.5,3.5-8.3c1.2-2.8,2.4-5.5,3.6-8.2
						c0.3-0.7,0.7-1.4,1-2c0.1-0.2,0.2-0.3,0.3-0.5l0.3-0.5c0.1-0.1,0.2-0.3,0.3-0.5s0.2-0.3,0.3-0.5c0.7-1.3,1.3-2.6,2-4
						c1.3-2.7,2.5-5.4,3.7-8.2c4.8-10.9,9.5-22,14.1-33c4.6-11,9.2-22.1,13.8-33.2l6.9-16.6l6.9-16.6c2.3-5.5,4.5-11.1,6.7-16.7
						c1.1-2.8,2.1-5.6,3.1-8.4c0.5-1.4,1-2.8,1.4-4.2c0.1-0.3,0.1-0.7,0.1-1c0-0.1,0-0.3-0.1-0.4c0,0,0-0.1,0-0.1c0,0,0,0,0,0
						c0,0-0.1,0-0.2,0.1c-0.1,0.1-0.2,0.2-0.3,0.3c-0.2,0.2-0.4,0.5-0.6,0.8c-1.6,2.5-3.1,5.1-4.6,7.7c-1.5,2.6-3,5.2-4.5,7.8
						c-3,5.2-5.9,10.4-8.8,15.6c-5.8,10.5-11.6,21-17.3,31.4c-5.8,10.5-11.5,21-17.1,31.5l-4.2,7.9c-1.4,2.6-2.8,5.3-4.1,7.9
						c-2.7,5.3-5.4,10.7-7.8,16.1c-0.6,1.4-1.2,2.7-1.7,4c-0.1,0.3-0.2,0.6-0.3,0.9c0,0.1,0,0.1,0,0.2c0,0.1,0,0.1,0,0.1
						c0,0.1,0,0.1,0,0.2c0,0.1,0.2,0.5,0.4,0.9c0.2,0.4,0.3,0.8,0.5,1.2c0.3,0.8,0.4,1.6,0.6,2.3c0.1,0.8,0.2,1.5,0.3,2.3
						c0.2,1.5,0.2,3.1,0.2,4.6c0,0.8,0,1.5,0,2.3l0,0.3c0,0,0,0.1,0,0.2c0,0.1,0,0.2,0,0.2c0,0.3-0.1,0.5-0.1,0.7
						c-0.1,0.4-0.2,0.8-0.3,1.1l-1.4,4.3c-0.2,0.7-0.4,1.4-0.6,2.1c-0.2,0.7-0.4,1.4-0.4,2.2c0,0.4,0,0.8,0,1.1
						c0,0.4-0.1,0.7-0.2,1.1c-0.2,0.7-0.3,1.4-0.5,2.2c-1.2,5.8-2.2,11.7-3.5,17.6c-0.3,1.5-0.7,2.9-1,4.4c-0.4,1.5-0.8,2.9-1.3,4.4
						c-0.3,0.7-0.5,1.5-0.8,2.2c-0.3,0.7-0.7,1.5-1.2,2.2l-0.2,0.3l-0.2,0.3l-0.4,0.4c-0.3,0.3-0.5,0.6-0.8,0.8
						c-0.6,0.5-1.1,1.1-1.7,1.5c-2.4,2-4.8,3.7-7.2,5.5c-2.4,1.8-4.7,3.6-6.6,5.7c-0.5,0.5-0.9,1.1-1.3,1.6
						c-0.4,0.5-0.6,1.1-0.9,1.7c-0.4,1.3-0.6,2.7-0.7,4.1c-0.1,2.9,0.4,5.8,1,8.6c0.3,1.4,0.7,2.8,1.2,4.2c0.1,0.3,0.2,0.7,0.4,1
						l0.2,0.5l0.2,0.5l0.8,2.1c1.1,2.8,2.2,5.5,3.5,8.2c1.3,2.7,2.7,5.2,4.5,7.6c0.9,1.2,1.8,2.3,2.9,3.3c0.5,0.5,1.1,0.9,1.6,1.4
						c0.6,0.4,1.2,0.8,1.8,1.1c0.3,0.1,0.6,0.3,0.9,0.3c0.3,0.1,0.5,0.1,0.6,0c0,0,0.1,0,0.1-0.1C55.1,259.6,55.2,259.5,55.2,259.3
						C55.2,259.3,55.2,259.3,55.2,259.3C55.2,259.3,55.2,259.3,55.2,259.3C55.2,259.3,55.2,259.3,55.2,259.3z M56.6,259.5
						c0,0.3-0.1,0.5-0.3,0.8c-0.2,0.3-0.4,0.5-0.7,0.7c-0.3,0.1-0.6,0.2-0.9,0.2c-0.3,0-0.5,0-0.7-0.1c-0.4-0.1-0.8-0.2-1.2-0.4
						c-0.7-0.3-1.4-0.8-2.1-1.2c-0.6-0.5-1.3-0.9-1.8-1.5c-1.2-1-2.2-2.2-3.1-3.4c-1.9-2.4-3.4-5.1-4.8-7.8
						c-1.4-2.7-2.6-5.5-3.7-8.3l-0.8-2.1l-0.2-0.5c-0.1-0.2-0.2-0.4-0.2-0.5c-0.1-0.4-0.3-0.7-0.4-1.1c-0.5-1.4-0.9-2.9-1.3-4.4
						c-0.4-1.5-0.7-3-0.9-4.5c-0.2-1.5-0.3-3.1-0.3-4.6c0-1.6,0.2-3.2,0.7-4.8c0.3-0.8,0.6-1.6,1.1-2.3c0.5-0.7,1-1.3,1.5-1.9
						c2.1-2.4,4.5-4.2,6.9-6.1c2.4-1.8,4.8-3.6,7-5.5c0.6-0.5,1.1-1,1.6-1.5c0.3-0.2,0.5-0.5,0.8-0.8l0.4-0.4l0.1-0.2l0.1-0.2
						c0.3-0.5,0.6-1.1,0.9-1.7c0.3-0.6,0.5-1.3,0.7-2c0.9-2.8,1.4-5.7,2-8.6c1.1-5.8,1.9-11.8,3.1-17.7c0.1-0.7,0.3-1.5,0.5-2.2
						c0.1-0.4,0.2-0.7,0.3-1.1c0.1-0.4,0.3-0.7,0.5-1.1c0.3-0.7,0.5-1.5,0.7-2.2c0.2-0.7,0.4-1.5,0.7-2.2l1.4-4.3
						c0.1-0.3,0.2-0.7,0.3-1c0-0.2,0.1-0.3,0.1-0.4c0,0,0,0,0,0c0,0,0,0,0,0c0,0,0,0,0-0.1l0-0.3c0-0.7,0-1.5,0-2.2
						c0-1.5-0.1-2.9-0.3-4.4c-0.1-0.7-0.2-1.4-0.3-2.1c-0.1-0.7-0.3-1.4-0.5-2c-0.1-0.3-0.2-0.6-0.4-0.9l-0.2-0.5
						c0-0.1-0.1-0.2-0.1-0.3c0-0.1-0.1-0.2-0.1-0.4l-0.1-0.2l0-0.2c0-0.2,0-0.3,0-0.5c0-0.1,0-0.3,0-0.4c0-0.1,0-0.3,0.1-0.4
						c0.1-0.5,0.2-0.9,0.3-1.2c0.5-1.5,1.1-2.9,1.7-4.2c2.4-5.5,5-11,7.6-16.3l2-4l2-4c1.4-2.7,2.7-5.3,4.1-8
						C85.9,89.5,91.7,79,97.7,68.6c5.9-10.4,12-20.7,18.1-31c3.1-5.1,6.2-10.3,9.3-15.4l4.7-7.7c1.6-2.5,3.2-5.1,4.8-7.6
						c0.2-0.3,0.5-0.7,0.8-0.9c0.2-0.1,0.3-0.3,0.5-0.4c0.2-0.1,0.5-0.2,0.8-0.2c0.2,0,0.4,0.1,0.5,0.2c0.1,0.1,0.2,0.2,0.3,0.4
						c0.1,0.3,0.2,0.5,0.2,0.7c0,0.5,0,0.9-0.1,1.3c-0.4,1.5-0.8,2.9-1.2,4.4c-0.9,2.9-1.8,5.7-2.7,8.6c-1.9,5.7-3.8,11.4-5.8,17
						c-4,11.3-8.3,22.5-12.9,33.6c-4.6,11.1-9.3,22.1-14.2,33c-4.9,10.9-9.9,21.8-15,32.7c-1.3,2.7-2.6,5.4-4,8.1
						c-0.7,1.3-1.4,2.7-2.1,4c-0.1,0.2-0.2,0.3-0.3,0.5c-0.1,0.2-0.2,0.3-0.3,0.5l-0.3,0.5c-0.1,0.1-0.2,0.3-0.3,0.5
						c-0.4,0.6-0.7,1.3-1,1.9c-1.3,2.7-2.6,5.4-3.8,8.1c-1.2,2.7-2.4,5.5-3.6,8.2c-1.2,2.8-2.3,5.5-3.4,8.3
						c-0.6,1.4-1.1,2.8-1.6,4.2c-0.3,0.7-0.5,1.4-0.8,2.1c-0.1,0.3-0.2,0.7-0.3,1c-0.1,0.4-0.2,0.7-0.3,1.1
						c-0.3,1.5-0.8,2.9-1.2,4.4c-0.4,1.4-0.8,2.9-1.1,4.3c-0.3,1.4-0.7,2.9-0.9,4.4c-0.1,0.7-0.2,1.5-0.2,2.2c0,0.7,0,1.4,0.1,2.1
						c0.2,0.7,0.4,1.4,0.6,2.1l0.7,2.1c0.5,1.4,1,2.8,1.4,4.3c0.5,1.4,0.9,2.9,1.2,4.3c0.2,0.7,0.3,1.5,0.5,2.2
						c0.1,0.8,0.2,1.5,0.3,2.3c0.1,1.5-0.1,3.1-0.5,4.6c-0.4,1.5-1.2,2.9-2,4.2c-0.4,0.6-0.9,1.2-1.4,1.8c-0.5,0.6-1.1,1.2-1.6,1.7
						c-1.2,1-2.4,1.9-3.6,2.7c-1.2,0.9-2.5,1.7-3.7,2.5c-1.2,0.9-2.4,1.7-3.5,2.7c-0.5,0.5-1,1-1.5,1.6c-0.4,0.6-0.8,1.1-1,1.8
						c-0.2,0.6-0.2,1.3-0.1,1.9c0.1,0.7,0.4,1.3,0.7,1.9c0.6,1.3,1.6,2.4,2.5,3.5c1,1.1,2,2.1,3.1,3.1l1.7,1.5
						c0.6,0.5,1.1,1,1.7,1.6c0.1,0.2,0.3,0.3,0.4,0.6c0.1,0.1,0.1,0.3,0.2,0.5c0,0.2,0,0.2,0,0.3C56.7,259.4,56.6,259.5,56.6,259.5z
						"/>
					<linearGradient id="SVGID_5_" gradientUnits="userSpaceOnUse" x1="68.3802" y1="123.585" x2="98.6918" y2="134.1154">
						<stop  offset="0" style="stop-color:#FFFFFF"/>
						<stop  offset="1" style="stop-color:#514D4E"/>
					</linearGradient>
					<path class="st4" d="M55.2,259.3c0,0.1,0,0.2-0.1,0.2c0,0,0,0.1-0.1,0.1c-0.1,0-0.3,0.1-0.6,0c-0.3-0.1-0.6-0.2-0.9-0.3
						c-0.6-0.3-1.2-0.7-1.8-1.1c-0.6-0.4-1.1-0.9-1.6-1.4c-1-1-2-2.1-2.9-3.3c-1.7-2.4-3.2-4.9-4.5-7.6c-1.3-2.7-2.4-5.4-3.5-8.2
						l-0.8-2.1l-0.2-0.5l-0.2-0.5c-0.1-0.3-0.3-0.7-0.4-1c-0.5-1.4-0.9-2.8-1.2-4.2c-0.7-2.9-1.1-5.8-1-8.6c0-1.4,0.2-2.8,0.7-4.1
						c0.2-0.6,0.5-1.2,0.9-1.7c0.4-0.6,0.9-1.1,1.3-1.6c1.9-2.1,4.3-3.9,6.6-5.7c2.4-1.8,4.9-3.5,7.2-5.5c0.6-0.5,1.2-1,1.7-1.5
						c0.3-0.3,0.6-0.5,0.8-0.8l0.4-0.4l0.2-0.3l0.2-0.3c0.5-0.7,0.9-1.5,1.2-2.2c0.3-0.7,0.6-1.5,0.8-2.2c0.5-1.5,0.9-2.9,1.3-4.4
						c0.4-1.5,0.7-2.9,1-4.4c1.3-5.9,2.3-11.8,3.5-17.6c0.1-0.7,0.3-1.5,0.5-2.2c0.1-0.4,0.1-0.7,0.2-1.1c0-0.4,0-0.8,0-1.1
						c0-0.7,0.2-1.5,0.4-2.2c0.2-0.7,0.4-1.4,0.6-2.1l1.4-4.3c0.1-0.4,0.2-0.7,0.3-1.1c0.1-0.2,0.1-0.4,0.1-0.7c0-0.1,0-0.1,0-0.2
						c0-0.1,0-0.2,0-0.2l0-0.3c0-0.8,0-1.5,0-2.3c0-1.5-0.1-3-0.2-4.6c-0.1-0.8-0.2-1.5-0.3-2.3c-0.1-0.8-0.3-1.6-0.6-2.3
						c-0.1-0.4-0.3-0.8-0.5-1.2c-0.2-0.4-0.4-0.7-0.4-0.9c0-0.1,0-0.1,0-0.2c0,0,0-0.1,0-0.1c0-0.1,0-0.1,0-0.2
						c0.1-0.3,0.2-0.6,0.3-0.9c0.5-1.3,1.1-2.7,1.7-4c2.4-5.4,5.1-10.8,7.8-16.1c1.4-2.7,2.8-5.3,4.1-7.9l4.2-7.9
						c5.7-10.5,11.4-21.1,17.1-31.5c5.8-10.5,11.5-21,17.3-31.4c2.9-5.2,5.8-10.4,8.8-15.6c1.5-2.6,3-5.2,4.5-7.8
						c1.5-2.6,3-5.2,4.6-7.7c0.2-0.3,0.4-0.6,0.6-0.8c0.1-0.1,0.2-0.2,0.3-0.3c0.1-0.1,0.2-0.1,0.2-0.1c0,0,0,0,0,0c0,0,0,0,0,0.1
						c0,0.1,0.1,0.2,0.1,0.4c0,0.3,0,0.6-0.1,1c-0.4,1.4-0.9,2.8-1.4,4.2c-1,2.8-2,5.6-3.1,8.4c-2.1,5.6-4.4,11.1-6.7,16.7
						l-6.9,16.6l-6.9,16.6c-4.6,11.1-9.2,22.1-13.8,33.2c-4.6,11-9.3,22.1-14.1,33c-1.2,2.7-2.4,5.5-3.7,8.2c-0.6,1.3-1.3,2.7-2,4
						c-0.1,0.2-0.2,0.3-0.3,0.5s-0.2,0.3-0.3,0.5l-0.3,0.5c-0.1,0.2-0.2,0.3-0.3,0.5c-0.4,0.7-0.7,1.4-1,2c-1.3,2.7-2.5,5.5-3.6,8.2
						c-1.2,2.8-2.3,5.5-3.5,8.3c-1.1,2.8-2.3,5.6-3.3,8.3c-0.5,1.4-1.1,2.8-1.6,4.2c-0.3,0.7-0.5,1.4-0.8,2.1
						c-0.1,0.4-0.2,0.7-0.3,1.1c-0.1,0.4-0.2,0.8-0.3,1.1c-0.3,1.4-0.7,2.9-1.1,4.3c-0.4,1.4-0.8,2.9-1.1,4.4
						c-0.3,1.5-0.7,2.9-0.9,4.5c-0.1,0.8-0.2,1.5-0.2,2.3c0,0.8,0,1.6,0.2,2.3c0.2,0.8,0.4,1.5,0.7,2.2l0.7,2.1
						c0.5,1.4,1,2.8,1.4,4.2c0.4,1.4,0.9,2.8,1.2,4.3c0,0,0,0.1,0,0.1l-0.6,0.1c-0.2-0.7-0.4-1.4-0.6-2c-0.4-0.9-0.8-1.7-1.4-2.5
						c-0.6-0.8-1.2-1.5-1.9-2.1c-0.7-0.6-1.5-1.1-2.4-1.5c-0.8-0.4-1.7-0.7-2.6-0.9c-1.7-0.4-3.6-0.5-5.3-0.2
						c-0.9,0.1-1.7,0.4-2.5,0.7c-0.8,0.3-1.6,0.7-2.3,1.2c-0.7,0.5-1.4,1-2.1,1.6c-0.6,0.6-1.2,1.2-1.7,1.9c-1,1.4-1.8,2.9-2.4,4.5
						c-0.6,1.6-0.9,3.3-1,5c-0.1,1.7,0.1,3.5,0.7,5.1c0.6,1.6,1.6,3.1,2.9,4.3c1.3,1.2,2.9,2.1,4.5,2.8c1.7,0.7,3.5,1.1,5.3,1.1
						c1.9,0,3.8-0.5,5.4-1.4c0.4-0.2,0.8-0.5,1.2-0.8l0.1,0.2c-0.5,0.4-1,0.7-1.5,1.1c-1.2,0.8-2.5,1.7-3.7,2.5
						c-1.2,0.9-2.5,1.8-3.6,2.8c-0.6,0.5-1.1,1.1-1.6,1.7c-0.5,0.6-0.9,1.3-1.2,2.1c-0.3,0.8-0.3,1.7-0.2,2.5
						c0.1,0.8,0.4,1.6,0.8,2.3c0.7,1.4,1.7,2.6,2.7,3.8c1,1.1,2.1,2.2,3.2,3.2l1.6,1.5c0.5,0.5,1.1,1,1.5,1.5
						C55,259,55.1,259.2,55.2,259.3C55.2,259.3,55.2,259.3,55.2,259.3C55.2,259.3,55.2,259.3,55.2,259.3z M135.6,8.6l-0.2-0.1
						c-2.9,5.3-5.9,10.7-8.8,16.1c-2.9,5.4-5.8,10.7-8.7,16.1l-8.7,16.1l-8.6,16.1c-5.7,10.8-11.5,21.5-17.1,32.3
						c-5.7,10.8-11.2,21.7-16.7,32.6l0.2,0.1c6-10.6,11.8-21.3,17.6-32.1c5.8-10.7,11.5-21.5,17.2-32.3l8.5-16.2l8.5-16.2
						c2.8-5.4,5.7-10.8,8.4-16.2C130,19.5,132.8,14.1,135.6,8.6z"/>
					<path d="M55.2,259.2C55.2,259.3,55.2,259.3,55.2,259.2C55.2,259.3,55.2,259.3,55.2,259.2C55.2,259.2,55.2,259.1,55.2,259.2z"/>
					<linearGradient id="SVGID_6_" gradientUnits="userSpaceOnUse" x1="37.8549" y1="217.2749" x2="62.4697" y2="225.8262">
						<stop  offset="0" style="stop-color:#514D4E"/>
						<stop  offset="0.9885" style="stop-color:#000000"/>
					</linearGradient>
					<path class="st5" d="M62.5,225.8c-0.6,1.7-1.4,3.4-2.6,4.9c-0.8,1.1-1.9,2.1-3,3c-0.4,0.3-0.8,0.5-1.2,0.8
						c-1.7,0.9-3.6,1.4-5.4,1.4c-1.9,0-3.7-0.4-5.3-1.1c-1.7-0.7-3.2-1.6-4.5-2.8c-1.3-1.2-2.3-2.7-2.9-4.3
						c-0.6-1.6-0.8-3.4-0.7-5.1c0.1-1.7,0.5-3.4,1-5c0.6-1.6,1.4-3.1,2.4-4.5c0.5-0.7,1.1-1.3,1.7-1.9c0.6-0.6,1.3-1.1,2.1-1.6
						c0.7-0.5,1.5-0.8,2.3-1.2c0.8-0.3,1.7-0.5,2.5-0.7c1.7-0.3,3.6-0.2,5.3,0.2c0.9,0.2,1.8,0.5,2.6,0.9c0.8,0.4,1.6,0.9,2.4,1.5
						c0.7,0.6,1.4,1.3,1.9,2.1c0.5,0.8,1,1.6,1.4,2.5c0.3,0.7,0.5,1.3,0.6,2c0.3,1.1,0.4,2.3,0.4,3.5c0,0.9-0.1,1.9-0.2,2.8
						C63,224,62.8,224.9,62.5,225.8z M57.4,228.9c0.9-1.3,1.5-2.7,2.1-4.1c0.3-0.7,0.5-1.5,0.6-2.2c0.1-0.8,0.2-1.5,0.3-2.3
						c0.1-1.5-0.1-3-0.6-4.5c-0.9-2.9-3-5.4-6.1-6.4c-1.5-0.5-3.1-0.8-4.8-0.7c-1.6,0.1-3.2,0.6-4.7,1.3c-1.5,0.8-2.8,1.9-3.8,3.2
						c-1.1,1.3-1.9,2.8-2.4,4.4c-0.5,1.6-0.9,3.3-0.9,4.9c0,1.7,0.3,3.3,1,4.8c0.7,1.5,1.8,2.8,3.1,3.7c1.3,1,2.8,1.6,4.3,2
						c1.5,0.4,3.1,0.6,4.7,0.4c0.8-0.1,1.5-0.3,2.2-0.5c0.7-0.3,1.4-0.6,2-1C55.5,231.3,56.6,230.2,57.4,228.9z"/>
					<linearGradient id="SVGID_7_" gradientUnits="userSpaceOnUse" x1="90.5029" y1="69.5172" x2="111.8677" y2="76.9394">
						<stop  offset="0" style="stop-color:#514D4E"/>
						<stop  offset="0.9885" style="stop-color:#000000"/>
					</linearGradient>
					<path class="st6" d="M135.4,8.5l0.2,0.1c-2.8,5.4-5.6,10.8-8.4,16.3c-2.8,5.4-5.6,10.8-8.4,16.2l-8.5,16.2l-8.5,16.2
						c-5.7,10.8-11.4,21.6-17.2,32.3C78.8,116.6,73,127.3,67,137.9l-0.2-0.1c5.4-10.9,11-21.8,16.7-32.6
						c5.7-10.8,11.4-21.6,17.1-32.3l8.6-16.1l8.7-16.1c2.9-5.4,5.8-10.7,8.7-16.1C129.5,19.2,132.4,13.9,135.4,8.5z"/>
				</g>
				<g>
				</g>
			</g>
		</g>
	</g>
	
		<linearGradient id="SVGID_8_" gradientUnits="userSpaceOnUse" x1="69.1852" y1="124.1675" x2="83.8093" y2="124.1675" gradientTransform="matrix(0.9446 0.3282 -0.3282 0.9446 47.1832 -14.3767)">
		<stop  offset="0" style="stop-color:#514D4E"/>
		<stop  offset="0.9885" style="stop-color:#000000"/>
	</linearGradient>
	<circle class="st7" cx="78.7" cy="128" r="7.3"/>
	
		<linearGradient id="SVGID_9_" gradientUnits="userSpaceOnUse" x1="71.3788" y1="124.1675" x2="81.6157" y2="124.1675" gradientTransform="matrix(0.9446 0.3282 -0.3282 0.9446 47.1832 -14.3767)">
		<stop  offset="0" style="stop-color:#FFFFFF"/>
		<stop  offset="1" style="stop-color:#514D4E"/>
	</linearGradient>
	<circle class="st8" cx="78.7" cy="128" r="5.1"/>
	
		<linearGradient id="SVGID_10_" gradientUnits="userSpaceOnUse" x1="74.5473" y1="124.1675" x2="78.4471" y2="124.1675" gradientTransform="matrix(0.9446 0.3282 -0.3282 0.9446 47.1832 -14.3767)">
		<stop  offset="0" style="stop-color:#514D4E"/>
		<stop  offset="0.9885" style="stop-color:#000000"/>
	</linearGradient>
	<circle class="st9" cx="78.7" cy="128" r="1.9"/>
</g>
</svg>
