<svg id="Layer_1" data-name="Layer 1" xmlns="http://www.w3.org/2000/svg" xmlns:xlink="http://www.w3.org/1999/xlink" viewBox="0 0 186.56 268.93"><defs><style>.cls-1{fill:url(#linear-gradient);}.cls-2{fill:#141f44;}.cls-3{fill:#010101;}.cls-4{fill:url(#linear-gradient-2);}.cls-5{fill:url(#linear-gradient-3);}.cls-6{fill:url(#linear-gradient-4);}.cls-7{fill:url(#linear-gradient-5);}</style><linearGradient id="linear-gradient" x1="38.05" y1="114.33" x2="107.31" y2="135.38" gradientUnits="userSpaceOnUse"><stop offset="0" stop-color="#fff"/><stop offset="1" stop-color="#524e4f"/></linearGradient><linearGradient id="linear-gradient-2" x1="73.18" y1="150.74" x2="105.27" y2="131.52" xlink:href="#linear-gradient"/><linearGradient id="linear-gradient-3" x1="-53.23" y1="-779.87" x2="-36.19" y2="-779.87" gradientTransform="translate(523.91 790.92) rotate(-30.92)" gradientUnits="userSpaceOnUse"><stop offset="0" stop-color="#524e4f"/><stop offset="0.99" stop-color="#010101"/></linearGradient><linearGradient id="linear-gradient-4" x1="-50.68" y1="-779.87" x2="-38.75" y2="-779.87" gradientTransform="translate(523.91 790.92) rotate(-30.92)" xlink:href="#linear-gradient"/><linearGradient id="linear-gradient-5" x1="-46.98" y1="-779.87" x2="-42.44" y2="-779.87" xlink:href="#linear-gradient-3"/></defs><title>scissors</title><path class="cls-1" d="M38.38,244.14a.48.48,0,0,1,0,.12v.05l0,0a1.26,1.26,0,0,1-.33.21,5.93,5.93,0,0,1-2.27.45h-.44a2.47,2.47,0,0,0-.58.13,4.28,4.28,0,0,0-.83.42,11,11,0,0,0-1.19,1c-.72.63-1.38,1.25-2.06,1.79q-.26.21-.51.39l-.56.38c-.37.26-.75.5-1.13.75s-.77.46-1.15.7-.79.44-1.19.64a25.33,25.33,0,0,1-2.43,1.12,24.25,24.25,0,0,1-2.53.85,19.4,19.4,0,0,1-5.24.7,17.6,17.6,0,0,1-5.19-.83,19.23,19.23,0,0,1-2.48-1c-.21-.09-.38-.19-.56-.28a5.58,5.58,0,0,1-.52-.32,6.43,6.43,0,0,1-1-.77,12,12,0,0,1-2.85-4.26A18.92,18.92,0,0,1,2,241.27a21.65,21.65,0,0,1-.19-2.67,26.76,26.76,0,0,1,.08-2.69,33.45,33.45,0,0,1,.84-5.35l.16-.66c.07-.2.11-.4.18-.6a11,11,0,0,1,.48-1.19,14.49,14.49,0,0,1,1.34-2.23A23.24,23.24,0,0,1,8.6,222,42.64,42.64,0,0,1,13,218.77a87,87,0,0,1,9.64-5.25c1.65-.8,3.32-1.58,5-2.3.85-.37,1.7-.71,2.57-1l1.29-.48.66-.22.69-.23a7.55,7.55,0,0,0,.93-.58c.27-.21.52-.42.76-.64.49-.44.94-.91,1.38-1.38.87-1,1.68-1.95,2.46-2.95,1.57-2,3-4.09,4.46-6.19,2.85-4.21,5.55-8.49,8.18-12.83q2-3.25,3.86-6.55c.63-1.11,1.26-2.21,1.86-3.34q.24-.42.45-.87c.14-.27.26-.54.42-.81.29-.54.61-1.07.94-1.61,1.32-2.16,2.6-4.39,3.74-6.67s2.2-4.6,3.2-6.94,1.92-4.71,2.88-7,1.93-4.67,2.92-7q3-7,6.15-13.86t6.45-13.71c2.2-4.56,4.4-9.11,6.65-13.63s4.52-9,6.81-13.56,4.61-9,6.94-13.49l7-13.47,7-13.44c4.72-8.94,9.48-17.88,14.44-26.7,2.47-4.41,5-8.8,7.63-13.12,1.31-2.16,2.65-4.3,4.08-6.39.36-.51.73-1,1.12-1.51a4.43,4.43,0,0,1,.63-.66l.07,0h0l.2,0a1.07,1.07,0,0,1,.36.21,1.6,1.6,0,0,1,.44.74,3.83,3.83,0,0,1,.12.9A7.57,7.57,0,0,1,147.24,4l-7.39,20.08c-2.49,6.68-5,13.37-7.5,20l-15.16,40q-7.62,20-15,40.08l-3.68,10c-1.21,3.35-2.43,6.7-3.62,10.06C92.5,151,90.18,157.63,88,164.29a7.51,7.51,0,0,1-1.62,1.34,19.74,19.74,0,0,1-2.56,1c-.88.26-1.92.54-2.86.74s-4.35,0-6.31,1.23a10.88,10.88,0,0,0-2.24,1.57c-.25.22-1.05,1.17-2.05,2.38-1.89,2.3-4.47,5.54-5.28,6.45-1.24,1.38-2.44,2.74-3.62,4.17l-7.36,8.6L47,200.38q-1.76,2.15-3.5,4.33l-.44.56c-.15.19-.3.39-.44.59-.28.41-.54.82-.78,1.25a22.4,22.4,0,0,0-1.25,2.62A40.49,40.49,0,0,0,39,215.16c-.06.22-.11.44-.17.63l-.05.14,0,.13c0,.09-.06.19-.08.28l0,.21c-.11.53-.15,1-.21,1.46-.1,1-.17,1.88-.23,2.81-.24,3.72-.4,7.42-.51,11.14l-.07,2.79v1.41c0,.48,0,1,0,1.44,0,1,.14,1.91.27,2.85s.29,1.87.43,2.76c0,.22.07.44.09.64S38.37,244.05,38.38,244.14ZM145.88,4.32l-.27-.11c-2.71,6.58-5.36,13.18-8,19.76s-5.3,13.2-7.94,19.8l-7.93,19.8-7.86,19.82c-5.2,13.23-10.44,26.45-15.56,39.72s-10.16,26.56-15,39.92l.27.11q8.3-19.65,16.15-39.48C105,110.45,110.11,97.2,115.29,84L123,64.08l7.67-19.9c2.55-6.64,5.12-13.26,7.63-19.91S143.38,11,145.88,4.32ZM33.56,239.91c.31-1,.59-2.11.82-3.18s.39-2.15.53-3.23a29.19,29.19,0,0,0,.09-6.61,15.78,15.78,0,0,0-2.06-6.54,8.66,8.66,0,0,0-2.5-2.62,8,8,0,0,0-1.62-.82c-.29-.1-.58-.18-.86-.25s-.55-.13-.83-.18a15.89,15.89,0,0,0-6.56.28,22.8,22.8,0,0,0-5.94,2.41A25.33,25.33,0,0,0,9.58,223a22.5,22.5,0,0,0-2.11,2.36A19.39,19.39,0,0,0,5.75,228a15.5,15.5,0,0,0-1.21,2.92c-.3,1-.57,2-.78,3a23.39,23.39,0,0,0-.47,3.13,16.1,16.1,0,0,0,0,3.18,11.12,11.12,0,0,0,.78,3.14,10.07,10.07,0,0,0,1.72,2.81,13.77,13.77,0,0,0,5.48,3.65,19.56,19.56,0,0,0,6.5,1.32A16.59,16.59,0,0,0,24.51,250a15.13,15.13,0,0,0,5.69-4,16,16,0,0,0,2-2.88A17.62,17.62,0,0,0,33.56,239.91Z" transform="translate(0 0)"/><path class="cls-2" d="M145.88,4.32c-2.5,6.66-5,13.3-7.56,20s-5.08,13.27-7.63,19.91L123,64.08,115.29,84c-5.18,13.24-10.34,26.49-15.61,39.7S89.06,150,83.53,163.14l-.27-.11q7.29-20,15-39.92c5.12-13.27,10.36-26.49,15.56-39.72l7.86-19.82,7.93-19.8c2.64-6.6,5.26-13.21,7.94-19.8s5.33-13.18,8-19.76Z" transform="translate(0 0)"/><path class="cls-3" d="M88.24,164.09l-.38.51.1-.31A2.83,2.83,0,0,1,88.24,164.09Z" transform="translate(0 0)"/><path class="cls-2" d="M75.17,169.24a10.61,10.61,0,0,0-2.33,1.68A20.28,20.28,0,0,0,70.9,173l-.58-.46c1-1.21,1.8-2.16,2.05-2.38a10.88,10.88,0,0,1,2.24-1.57c2-1.27,5.38-1,6.31-1.23s2-.48,2.86-.74a19.74,19.74,0,0,0,2.56-1A7.51,7.51,0,0,0,88,164.29l-.1.31.38-.51a2.83,2.83,0,0,0-.28.2c2.22-6.66,4.54-13.3,6.9-19.92,1.19-3.36,2.41-6.71,3.62-10.06l3.68-10q7.45-20.07,15-40.08l15.16-40c2.53-6.68,5-13.37,7.5-20L147.24,4a7.57,7.57,0,0,0,.22-1.83,3.83,3.83,0,0,0-.12-.9,1.6,1.6,0,0,0-.44-.74l.18-.22h0a1.76,1.76,0,0,1,.53.87,4.06,4.06,0,0,1,.13,1,7.25,7.25,0,0,1-.24,1.91h0l-7.22,20.15c-2.38,6.73-4.77,13.45-7.11,20.18L119.12,84.89q-7,20.22-14.19,40.37l-3.63,10.07c-1.22,3.35-2.43,6.71-3.68,10-2.47,6.69-5,13.36-7.61,20l-.14.34-.23.17h0a12.49,12.49,0,0,1-5.7,2.62,20.93,20.93,0,0,1-3,.36,26.18,26.18,0,0,1-3-.11A5.48,5.48,0,0,0,75.17,169.24Z" transform="translate(0 0)"/><path class="cls-2" d="M32.44,208.22a6.26,6.26,0,0,0,.66-.44,8.85,8.85,0,0,0,.69-.58c.44-.4.87-.85,1.29-1.31.84-.92,1.62-1.9,2.39-2.89,1.53-2,3-4.06,4.38-6.15,2.81-4.19,5.47-8.49,8-12.84q1.94-3.25,3.79-6.56c.61-1.1,1.22-2.21,1.8-3.31.14-.28.28-.56.4-.82s.29-.6.44-.89c.31-.58.64-1.13,1-1.68,1.29-2.17,2.5-4.35,3.6-6.61s2.1-4.56,3.07-6.89,1.84-4.68,2.77-7.05,1.88-4.71,2.85-7.06q2.91-7,6-14c2.06-4.63,4.18-9.24,6.32-13.83s4.37-9.14,6.59-13.69,4.5-9.08,6.8-13.59,4.61-9,7-13.51,4.75-8.94,7.19-13.38l3.67-6.65,3.73-6.62c5-8.81,10.13-17.54,15.32-26.24,2.61-4.34,5.22-8.68,7.91-13,1.35-2.14,2.69-4.29,4.15-6.37.36-.52.73-1,1.14-1.53a4.51,4.51,0,0,1,.68-.71A.46.46,0,0,1,146.2,0l.12,0h.07l.25.07a1.22,1.22,0,0,1,.44.26l-.18.22a1.07,1.07,0,0,0-.36-.21l-.2,0h0l-.07,0a4.43,4.43,0,0,0-.63.66c-.39.48-.76,1-1.12,1.51-1.43,2.09-2.77,4.23-4.08,6.39-2.63,4.32-5.16,8.71-7.63,13.12-5,8.82-9.72,17.76-14.44,26.7l-7,13.44-7,13.47q-3.5,6.73-6.94,13.49t-6.81,13.56c-2.25,4.52-4.45,9.07-6.65,13.63s-4.35,9.12-6.45,13.71-4.17,9.21-6.15,13.86c-1,2.32-2,4.65-2.92,7s-1.87,4.7-2.88,7-2,4.66-3.2,6.94-2.42,4.51-3.74,6.67c-.33.54-.65,1.07-.94,1.61-.16.27-.28.54-.42.81s-.29.59-.45.87c-.6,1.13-1.23,2.23-1.86,3.34Q53,181.44,51,184.69c-2.63,4.34-5.33,8.62-8.18,12.83-1.43,2.1-2.89,4.18-4.46,6.19-.78,1-1.59,2-2.46,2.95-.44.47-.89.94-1.38,1.38-.24.22-.49.43-.76.64a7.55,7.55,0,0,1-.93.58l-.69.23-.66.22-1.29.48c-.87.32-1.72.66-2.57,1-1.7.72-3.37,1.5-5,2.3A87,87,0,0,0,13,218.77,42.64,42.64,0,0,0,8.6,222a23.24,23.24,0,0,0-3.68,3.88,14.49,14.49,0,0,0-1.34,2.23,11,11,0,0,0-.48,1.19c-.07.2-.11.4-.18.6l-.16.66a33.45,33.45,0,0,0-.84,5.35,26.76,26.76,0,0,0-.08,2.69A21.65,21.65,0,0,0,2,241.27a18.92,18.92,0,0,0,1.32,5.12,12,12,0,0,0,2.85,4.26,6.43,6.43,0,0,0,1,.77,5.58,5.58,0,0,0,.52.32c.18.09.35.19.56.28a19.23,19.23,0,0,0,2.48,1,17.6,17.6,0,0,0,5.19.83,19.4,19.4,0,0,0,5.24-.7,24.25,24.25,0,0,0,2.53-.85,25.33,25.33,0,0,0,2.43-1.12c.4-.2.79-.43,1.19-.64s.77-.45,1.15-.7.76-.49,1.13-.75l.56-.38q.26-.18.51-.39c.68-.54,1.34-1.16,2.06-1.79a11,11,0,0,1,1.19-1,4.28,4.28,0,0,1,.83-.42,2.47,2.47,0,0,1,.58-.13h.44a5.93,5.93,0,0,0,2.27-.45,1.26,1.26,0,0,0,.33-.21l0,0h0v0s0,0,0-.05,0,0,0,0v-.05a.48.48,0,0,0,0-.12c0-.09,0-.18,0-.29s-.06-.42-.09-.64c-.14-.89-.31-1.83-.43-2.76s-.23-1.9-.27-2.85c0-.48,0-1,0-1.44v-1.41l.07-2.79c.11-3.72.27-7.42.51-11.14.06-.93.13-1.86.23-2.81.06-.47.1-.93.21-1.46l0-.21c0-.09,0-.19.08-.28l0-.13.05-.14c.06-.19.11-.41.17-.63a40.49,40.49,0,0,1,1.64-5.43,22.4,22.4,0,0,1,1.25-2.62c.24-.43.5-.84.78-1.25.14-.2.29-.4.44-.59l.44-.56q1.74-2.19,3.5-4.33l7.06-8.6,7.36-8.6c1.18-1.43,2.38-2.79,3.62-4.17.81-.91,3.39-4.15,5.28-6.45l.58.46a26.29,26.29,0,0,0-1.69,2.38l0,0c-1.09,1.5-2.18,3-3.3,4.48s-2.29,2.92-3.46,4.35l-7,8.62-7,8.63c-1.16,1.44-2.32,2.89-3.46,4.33l-.41.54c-.13.18-.26.35-.38.53-.25.36-.48.73-.7,1.11a20.18,20.18,0,0,0-1.12,2.4c-.32.83-.61,1.68-.85,2.55s-.46,1.75-.68,2.67c-.06.23-.12.46-.2.71l-.06.19-.07.19a.11.11,0,0,1,0,.06l0,.13c-.07.38-.12.85-.17,1.29-.09.9-.16,1.82-.22,2.74-.23,3.67-.38,7.37-.49,11.07l-.06,2.76v1.38c0,.45,0,.89,0,1.34,0,.89.13,1.79.25,2.68s.29,1.79.43,2.73c0,.24.08.48.1.74s0,.26,0,.4v.5a2,2,0,0,1-.61,1.2,3.28,3.28,0,0,1-.83.56,6.73,6.73,0,0,1-1.57.49,8.12,8.12,0,0,1-1.57.15H35.5s-.06,0-.1,0a2.44,2.44,0,0,0-.41.22,8.72,8.72,0,0,0-1,.78c-.67.6-1.37,1.25-2.14,1.86-.19.15-.39.29-.6.44l-.59.4c-.39.28-.79.53-1.19.78s-.82.49-1.22.74-.84.47-1.27.68c-.84.44-1.72.83-2.61,1.2s-1.81.65-2.74.91a21.47,21.47,0,0,1-5.76.74,19.92,19.92,0,0,1-5.74-.93,23.27,23.27,0,0,1-2.7-1.06l-.68-.34c-.22-.13-.45-.26-.66-.41a10.23,10.23,0,0,1-1.2-.95,14.24,14.24,0,0,1-3.29-4.92A21.63,21.63,0,0,1,.2,241.5a25.32,25.32,0,0,1-.2-2.87c0-1,0-1.91.1-2.87A35.58,35.58,0,0,1,1,230.14l.16-.69c.08-.24.14-.49.22-.72A10.62,10.62,0,0,1,2,227.34a15.24,15.24,0,0,1,1.53-2.52,24.55,24.55,0,0,1,4-4.17A45.08,45.08,0,0,1,12,217.29c1.58-1,3.21-1.95,4.87-2.83s3.34-1.68,5.06-2.41,3.47-1.39,5.23-2l2.63-.93,1.33-.45.66-.23.33-.1.17-.06.09,0,0,0h0Z" transform="translate(0 0)"/><path class="cls-3" d="M38.4,244.29s0,0,0,.05v0h0S38.39,244.29,38.4,244.29Z" transform="translate(0 0)"/><path class="cls-2" d="M15,219.89a22.65,22.65,0,0,0-5.11,3.46A18.57,18.57,0,0,0,6,228.16,19.86,19.86,0,0,0,4.08,234a23.2,23.2,0,0,0-.35,3.09,15.64,15.64,0,0,0,.21,3.07,9.94,9.94,0,0,0,1,2.86,8.63,8.63,0,0,0,1.78,2.36A11.79,11.79,0,0,0,11.9,248a16.33,16.33,0,0,0,11.31-.94,12.87,12.87,0,0,0,4.29-3.41,14.19,14.19,0,0,0,2.55-4.85c.29-1,.55-1.92.77-2.89s.43-1.95.58-2.94a30.85,30.85,0,0,0,.42-5.89,16.91,16.91,0,0,0-.3-2.86,10,10,0,0,0-.84-2.63,6.3,6.3,0,0,0-1.57-2.1,4.76,4.76,0,0,0-1.09-.71,5.8,5.8,0,0,0-.62-.27l-.69-.22a14,14,0,0,0-5.88-.28A20.48,20.48,0,0,0,15,219.89ZM9.58,223a25.33,25.33,0,0,1,5.05-3.83,22.8,22.8,0,0,1,5.94-2.41,15.89,15.89,0,0,1,6.56-.28c.28.05.55.11.83.18s.57.15.86.25a8,8,0,0,1,1.62.82,8.66,8.66,0,0,1,2.5,2.62A15.78,15.78,0,0,1,35,226.89a29.19,29.19,0,0,1-.09,6.61c-.14,1.08-.31,2.17-.53,3.23s-.51,2.13-.82,3.18a17.62,17.62,0,0,1-1.35,3.21,16,16,0,0,1-2,2.88,15.13,15.13,0,0,1-5.69,4,16.59,16.59,0,0,1-6.71,1.19,19.56,19.56,0,0,1-6.5-1.32,13.77,13.77,0,0,1-5.48-3.65,10.07,10.07,0,0,1-1.72-2.81,11.12,11.12,0,0,1-.78-3.14,16.1,16.1,0,0,1,0-3.18A23.39,23.39,0,0,1,3.76,234c.21-1,.48-2,.78-3A15.5,15.5,0,0,1,5.75,228a19.39,19.39,0,0,1,1.72-2.65A22.5,22.5,0,0,1,9.58,223Z" transform="translate(0 0)"/><path class="cls-3" d="M184.6,264h0s-.1-.09,0,0Z" transform="translate(0 0)"/><path class="cls-2" d="M184.57,264h0l0,0c-.1-.07,0,0,0,0a2,2,0,0,0-.48,0c-.77,0-1.65.12-2.5.22l-2.6.32c-1.74.21-3.51.38-5.29.43a21.54,21.54,0,0,1-5.4-.44,9.81,9.81,0,0,1-2.64-1,6.17,6.17,0,0,1-2.13-2,8.2,8.2,0,0,1-1-2.69,16.75,16.75,0,0,1-.29-2.71,42.47,42.47,0,0,1,.22-5.31c.16-1.75.37-3.49.55-5.22q.12-1.08.21-2.16c.08-1,.13-2,.13-3a14.59,14.59,0,0,0-.21-2.49c-.16-.86-.32-1.69-.54-2.51a15.12,15.12,0,0,0-2-4.59,14.86,14.86,0,0,0-3.45-3.63,18.79,18.79,0,0,0-2.12-1.38c-.7-.39-1.42-.76-2.14-1.12l-.15-.08c-1.55-.76-3.14-1.45-4.74-2.12s-3.23-1.29-4.86-1.91l-2.45-.93a25.72,25.72,0,0,1-2.47-1A11.68,11.68,0,0,1,136,217a26.06,26.06,0,0,1-1.89-1.9c-1.19-1.31-2.28-2.7-3.33-4.1s-2.06-2.84-3-4.28-2-2.89-3-4.25c-.24-.3-.56-.72-.8-1.09s-.48-.75-.7-1.12c-.46-.75-.9-1.51-1.34-2.27q-1.31-2.28-2.56-4.58-2.52-4.59-5-9.24c-1.63-3.08-3.25-6.18-4.83-9.29s-3.16-6.24-4.64-9.43c-.37-.79-.74-1.59-1.08-2.43-.08-.21-.16-.42-.24-.65l-.22-.62c-.06-.19-.14-.39-.22-.58a6.07,6.07,0,0,0-.24-.59c-.65-1.59-1.37-3.17-2.1-4.75-1.46-3.15-3-6.29-4.52-9.41-6.17-12.5-12.57-24.9-19-37.29S64.42,84.35,58,72L48.28,53.45,38.64,34.89c-3.23-6.18-6.5-12.34-9.91-18.41q-2.55-4.58-5.24-9c-.9-1.48-1.83-3-2.75-4.4A3.83,3.83,0,0,0,20,2.22a1.17,1.17,0,0,0-.38-.2H19.5s0,0,0,0a.5.5,0,0,0-.11.28,2.11,2.11,0,0,0,0,.51A5.45,5.45,0,0,0,19.59,4c1.06,3.3,2.24,6.59,3.41,9.87s2.39,6.55,3.6,9.82C29,30.19,31.5,36.72,34,43.23q7.5,19.55,15.13,39t15.4,38.89l3.93,9.69q2,4.83,4,9.65c2.71,6.41,5.48,12.8,8.5,19,.76,1.55,1.51,3.15,2.32,4.57a7.75,7.75,0,0,0,.6.92c0,.07.1.11.14.17a1.2,1.2,0,0,0,.12.11.91.91,0,0,0,.19.13c.16.08.62.17,1.07.3a14,14,0,0,1,1.39.44,18.13,18.13,0,0,1,2.54,1.24c.79.46,1.56.94,2.3,1.45,1.48,1,2.89,2.1,4.28,3.2q1,.82,2,1.68l.26.21.19.17.19.2c.2.24.34.43.48.63.27.39.51.76.75,1.14l2.78,4.44q.69,1.09,1.41,2.16a9.36,9.36,0,0,0,1.62,2c.34.29.68.56,1,.86a8.78,8.78,0,0,1,.85,1c.52.68,1.06,1.35,1.6,2,4.35,5.39,8.87,10.71,13.18,16.27,1.08,1.39,2.14,2.79,3.18,4.23s2,2.89,3,4.44c.47.77.93,1.56,1.35,2.4a14.07,14.07,0,0,1,1.06,2.74l.08.4.07.41.08.68c0,.46.09.91.12,1.36.06.91.08,1.81.08,2.71,0,3.58-.29,7.08-.49,10.54a52.32,52.32,0,0,0,.12,10.18,21.55,21.55,0,0,0,.47,2.42,8,8,0,0,0,.89,2.05,16.25,16.25,0,0,0,3.17,3.65,41.26,41.26,0,0,0,8.48,5.53,51.11,51.11,0,0,0,4.67,2.08c.4.15.79.3,1.19.43l.59.2.64.2,2.49.84c3.29,1.12,6.59,2.16,9.94,3A56.69,56.69,0,0,0,173.53,267a27.52,27.52,0,0,0,5.06-.13,18.23,18.23,0,0,0,2.45-.45,14.41,14.41,0,0,0,2.32-.8,4.94,4.94,0,0,0,1-.56,1.24,1.24,0,0,0,.48-.54.15.15,0,0,0,0-.13.63.63,0,0,0-.16-.25Zm-88-88-.06,0-.25-.21c-.66-.55-1.33-1.1-2-1.63-1.35-1.07-2.72-2.1-4.13-3-.7-.47-1.42-.91-2.14-1.32a15.14,15.14,0,0,0-2.17-1,11,11,0,0,0-1.11-.35l-.62-.15-.38-.1c-.14,0-.29-.09-.45-.16l-.24-.1-.23-.14a3.52,3.52,0,0,1-.45-.3c-.12-.11-.25-.23-.35-.34s-.21-.22-.3-.33a12.57,12.57,0,0,1-.85-1.24c-1-1.6-1.71-3.15-2.51-4.72-3.18-6.27-6.07-12.64-8.91-19L67.29,137l-2.06-4.82c-1.37-3.22-2.73-6.43-4.05-9.67-5.32-12.92-10.34-26-15.23-39S36.37,57.23,31.79,44Q28.34,34.14,25,24.22l-3.33-9.93c-1.09-3.32-2.19-6.63-3.18-10a6.4,6.4,0,0,1-.26-1.41,3.19,3.19,0,0,1,.05-.8,1.62,1.62,0,0,1,.45-.88,1.17,1.17,0,0,1,.55-.29,1.54,1.54,0,0,1,.57,0,2.19,2.19,0,0,1,.78.38,5.49,5.49,0,0,1,1.05,1.05c1,1.47,2,2.9,3,4.37,1.93,2.92,3.8,5.87,5.65,8.84q5.55,8.91,10.85,17.94Q51.8,51.56,61.47,70.15t18.92,37.38q9.21,18.82,18,37.87,2.18,4.77,4.27,9.58c.7,1.61,1.38,3.22,2,4.88.08.2.15.42.23.63s.15.42.22.65l.2.62c.06.18.13.38.21.58.29.79.63,1.59,1,2.38,1.37,3.18,2.89,6.32,4.4,9.46s3.09,6.25,4.67,9.35,3.19,6.2,4.84,9.27c.83,1.53,1.66,3.06,2.52,4.57.43.76.86,1.51,1.31,2.25.22.37.45.74.68,1.09a9.35,9.35,0,0,0,.74,1c1.08,1.42,2,2.87,3,4.3s2,2.86,3,4.25,2.1,2.75,3.26,4c.57.63,1.17,1.24,1.8,1.81a10.59,10.59,0,0,0,2,1.45,23.85,23.85,0,0,0,2.34,1l2.44.93c1.64.62,3.27,1.24,4.89,1.91s3.24,1.36,4.82,2.13c.79.39,1.58.79,2.36,1.22a20.73,20.73,0,0,1,2.26,1.46,16.17,16.17,0,0,1,3.74,3.91,16.84,16.84,0,0,1,2.2,4.94c.24.87.41,1.74.58,2.6a14.69,14.69,0,0,1,.25,2.71,51.65,51.65,0,0,1-.3,5.3c-.17,1.74-.36,3.47-.51,5.2a42.08,42.08,0,0,0-.17,5.13,15.55,15.55,0,0,0,.29,2.49,7,7,0,0,0,.82,2.19,4.56,4.56,0,0,0,1.65,1.52,8,8,0,0,0,2.23.83,19.82,19.82,0,0,0,5,.35c1.71-.07,3.42-.26,5.13-.49l2.59-.35c.88-.11,1.74-.24,2.71-.27a4.11,4.11,0,0,1,.82.06,1.49,1.49,0,0,1,.62.23l.24.2.16.16a2.38,2.38,0,0,1,.53.84,1.91,1.91,0,0,1,.05,1.16,2.4,2.4,0,0,1-.47.9,3.41,3.41,0,0,1-.62.59,7,7,0,0,1-1.28.78,16.33,16.33,0,0,1-2.61.94,20.51,20.51,0,0,1-2.68.54,29.54,29.54,0,0,1-5.39.21,57.7,57.7,0,0,1-10.52-1.58c-3.44-.8-6.82-1.82-10.15-2.9l-2.48-.8-.6-.18c-.23-.06-.44-.13-.66-.21-.44-.14-.86-.29-1.28-.44a53.41,53.41,0,0,1-4.91-2.12,51,51,0,0,1-4.69-2.58,35.48,35.48,0,0,1-4.39-3.18,18.83,18.83,0,0,1-3.72-4.2,10.56,10.56,0,0,1-1.21-2.71,25.6,25.6,0,0,1-.57-2.71,55.13,55.13,0,0,1-.26-10.72c.16-3.5.42-7,.37-10.36,0-.85-.05-1.69-.12-2.53,0-.41-.07-.83-.12-1.24l-.08-.62,0-.23-.06-.24a10.56,10.56,0,0,0-.87-2.12c-.37-.72-.79-1.43-1.24-2.14a91.89,91.89,0,0,0-6.19-8.21c-4.42-5.34-9.07-10.54-13.47-16l-1.64-2.07a8.14,8.14,0,0,1-.74-1.1c-.22-.39-.4-.81-.59-1.22a15.67,15.67,0,0,0-1.4-2.3c-.49-.74-1-1.48-1.45-2.22l-2.78-4.43c-.23-.35-.46-.71-.7-1-.11-.15-.22-.31-.31-.41l0,0h0Z" transform="translate(0 0)"/><path class="cls-4" d="M20.44,4.78C23,11.41,25.63,18,28.24,24.63s5.24,13.21,7.87,19.82L44,64.26,52,84c5.34,13.18,10.66,26.36,16.09,39.5S79,149.79,84.7,162.83l.27-.11q-7.53-20-15.5-39.74c-5.28-13.2-10.67-26.36-16-39.52l-8.1-19.73L37.17,44C34.45,37.45,31.74,30.88,29,24.33S23.49,11.21,20.71,4.67ZM163,245.54c-.18,1.73-.39,3.47-.55,5.22a42.47,42.47,0,0,0-.22,5.31,16.75,16.75,0,0,0,.29,2.71,8.2,8.2,0,0,0,1,2.69,6.17,6.17,0,0,0,2.13,2,9.81,9.81,0,0,0,2.64,1,21.54,21.54,0,0,0,5.4.44c1.78,0,3.55-.22,5.29-.43l2.6-.32c.85-.1,1.73-.21,2.5-.22a2,2,0,0,1,.48,0h0l.07.07a.63.63,0,0,1,.16.25.15.15,0,0,1,0,.13,1.24,1.24,0,0,1-.48.54,4.94,4.94,0,0,1-1,.56,14.41,14.41,0,0,1-2.32.8,18.23,18.23,0,0,1-2.45.45,27.52,27.52,0,0,1-5.06.13,56.69,56.69,0,0,1-10.12-1.67c-3.35-.84-6.65-1.88-9.94-3l-2.49-.84-.64-.2-.59-.2c-.4-.13-.79-.28-1.19-.43a51.11,51.11,0,0,1-4.67-2.08,41.26,41.26,0,0,1-8.48-5.53,16.25,16.25,0,0,1-3.17-3.65,8,8,0,0,1-.89-2.05,21.55,21.55,0,0,1-.47-2.42,52.32,52.32,0,0,1-.12-10.18c.2-3.46.51-7,.49-10.54,0-.9,0-1.8-.08-2.71,0-.45-.07-.9-.12-1.36l-.08-.68-.07-.41-.08-.4a14.07,14.07,0,0,0-1.06-2.74c-.42-.84-.88-1.63-1.35-2.4-.94-1.55-2-3-3-4.44s-2.1-2.84-3.18-4.23c-4.31-5.56-8.83-10.88-13.18-16.27-.54-.68-1.08-1.35-1.6-2a8.78,8.78,0,0,0-.85-1c-.32-.3-.66-.57-1-.86a9.36,9.36,0,0,1-1.62-2q-.72-1.06-1.41-2.16l-2.78-4.44c-.24-.38-.48-.75-.75-1.14-.14-.2-.28-.39-.48-.63l-.19-.2-.19-.17-.26-.21q-1-.85-2-1.68c-1.39-1.1-2.8-2.19-4.28-3.2-.74-.51-1.51-1-2.3-1.45a18.13,18.13,0,0,0-2.54-1.24,14,14,0,0,0-1.39-.44c-.45-.13-.91-.22-1.07-.3a.91.91,0,0,1-.19-.13,1.2,1.2,0,0,1-.12-.11c0-.06-.09-.1-.14-.17a7.75,7.75,0,0,1-.6-.92c-.81-1.42-1.56-3-2.32-4.57-3-6.24-5.79-12.63-8.5-19q-2-4.81-4-9.65l-3.93-9.69q-7.78-19.4-15.4-38.89T34,43.23c-2.49-6.51-5-13-7.39-19.58-1.21-3.27-2.42-6.54-3.6-9.82S20.65,7.26,19.59,4a5.45,5.45,0,0,1-.23-1.15,2.11,2.11,0,0,1,0-.51A.5.5,0,0,1,19.49,2s0,0,0,0h.08a1.17,1.17,0,0,1,.38.2,3.83,3.83,0,0,1,.78.82c.92,1.42,1.85,2.92,2.75,4.4q2.7,4.47,5.24,9c3.41,6.07,6.68,12.23,9.91,18.41l9.64,18.56L58,72q9.7,18.52,19.33,37.1c6.41,12.39,12.81,24.79,19,37.29,1.54,3.12,3.06,6.26,4.52,9.41.73,1.58,1.45,3.16,2.1,4.75a6.07,6.07,0,0,1,.24.59c.08.19.16.39.22.58l.22.62c.08.23.16.44.24.65.34.84.71,1.64,1.08,2.43,1.48,3.19,3.05,6.31,4.64,9.43s3.2,6.21,4.83,9.29,3.27,6.18,5,9.24q1.26,2.3,2.56,4.58c.44.76.88,1.52,1.34,2.27.22.37.46.75.7,1.12s.56.79.8,1.09c1,1.36,2,2.82,3,4.25s2,2.87,3,4.28,2.14,2.79,3.33,4.1A26.06,26.06,0,0,0,136,217a11.68,11.68,0,0,0,2.22,1.61,25.72,25.72,0,0,0,2.47,1l2.45.93c1.63.62,3.25,1.25,4.86,1.91s3.19,1.36,4.74,2.12l.15.08-.32.65a15.69,15.69,0,0,0-2.29-.93,14.68,14.68,0,0,0-3.22-.63,13.43,13.43,0,0,0-3.29.14,12.54,12.54,0,0,0-3.12,1,14.06,14.06,0,0,0-2.72,1.67,16.22,16.22,0,0,0-4.12,4.62,15.37,15.37,0,0,0-1.3,2.79,15.87,15.87,0,0,0-.72,2.95,17,17,0,0,0-.14,3,18.74,18.74,0,0,0,.41,3,19.34,19.34,0,0,0,2.23,5.52,21.1,21.1,0,0,0,3.69,4.68,15,15,0,0,0,5.1,3.17,13.07,13.07,0,0,0,6.09.62,16.89,16.89,0,0,0,5.89-1.94,16,16,0,0,0,4.94-4,13.35,13.35,0,0,0,2.78-5.94,15.58,15.58,0,0,0,.23-1.65l.23,0Q163.13,244.46,163,245.54Z" transform="translate(0 0)"/><path class="cls-2" d="M20.71,4.67c2.78,6.54,5.52,13.1,8.27,19.66S34.45,37.45,37.17,44l8.16,19.71,8.1,19.73c5.37,13.16,10.76,26.32,16,39.52S80,149.41,85,162.72l-.27.11q-8.52-19.56-16.62-39.29C62.65,110.4,57.33,97.22,52,84L44,64.26,36.11,44.45c-2.63-6.61-5.28-13.2-7.87-19.82S23,11.41,20.44,4.78Z" transform="translate(0 0)"/><path class="cls-2" d="M131.63,239.91a17,17,0,0,1,.14-3,15.87,15.87,0,0,1,.72-2.95,15.37,15.37,0,0,1,1.3-2.79,16.22,16.22,0,0,1,4.12-4.62,14.06,14.06,0,0,1,2.72-1.67,12.54,12.54,0,0,1,3.12-1,13.43,13.43,0,0,1,3.29-.14,14.68,14.68,0,0,1,3.22.63,15.69,15.69,0,0,1,2.29.93,17.61,17.61,0,0,1,3.41,2.24,19.22,19.22,0,0,1,2.3,2.3,22.07,22.07,0,0,1,1.88,2.63,21.28,21.28,0,0,1,2.45,5.95,16.53,16.53,0,0,1,.4,4.92,15.58,15.58,0,0,1-.23,1.65A13.35,13.35,0,0,1,160,251a16,16,0,0,1-4.94,4,16.89,16.89,0,0,1-5.89,1.94,13.07,13.07,0,0,1-6.09-.62,15,15,0,0,1-5.1-3.17,21.1,21.1,0,0,1-3.69-4.68,19.34,19.34,0,0,1-2.23-5.52A18.74,18.74,0,0,1,131.63,239.91Zm.85-2.89a14.42,14.42,0,0,0,0,5.78,16.86,16.86,0,0,0,2.08,5.46,18.59,18.59,0,0,0,3.71,4.52,12.94,12.94,0,0,0,5.06,2.76,11.42,11.42,0,0,0,5.63.06,15.41,15.41,0,0,0,5.08-2.36,13.82,13.82,0,0,0,3.83-3.87A11.2,11.2,0,0,0,159,247a11.68,11.68,0,0,0,.59-2.52,13.66,13.66,0,0,0-.45-5.19,19.74,19.74,0,0,0-2.15-4.93,17.7,17.7,0,0,0-1.54-2.2,16.81,16.81,0,0,0-1.82-2,15.06,15.06,0,0,0-4.43-2.85,11,11,0,0,0-10.23.69,14.18,14.18,0,0,0-4.16,3.75A13.46,13.46,0,0,0,132.48,237Z" transform="translate(0 0)"/><circle class="cls-5" cx="84.86" cy="144.83" r="8.52"/><circle class="cls-6" cx="84.86" cy="144.83" r="5.97"/><circle class="cls-7" cx="84.86" cy="144.83" r="2.27"/></svg>