<?xml version="1.0" encoding="utf-8"?>
<!-- Generator: Adobe Illustrator 23.1.1, SVG Export Plug-In . SVG Version: 6.00 Build 0)  -->
<svg version="1.1" id="Layer_1" xmlns="http://www.w3.org/2000/svg" xmlns:xlink="http://www.w3.org/1999/xlink" x="0px" y="0px"
	 viewBox="0 0 191 265" style="enable-background:new 0 0 191 265;" xml:space="preserve">
<style type="text/css">
	.st0{fill:url(#SVGID_1_);}
	.st1{fill:url(#SVGID_2_);}
	.st2{fill:url(#SVGID_3_);}
	.st3{fill:url(#SVGID_4_);}
	.st4{fill:url(#SVGID_5_);}
	.st5{fill:url(#SVGID_6_);}
	.st6{fill:url(#SVGID_7_);}
	.st7{fill:url(#SVGID_8_);}
	.st8{fill:url(#SVGID_9_);}
	.st9{fill:url(#SVGID_10_);}
</style>
<g>
	<g id="XMLID_24_">
		<g>
			<linearGradient id="SVGID_1_" gradientUnits="userSpaceOnUse" x1="57.069" y1="104.5494" x2="119.4528" y2="132.3695">
				<stop  offset="0" style="stop-color:#FFFFFF"/>
				<stop  offset="1" style="stop-color:#514D4E"/>
			</linearGradient>
			<path class="st0" d="M172.7,8.2C172.8,8.2,172.8,8.2,172.7,8.2C172.8,8.1,172.8,8.1,172.7,8.2c0.1,0,0.1,0,0.1,0
				c0.1,0,0.1,0,0.2,0.1c0.1,0.1,0.2,0.1,0.3,0.2c0.2,0.2,0.3,0.5,0.3,0.8c0,0.3,0,0.6,0,0.9c-0.1,0.6-0.2,1.2-0.4,1.7l-9.4,18.3
				c-3.2,6.1-6.3,12.2-9.5,18.2l-19.2,36.4c-6.4,12.1-12.8,24.3-19.1,36.5l-4.7,9.1c-1.5,3.1-3.1,6.1-4.6,9.2c-3,6-6,12.1-8.9,18.2
				c-0.6,0.4-1,0.9-1.7,1.1c-0.8,0.3-1.7,0.5-2.5,0.7c-0.9,0.1-1.9,0.3-2.8,0.4c-0.9,0.1-4.1-0.5-6.1,0.5c-0.9,0.3-1.5,0.7-2.3,1.3
				c-0.3,0.2-1.1,1-2.2,2c-2.1,2-4.9,4.8-5.8,5.5c-1.3,1.2-2.6,2.3-3.9,3.6l-8,7.4l-7.7,7.4c-1.3,1.2-2.6,2.5-3.8,3.7l-0.5,0.5
				c-0.2,0.2-0.3,0.3-0.5,0.5c-0.3,0.4-0.6,0.7-0.9,1.1c-0.6,0.8-1.1,1.5-1.5,2.4c-0.9,1.6-1.6,3.3-2.2,5c-0.1,0.2-0.2,0.4-0.2,0.6
				l-0.1,0.1l-0.1,0.1c0,0.1-0.1,0.2-0.1,0.3l-0.1,0.2c-0.2,0.5-0.3,0.9-0.4,1.4c-0.2,0.9-0.4,1.8-0.6,2.6c-0.7,3.5-1.3,7-1.9,10.6
				l-0.4,2.6l-0.2,1.3c-0.1,0.5-0.1,0.9-0.1,1.4c-0.1,0.9-0.1,1.8-0.1,2.7c0,0.9,0,1.8,0.1,2.7c0,0.2,0,0.4,0,0.6c0,0.1,0,0.2,0,0.3
				c0,0,0,0.1,0,0.1l0,0c0,0,0,0,0,0c-0.1,0-0.2,0.1-0.3,0.2c-0.6,0.2-1.5,0.3-2.2,0.2l-0.1,0l-0.1,0c-0.1,0-0.1,0-0.2,0
				c-0.2,0-0.4,0-0.6,0.1c-0.3,0.1-0.6,0.2-0.8,0.3c-0.5,0.2-0.9,0.5-1.2,0.8c-0.8,0.5-1.4,1-2.1,1.5c-0.2,0.1-0.4,0.2-0.5,0.3
				l-0.6,0.3c-0.4,0.2-0.8,0.4-1.2,0.6c-0.4,0.2-0.8,0.4-1.2,0.5c-0.4,0.2-0.8,0.3-1.2,0.5c-0.8,0.3-1.6,0.6-2.4,0.8
				c-0.8,0.2-1.6,0.4-2.5,0.5c-1.7,0.2-3.4,0.3-5,0.1c-1.7-0.2-3.3-0.7-4.8-1.4c-0.8-0.3-1.5-0.7-2.2-1.2c-0.2-0.1-0.3-0.2-0.5-0.3
				c-0.2-0.1-0.3-0.2-0.4-0.4c-0.3-0.3-0.6-0.5-0.8-0.8c-1-1.2-1.7-2.8-2.1-4.4c-0.4-1.6-0.6-3.3-0.6-5c0-0.9,0.1-1.7,0.2-2.6
				c0.1-0.9,0.2-1.7,0.4-2.6c0.3-1.7,0.8-3.4,1.5-5l0.2-0.6c0.1-0.2,0.2-0.4,0.2-0.6c0.2-0.4,0.4-0.7,0.6-1.1c0.4-0.7,1-1.4,1.5-2
				c1.2-1.2,2.5-2.3,3.9-3.3c1.4-1,2.9-1.8,4.5-2.6c3.1-1.6,6.4-2.8,9.7-3.9c1.7-0.6,3.3-1.1,5-1.6c0.8-0.2,1.7-0.5,2.5-0.7
				c0.4-0.1,0.9-0.2,1.3-0.3l0.6-0.1l0.7-0.1c0.4-0.1,0.7-0.3,0.9-0.4c0.3-0.2,0.5-0.3,0.8-0.5c0.5-0.4,1-0.8,1.5-1.2
				c0.9-0.8,1.8-1.7,2.7-2.5c1.7-1.7,3.4-3.6,5-5.4c3.2-3.7,6.3-7.5,9.3-11.3c1.5-1.9,3-3.9,4.4-5.8c0.7-1,1.4-2,2.2-3
				c0.2-0.3,0.4-0.5,0.5-0.8c0.2-0.2,0.3-0.5,0.5-0.7c0.3-0.5,0.7-1,1.1-1.4c1.5-1.9,3-3.9,4.3-5.9c1.4-2,2.6-4.1,3.9-6.2
				c1.2-2.1,2.4-4.3,3.6-6.4c1.2-2.1,2.4-4.2,3.6-6.3c2.4-4.2,4.9-8.4,7.5-12.5c2.5-4.1,5.1-8.2,7.8-12.3c2.6-4.1,5.3-8.2,7.9-12.2
				c2.7-4.1,5.4-8.1,8.1-12.1c2.7-4,5.4-8,8.2-12.1l8.2-12l8.3-12c5.5-8,11.1-16,16.9-23.8c2.9-3.9,5.8-7.8,8.8-11.6
				c1.5-1.9,3-3.8,4.6-5.6c0.4-0.5,0.8-0.9,1.2-1.3C172.3,8.5,172.5,8.3,172.7,8.2z M171.9,11.9l-0.2-0.1c-3.4,6-6.7,11.9-10,17.9
				c-3.3,6-6.6,12-9.9,17.9l-9.9,18l-9.8,18c-6.5,12-13.1,24-19.5,36.1c-6.5,12-12.8,24.1-19,36.3l0.2,0.1
				c6.8-11.9,13.5-23.8,20.1-35.8c6.6-12,13.1-24,19.6-36l9.7-18.1l9.7-18.1c3.2-6,6.5-12.1,9.6-18.1C165.5,24,168.7,18,171.9,11.9z
				 M37.3,223.6c0.4-1,0.8-1.9,1.2-2.9c0.3-1,0.6-2,0.9-3c0.5-2,0.8-4.1,0.9-6.3c0-2.1-0.2-4.4-1.1-6.4c-0.5-1-1.1-2-2-2.8
				c-0.4-0.4-0.9-0.7-1.4-1c-0.3-0.1-0.5-0.2-0.8-0.3c-0.2-0.1-0.5-0.2-0.8-0.3c-2-0.6-4.2-0.7-6.2-0.5c-2,0.2-4,0.8-5.9,1.6
				c-0.9,0.4-1.8,0.9-2.7,1.4c-0.9,0.5-1.7,1.1-2.5,1.7c-0.8,0.6-1.6,1.3-2.3,2c-0.7,0.7-1.4,1.5-1.9,2.3c-0.6,0.8-1.1,1.7-1.5,2.6
				c-0.4,0.9-0.8,1.9-1.1,2.8c-0.3,1-0.6,1.9-0.8,2.9c-0.2,1-0.3,2-0.4,3c0,1,0.1,2.1,0.3,3.1c0.3,1,0.7,2,1.3,2.9
				c1.2,1.8,2.9,3.1,4.7,4.1c1.8,1,3.8,1.7,5.9,2c2.1,0.3,4.3,0.2,6.4-0.4c2.1-0.6,4.2-1.7,5.8-3.2c0.8-0.8,1.6-1.6,2.3-2.5
				C36.3,225.6,36.8,224.6,37.3,223.6z"/>
			<path d="M171.9,11.9c-3.2,6.1-6.4,12.1-9.6,18.1c-3.2,6-6.4,12.1-9.6,18.1L143,66.3l-9.7,18.1c-6.5,12-13,24.1-19.6,36
				c-6.6,12-13.2,23.9-20.1,35.8l-0.2-0.1c6.2-12.2,12.6-24.3,19-36.3c6.5-12.1,13-24,19.5-36.1l9.8-18l9.9-18
				c3.3-6,6.6-12,9.9-17.9c3.3-6,6.6-12,10-17.9L171.9,11.9z"/>
			<path d="M98,157.6l-0.4,0.4c0-0.1,0.1-0.2,0.1-0.3C97.8,157.7,97.9,157.6,98,157.6L98,157.6z"/>
			<path d="M80.1,163.6c1.1-1,1.9-1.8,2.2-2c0.8-0.5,1.4-0.9,2.3-1.3c2-1,5.2-0.4,6.1-0.5c0.9-0.1,1.9-0.2,2.8-0.4
				c0.9-0.1,1.7-0.4,2.5-0.7c0.7-0.2,1.1-0.7,1.7-1.1c0,0.1-0.1,0.2-0.1,0.3l0.4-0.4l0,0c-0.1,0.1-0.2,0.1-0.3,0.2
				c2.9-6.1,5.9-12.2,8.9-18.2c1.5-3.1,3.1-6.1,4.6-9.2l4.7-9.1c6.3-12.2,12.7-24.3,19.1-36.5l19.2-36.4c3.2-6.1,6.4-12.2,9.5-18.2
				l9.4-18.3l0.3,0.1c0,0,0,0,0,0l0,0l0,0l-9.3,18.4c-3.1,6.1-6.1,12.3-9.2,18.4l-18.2,36.9c-6.1,12.3-12.2,24.6-18.3,36.8l-4.6,9.2
				c-1.6,3-3.1,6.1-4.7,9.1c-3.2,6.1-6.3,12.2-9.6,18.2l-0.2,0.3l-0.2,0.1l0,0c-1.7,1.1-3.7,1.7-5.7,1.9c-1,0.1-1.9,0.1-2.9,0
				c-0.9-0.1-1.8-0.3-2.8-0.4c-0.9-0.2-1.8-0.2-2.7,0.1c-0.9,0.3-1.7,0.8-2.4,1.3c-0.7,0.5-1.4,1.1-2.1,1.8L80.1,163.6z"/>
			<linearGradient id="SVGID_2_" gradientUnits="userSpaceOnUse" x1="55.1984" y1="104.5582" x2="119.3865" y2="133.1828">
				<stop  offset="0" style="stop-color:#514D4E"/>
				<stop  offset="0.9885" style="stop-color:#000000"/>
			</linearGradient>
			<path class="st1" d="M172.7,8.2c-0.2,0.1-0.5,0.3-0.7,0.6c-0.4,0.4-0.8,0.9-1.2,1.3c-1.6,1.8-3.1,3.7-4.6,5.6
				c-3,3.8-5.9,7.7-8.8,11.6c-5.8,7.8-11.3,15.8-16.9,23.8l-8.3,12l-8.2,12c-2.7,4-5.5,8-8.2,12.1c-2.7,4-5.4,8.1-8.1,12.1
				c-2.7,4.1-5.3,8.1-7.9,12.2c-2.6,4.1-5.2,8.2-7.8,12.3c-2.5,4.1-5,8.3-7.5,12.5c-1.2,2.1-2.4,4.2-3.6,6.3
				c-1.2,2.1-2.3,4.3-3.6,6.4c-1.2,2.1-2.5,4.2-3.9,6.2c-1.4,2-2.8,4-4.3,5.9c-0.4,0.5-0.7,1-1.1,1.4c-0.2,0.2-0.3,0.5-0.5,0.7
				c-0.2,0.3-0.4,0.5-0.5,0.8c-0.7,1-1.4,2-2.2,3c-1.5,2-2.9,3.9-4.4,5.8c-3,3.8-6.1,7.6-9.3,11.3c-1.6,1.8-3.2,3.6-5,5.4
				c-0.9,0.9-1.7,1.7-2.7,2.5c-0.5,0.4-0.9,0.8-1.5,1.2c-0.3,0.2-0.5,0.4-0.8,0.5c-0.3,0.2-0.6,0.3-0.9,0.4l-0.7,0.1l-0.6,0.1
				c-0.4,0.1-0.9,0.2-1.3,0.3c-0.8,0.2-1.7,0.4-2.5,0.7c-1.7,0.5-3.3,1.1-5,1.6c-3.3,1.2-6.6,2.4-9.7,3.9c-1.6,0.8-3.1,1.6-4.5,2.6
				c-1.4,1-2.8,2-3.9,3.3c-0.6,0.6-1.1,1.3-1.5,2c-0.2,0.3-0.4,0.7-0.6,1.1c-0.1,0.2-0.2,0.4-0.2,0.6l-0.2,0.6
				c-0.6,1.6-1.1,3.3-1.5,5c-0.2,0.8-0.3,1.7-0.4,2.6c-0.1,0.9-0.1,1.7-0.2,2.6c0,1.7,0.2,3.4,0.6,5c0.4,1.6,1.1,3.1,2.1,4.4
				c0.3,0.3,0.5,0.6,0.8,0.8c0.1,0.1,0.3,0.2,0.4,0.4c0.2,0.1,0.3,0.2,0.5,0.3c0.7,0.4,1.4,0.8,2.2,1.2c1.5,0.7,3.1,1.2,4.8,1.4
				c1.6,0.2,3.3,0.2,5-0.1c0.8-0.1,1.7-0.3,2.5-0.5c0.8-0.2,1.6-0.5,2.4-0.8c0.4-0.1,0.8-0.3,1.2-0.5c0.4-0.2,0.8-0.3,1.2-0.5
				c0.4-0.2,0.8-0.4,1.2-0.6l0.6-0.3c0.2-0.1,0.4-0.2,0.5-0.3c0.7-0.4,1.4-1,2.1-1.5c0.4-0.3,0.8-0.5,1.2-0.8
				c0.2-0.1,0.5-0.2,0.8-0.3c0.2,0,0.3-0.1,0.6-0.1c0,0,0.1,0,0.2,0l0.1,0l0.1,0c0.7,0.1,1.6,0,2.2-0.2c0.1,0,0.3-0.1,0.3-0.2
				c0,0,0,0,0,0l0,0c0,0,0,0,0,0l0,0c0,0,0-0.1,0-0.1c0-0.1,0-0.2,0-0.3c0-0.2,0-0.4,0-0.6c0-0.9-0.1-1.8-0.1-2.7
				c0-0.9,0-1.8,0.1-2.7c0-0.5,0.1-0.9,0.1-1.4l0.2-1.3l0.4-2.6c0.6-3.5,1.2-7,1.9-10.6c0.2-0.9,0.4-1.8,0.6-2.6
				c0.1-0.4,0.2-0.9,0.4-1.4l0.1-0.2c0-0.1,0.1-0.2,0.1-0.3l0.1-0.1l0.1-0.1c0.1-0.2,0.2-0.4,0.2-0.6c0.6-1.6,1.3-3.4,2.2-5
				c0.4-0.8,0.9-1.6,1.5-2.4c0.3-0.4,0.6-0.7,0.9-1.1c0.2-0.2,0.3-0.3,0.5-0.5l0.5-0.5c1.3-1.3,2.5-2.5,3.8-3.7l7.7-7.4l8-7.4
				c1.3-1.2,2.6-2.4,3.9-3.6c0.9-0.8,3.7-3.6,5.8-5.5l0.5,0.5c-0.7,0.7-1.3,1.4-1.9,2.1l0,0c-1.2,1.3-2.4,2.6-3.7,3.9
				c-1.2,1.3-2.5,2.5-3.8,3.8l-7.7,7.4l-7.6,7.4c-1.3,1.2-2.5,2.5-3.8,3.7l-0.5,0.5c-0.1,0.2-0.3,0.3-0.4,0.5
				c-0.3,0.3-0.5,0.6-0.8,1c-0.5,0.7-0.9,1.4-1.4,2.2c-0.4,0.8-0.8,1.5-1.1,2.3c-0.3,0.8-0.6,1.6-1,2.5c-0.1,0.2-0.2,0.4-0.3,0.7
				l-0.1,0.2l-0.1,0.2c0,0,0,0,0,0.1l0,0.1c-0.1,0.4-0.2,0.8-0.3,1.2c-0.2,0.8-0.4,1.7-0.5,2.6c-0.7,3.5-1.3,7-1.8,10.5l-0.4,2.6
				l-0.2,1.3c-0.1,0.4-0.1,0.9-0.1,1.3c-0.1,0.9-0.1,1.7-0.1,2.6c0,0.9,0,1.7,0.1,2.6c0,0.2,0,0.5,0,0.7c0,0.1,0,0.3,0,0.4
				c0,0.1,0,0.1,0,0.2l0,0.1l0,0.1l0,0.1c-0.1,0.5-0.4,0.9-0.7,1.1c-0.3,0.2-0.6,0.3-0.8,0.4c-0.5,0.2-1,0.3-1.5,0.3
				c-0.5,0-1,0-1.5,0c-0.1,0-0.1,0-0.2,0c0,0,0,0,0,0c0,0,0,0,0,0c0,0,0,0,0,0c0,0,0,0-0.1,0c-0.1,0-0.2,0.1-0.4,0.2
				c-0.3,0.2-0.7,0.4-1,0.6c-0.7,0.5-1.4,1-2.2,1.5c-0.2,0.1-0.4,0.2-0.6,0.4l-0.6,0.3c-0.4,0.2-0.8,0.4-1.2,0.6
				c-0.4,0.2-0.8,0.4-1.2,0.6c-0.4,0.2-0.8,0.4-1.3,0.5c-0.9,0.3-1.7,0.6-2.6,0.8c-0.9,0.2-1.8,0.4-2.7,0.6
				c-1.8,0.3-3.7,0.3-5.5,0.1c-1.8-0.2-3.6-0.8-5.3-1.5c-0.8-0.4-1.6-0.8-2.4-1.3c-0.2-0.1-0.4-0.3-0.6-0.4
				c-0.2-0.1-0.4-0.3-0.6-0.5c-0.4-0.3-0.7-0.7-1-1c-1.2-1.5-2-3.3-2.5-5c-0.5-1.8-0.7-3.7-0.7-5.5c0-0.9,0.1-1.8,0.2-2.8
				c0.1-0.9,0.3-1.8,0.4-2.7c0.4-1.8,0.9-3.5,1.5-5.3l0.2-0.6c0.1-0.2,0.2-0.4,0.3-0.7c0.2-0.4,0.4-0.9,0.7-1.3
				c0.5-0.8,1.1-1.5,1.7-2.2c1.3-1.4,2.7-2.5,4.2-3.5c1.5-1,3.1-1.9,4.7-2.7c1.6-0.8,3.3-1.5,4.9-2.2s3.4-1.2,5.1-1.7
				c1.7-0.5,3.4-0.9,5.2-1.3l2.6-0.6l1.3-0.3l0.7-0.1l0.3-0.1l0.2,0l0.1,0l0,0l0,0c0,0,0,0,0,0c0.2-0.1,0.4-0.2,0.7-0.3
				c0.2-0.1,0.5-0.3,0.7-0.5c0.5-0.3,0.9-0.7,1.4-1.1c0.9-0.8,1.8-1.6,2.6-2.5c1.7-1.7,3.3-3.5,4.9-5.4c3.2-3.7,6.2-7.5,9.1-11.3
				c1.5-1.9,2.9-3.9,4.4-5.8c0.7-1,1.4-2,2.1-3c0.2-0.2,0.3-0.5,0.5-0.7c0.2-0.3,0.3-0.5,0.5-0.8c0.4-0.5,0.7-1,1.1-1.5
				c1.5-1.9,2.9-3.9,4.2-5.9c1.3-2,2.5-4.1,3.7-6.2c1.2-2.1,2.3-4.3,3.5-6.4c1.2-2.1,2.3-4.3,3.5-6.4c2.4-4.2,4.9-8.4,7.4-12.6
				c2.5-4.2,5.1-8.3,7.7-12.5c2.6-4.1,5.2-8.2,7.9-12.3c2.7-4.1,5.3-8.1,8.1-12.2c2.7-4,5.4-8.1,8.2-12.1c2.8-4,5.6-8,8.4-11.9
				l4.3-5.9l4.3-5.9c5.8-7.8,11.7-15.6,17.6-23.3c3-3.8,6-7.7,9-11.5c1.5-1.9,3.1-3.8,4.7-5.6c0.4-0.5,0.8-0.9,1.3-1.3
				c0.2-0.2,0.4-0.4,0.7-0.6c0,0,0.1,0,0.1-0.1c0,0,0.1,0,0.1,0c0,0,0,0,0.1,0c0.1,0,0.2,0.1,0.2,0.1c0.1,0.1,0.3,0.2,0.4,0.3
				c0.2,0.3,0.3,0.6,0.4,0.9c0,0.3,0,0.6,0,0.9c-0.1,0.6-0.2,1.2-0.5,1.8l-0.3-0.1c0.2-0.5,0.4-1.1,0.4-1.7c0-0.3,0-0.6,0-0.9
				c0-0.3-0.1-0.6-0.3-0.8c-0.1-0.1-0.2-0.2-0.3-0.2c-0.1,0-0.1-0.1-0.2-0.1C172.8,8.2,172.8,8.1,172.7,8.2
				C172.8,8.1,172.8,8.1,172.7,8.2C172.8,8.2,172.8,8.2,172.7,8.2z"/>
			<path d="M41.3,228.3C41.3,228.3,41.3,228.3,41.3,228.3L41.3,228.3z"/>
			<linearGradient id="SVGID_3_" gradientUnits="userSpaceOnUse" x1="11.9978" y1="209.9216" x2="38.175" y2="221.5952">
				<stop  offset="0" style="stop-color:#514D4E"/>
				<stop  offset="0.9885" style="stop-color:#000000"/>
			</linearGradient>
			<path class="st2" d="M17.1,205.2c-1.6,1.1-3.1,2.5-4.2,4.1c-1.2,1.6-1.9,3.5-2.6,5.4c-0.3,1-0.5,1.9-0.7,2.9
				c-0.2,1-0.2,2-0.2,2.9c0,1,0.2,1.9,0.5,2.8c0.3,0.9,0.8,1.7,1.4,2.4c1.2,1.4,2.8,2.4,4.6,3.1c3.5,1.4,7.4,1.6,10.7,0.4
				c1.7-0.6,3.2-1.5,4.4-2.8c1.3-1.2,2.3-2.7,3-4.3c0.4-0.9,0.8-1.8,1.1-2.7c0.3-0.9,0.6-1.8,0.9-2.7c0.5-1.8,0.9-3.7,1.1-5.6
				c0.1-0.9,0.1-1.9,0.1-2.8c0-0.9-0.2-1.8-0.5-2.6c-0.3-0.8-0.7-1.6-1.2-2.2c-0.3-0.3-0.6-0.6-0.9-0.8c-0.2-0.1-0.3-0.2-0.5-0.3
				c-0.2-0.1-0.4-0.2-0.6-0.3c-1.7-0.7-3.6-1-5.5-0.9c-1.9,0.1-3.8,0.5-5.7,1.1C20.5,203.1,18.7,204,17.1,205.2z M9.2,223.6
				c-0.3-1-0.4-2-0.3-3.1c0-1,0.2-2,0.4-3c0.2-1,0.5-2,0.8-2.9c0.3-1,0.7-1.9,1.1-2.8c0.4-0.9,0.9-1.8,1.5-2.6
				c0.6-0.8,1.2-1.6,1.9-2.3c0.7-0.7,1.5-1.4,2.3-2c0.8-0.6,1.6-1.2,2.5-1.7c0.9-0.5,1.8-1,2.7-1.4c1.9-0.8,3.8-1.4,5.9-1.6
				c2-0.2,4.2-0.2,6.2,0.5c0.3,0.1,0.5,0.2,0.8,0.3c0.3,0.1,0.5,0.2,0.8,0.3c0.5,0.3,1,0.6,1.4,1c0.9,0.8,1.5,1.7,2,2.8
				c0.9,2.1,1.2,4.3,1.1,6.4c-0.1,2.1-0.4,4.2-0.9,6.3c-0.3,1-0.6,2-0.9,3c-0.3,1-0.7,2-1.2,2.9c-0.5,1-1,2-1.7,2.9
				c-0.7,0.9-1.4,1.8-2.3,2.5c-1.7,1.5-3.7,2.6-5.8,3.2c-2.1,0.6-4.3,0.7-6.4,0.4c-2.1-0.3-4.1-1-5.9-2c-1.8-1-3.5-2.3-4.7-4.1
				C9.9,225.6,9.4,224.7,9.2,223.6z"/>
		</g>
		<g>
		</g>
	</g>
</g>
<g>
	<g>
		<g>
			<g id="XMLID_25_">
				<g>
					<path d="M187,256.1C187,256.1,186.9,256.1,187,256.1C186.9,256.1,186.8,256,187,256.1C186.9,256.1,187,256.1,187,256.1z"/>
					<linearGradient id="SVGID_4_" gradientUnits="userSpaceOnUse" x1="68.8196" y1="152.7407" x2="101.0976" y2="130.2111">
						<stop  offset="0" style="stop-color:#514D4E"/>
						<stop  offset="0.9885" style="stop-color:#000000"/>
					</linearGradient>
					<path class="st3" d="M187,256.2C187,256.2,187,256.1,187,256.2C186.9,256.1,186.9,256.1,187,256.2
						C186.9,256.1,187,256.1,187,256.2C187,256.1,186.9,256.1,187,256.2C186.8,256,186.9,256.1,187,256.2c-0.2-0.1-0.4-0.1-0.5-0.1
						c-0.7,0-1.6,0.2-2.4,0.3l-2.5,0.4c-1.6,0.3-3.3,0.5-5,0.7c-1.7,0.1-3.4,0.1-5.2-0.2c-0.9-0.2-1.8-0.4-2.6-0.9
						c-0.8-0.4-1.6-1.1-2.2-1.9c-0.6-0.8-0.9-1.7-1.2-2.6c-0.3-0.9-0.4-1.8-0.5-2.6c-0.2-1.7-0.3-3.5-0.3-5.2c0-1.7,0-3.4,0.1-5.1
						c0-0.7,0-1.4,0-2.1c0-1,0-1.9-0.1-2.9c-0.1-0.8-0.2-1.6-0.4-2.4c-0.2-0.8-0.5-1.6-0.7-2.4c-0.5-1.6-1.3-3.1-2.3-4.4
						c-1-1.3-2.2-2.4-3.6-3.4c-0.7-0.5-1.4-0.9-2.1-1.2c-0.7-0.3-1.4-0.7-2.1-1c-0.1,0-0.1,0-0.2-0.1c-1.6-0.7-3.1-1.3-4.7-1.8
						s-3.2-1.1-4.8-1.6l-2.4-0.8c-0.8-0.3-1.6-0.5-2.5-0.9c-0.8-0.4-1.6-0.9-2.3-1.5c-0.7-0.6-1.3-1.1-2-1.8
						c-1.3-1.2-2.4-2.5-3.5-3.8c-1.1-1.3-2.2-2.7-3.3-4c-1.1-1.3-2.1-2.7-3.2-4c-0.3-0.3-0.6-0.7-0.9-1c-0.3-0.4-0.5-0.7-0.8-1.1
						c-0.5-0.7-1-1.4-1.5-2.1c-1-1.4-1.9-2.9-2.8-4.3c-1.9-2.9-3.7-5.8-5.5-8.8c-1.8-2.9-3.6-5.9-5.4-8.8c-1.8-3-3.6-5.9-5.3-9
						c-0.4-0.8-0.8-1.5-1.2-2.3c-0.1-0.2-0.2-0.4-0.3-0.6l-0.3-0.6c-0.1-0.2-0.2-0.4-0.3-0.6c-0.1-0.2-0.2-0.4-0.3-0.6
						c-0.8-1.5-1.6-3-2.4-4.5c-1.7-3-3.4-6-5.1-9c-7-11.9-14.2-23.6-21.4-35.4c-7.2-11.8-14.5-23.5-21.7-35.2L38.3,57.6L27.5,40
						c-3.6-5.9-7.3-11.7-11.1-17.5c-1.9-2.9-3.8-5.7-5.8-8.5c-1-1.4-2-2.8-3-4.2C7.3,9.5,7,9.2,6.8,9C6.6,9,6.5,8.9,6.4,8.9
						c0,0-0.1,0-0.1,0c0,0,0,0,0,0c0,0-0.1,0.1-0.1,0.3c0,0.1,0,0.3,0,0.5c0.1,0.4,0.2,0.7,0.3,1.1c1.3,3.2,2.7,6.3,4.1,9.4
						c1.4,3.1,2.8,6.3,4.3,9.4c2.9,6.3,5.8,12.5,8.8,18.7c5.9,12.4,11.9,24.9,17.9,37.3c6,12.4,12,24.8,18.1,37.1l4.6,9.2
						c1.5,3.1,3.1,6.1,4.7,9.2c3.1,6.1,6.4,12.2,9.8,18.1c0.9,1.5,1.7,3,2.6,4.3c0.2,0.3,0.5,0.6,0.7,0.9c0.1,0.1,0.1,0.1,0.1,0.2
						c0,0,0.1,0.1,0.1,0.1c0.1,0,0.1,0.1,0.2,0.1c0.2,0.1,0.6,0.1,1,0.2c0.5,0.1,0.9,0.2,1.4,0.4c0.9,0.3,1.7,0.7,2.5,1.1
						c0.8,0.4,1.6,0.8,2.3,1.3c1.5,0.9,2.9,1.9,4.4,2.9c0.7,0.5,1.4,1,2.1,1.5l0.3,0.2c0,0,0.1,0.1,0.2,0.2c0.1,0.1,0.1,0.1,0.2,0.2
						c0.2,0.2,0.4,0.4,0.5,0.6c0.3,0.4,0.6,0.7,0.8,1.1l3,4.2c0.5,0.7,1,1.4,1.5,2c0.5,0.7,1.1,1.3,1.7,1.8c0.3,0.3,0.7,0.5,1,0.8
						c0.3,0.3,0.6,0.6,0.9,0.9c0.6,0.6,1.1,1.3,1.7,1.9c4.6,5,9.4,10,14,15.2c1.2,1.3,2.3,2.6,3.4,4c1.1,1.3,2.2,2.7,3.2,4.2
						c0.5,0.7,1,1.5,1.5,2.3c0.5,0.8,0.9,1.6,1.3,2.6l0.1,0.4l0.1,0.4l0.1,0.7c0.1,0.4,0.2,0.9,0.2,1.3c0.1,0.9,0.2,1.8,0.3,2.6
						c0.3,3.5,0.3,6.9,0.5,10.3c0.1,3.4,0.3,6.7,1,9.9c0.2,0.8,0.4,1.6,0.7,2.3c0.2,0.7,0.6,1.3,1,2c0.9,1.3,2.1,2.4,3.3,3.4
						c2.6,2,5.5,3.6,8.6,5c1.5,0.7,3.1,1.3,4.6,1.8c0.4,0.1,0.8,0.3,1.2,0.4l0.6,0.2l0.6,0.2l2.5,0.7c3.2,0.9,6.5,1.8,9.7,2.5
						c3.3,0.7,6.6,1.1,9.8,1.2c1.6,0,3.2-0.1,4.8-0.4c0.8-0.1,1.5-0.3,2.3-0.6c0.8-0.2,1.5-0.5,2.1-0.9c0.3-0.2,0.6-0.4,0.9-0.6
						c0.2-0.2,0.4-0.4,0.4-0.6c0-0.1,0-0.1,0-0.1C187.2,256.4,187.1,256.3,187,256.2z M188.1,255c0.2,0.2,0.4,0.5,0.6,0.8
						c0.2,0.3,0.2,0.8,0.2,1.1c-0.1,0.4-0.2,0.7-0.4,0.9c-0.2,0.2-0.3,0.4-0.5,0.6c-0.4,0.3-0.8,0.6-1.2,0.8c-0.8,0.4-1.6,0.8-2.4,1
						c-0.8,0.3-1.7,0.5-2.5,0.7c-1.7,0.3-3.4,0.5-5.1,0.5c-3.4,0-6.8-0.4-10.2-1c-3.4-0.6-6.7-1.5-9.9-2.4l-2.4-0.7l-0.6-0.1
						c-0.2-0.1-0.4-0.1-0.6-0.2c-0.4-0.1-0.8-0.2-1.3-0.4c-1.7-0.5-3.3-1.1-4.9-1.8c-1.6-0.7-3.2-1.4-4.7-2.3
						c-1.5-0.9-3-1.8-4.5-2.9c-1.4-1.1-2.8-2.4-3.9-3.9c-0.6-0.8-1.1-1.6-1.4-2.6c-0.3-0.9-0.6-1.7-0.8-2.6c-0.8-3.5-1-7-1.2-10.4
						c-0.2-3.4-0.2-6.8-0.6-10.1c-0.1-0.8-0.2-1.6-0.3-2.5c-0.1-0.4-0.1-0.8-0.2-1.2l-0.1-0.6l-0.1-0.2l-0.1-0.2
						c-0.2-0.6-0.6-1.3-1-2c-0.4-0.7-0.9-1.4-1.4-2c-2-2.7-4.3-5.2-6.6-7.7c-4.7-5-9.6-9.8-14.3-15c-0.6-0.6-1.2-1.3-1.7-1.9
						c-0.3-0.3-0.6-0.7-0.8-1c-0.2-0.4-0.4-0.8-0.7-1.2c-0.4-0.8-1-1.5-1.5-2.2c-0.5-0.7-1.1-1.4-1.6-2.1l-3-4.2
						c-0.2-0.3-0.5-0.7-0.7-1c-0.1-0.1-0.2-0.3-0.3-0.4c0,0,0,0,0,0c0,0,0,0,0,0c0,0,0,0-0.1,0l-0.3-0.2c-0.7-0.5-1.4-1-2.1-1.5
						c-1.4-1-2.8-1.9-4.2-2.8c-0.7-0.4-1.4-0.8-2.2-1.2c-0.7-0.4-1.5-0.7-2.2-0.9c-0.4-0.1-0.7-0.2-1.1-0.3l-0.6-0.1
						c-0.1,0-0.2-0.1-0.4-0.1c-0.1,0-0.3-0.1-0.4-0.1l-0.2-0.1l-0.2-0.1c-0.2-0.1-0.3-0.2-0.4-0.3c-0.1-0.1-0.3-0.2-0.4-0.3
						c-0.1-0.1-0.2-0.2-0.3-0.3c-0.4-0.4-0.6-0.8-0.9-1.2c-1-1.5-1.9-3-2.8-4.5c-3.6-6-6.9-12-10.2-18.1l-2.4-4.6l-2.4-4.6
						c-1.6-3.1-3.2-6.1-4.7-9.2c-6.2-12.3-12.2-24.8-18-37.3c-5.8-12.5-11.5-25.1-17-37.7c-2.8-6.3-5.5-12.6-8.2-19l-4-9.5
						c-1.3-3.2-2.7-6.3-3.9-9.6c-0.2-0.4-0.3-0.9-0.4-1.4c0-0.2-0.1-0.5,0-0.8c0-0.3,0.1-0.6,0.4-0.9C5.6,8,5.8,7.9,6,7.8
						c0.2-0.1,0.4,0,0.5,0C6.9,7.9,7.1,8,7.3,8.1c0.4,0.3,0.8,0.6,1.1,1c1.1,1.4,2.2,2.7,3.2,4.1c2.1,2.8,4.1,5.5,6.2,8.3
						c4,5.6,8,11.3,11.9,17c7.8,11.4,15.4,23,22.6,34.7c7.3,11.7,14.4,23.6,21.3,35.5c7,11.9,13.8,23.9,20.5,36
						c1.7,3,3.3,6.1,4.9,9.1c0.8,1.5,1.6,3.1,2.4,4.7c0.1,0.2,0.2,0.4,0.3,0.6c0.1,0.2,0.2,0.4,0.3,0.6l0.2,0.6
						c0.1,0.2,0.2,0.4,0.2,0.6c0.3,0.8,0.7,1.5,1.1,2.3c1.6,3,3.3,6,5,9c1.7,3,3.5,5.9,5.3,8.9c1.8,2.9,3.6,5.9,5.4,8.8
						c0.9,1.5,1.9,2.9,2.8,4.3c0.5,0.7,1,1.4,1.4,2.1c0.2,0.3,0.5,0.7,0.7,1c0.3,0.3,0.5,0.6,0.8,1c1.2,1.3,2.2,2.7,3.3,4
						c1.1,1.3,2.1,2.7,3.3,4c1.1,1.3,2.3,2.6,3.5,3.8c0.6,0.6,1.2,1.2,1.9,1.7c0.7,0.5,1.3,1,2,1.3c0.7,0.3,1.5,0.6,2.3,0.9l2.4,0.8
						c1.6,0.5,3.2,1.1,4.8,1.6c1.6,0.6,3.2,1.2,4.8,1.9c0.8,0.3,1.6,0.7,2.4,1.1c0.8,0.4,1.6,0.8,2.3,1.3c1.5,1,2.8,2.2,3.9,3.6
						c1.1,1.4,1.9,3,2.5,4.7c0.3,0.8,0.5,1.7,0.8,2.5c0.3,0.9,0.4,1.8,0.5,2.6c0.2,1.7,0.2,3.5,0.2,5.2c0,1.7,0,3.4,0,5.1
						c0,1.7,0.1,3.4,0.3,5c0.1,0.8,0.3,1.6,0.5,2.4c0.2,0.8,0.5,1.5,1,2.1c0.4,0.6,1,1.1,1.7,1.4c0.7,0.3,1.4,0.6,2.2,0.7
						c1.6,0.3,3.2,0.2,4.8,0.1c1.6-0.1,3.2-0.4,4.9-0.7l2.4-0.5c0.8-0.1,1.6-0.3,2.6-0.4c0.2,0,0.5,0,0.8,0c0.2,0,0.3,0,0.6,0.2
						c0.2,0.1,0.2,0.1,0.2,0.2C188,254.9,188.1,254.9,188.1,255z"/>
					<linearGradient id="SVGID_5_" gradientUnits="userSpaceOnUse" x1="70.6302" y1="151.0828" x2="99.5697" y2="130.8834">
						<stop  offset="0" style="stop-color:#FFFFFF"/>
						<stop  offset="1" style="stop-color:#514D4E"/>
					</linearGradient>
					<path class="st4" d="M7.4,11.5c3,6.3,6.1,12.6,9.2,19c3.1,6.3,6.2,12.6,9.3,18.9l9.3,18.9l9.3,18.9
						c6.3,12.6,12.5,25.2,18.8,37.7c6.3,12.5,12.8,25,19.3,37.4l0.2-0.1c-6-12.7-12.1-25.4-18.3-37.9c-6.2-12.6-12.5-25.1-18.8-37.7
						l-9.5-18.8l-9.5-18.8c-3.2-6.3-6.3-12.5-9.5-18.8c-3.2-6.3-6.4-12.5-9.6-18.7L7.4,11.5z M6.2,9.6c0-0.2,0-0.4,0-0.5
						c0-0.1,0.1-0.3,0.1-0.3c0,0,0,0,0,0c0,0,0,0,0.1,0C6.5,8.9,6.6,9,6.8,9C7,9.2,7.3,9.5,7.6,9.8c1,1.3,2,2.8,3,4.2
						c2,2.8,3.9,5.7,5.8,8.5c3.8,5.8,7.4,11.6,11.1,17.5l10.8,17.6l10.9,17.6c7.3,11.7,14.5,23.5,21.7,35.2
						c7.2,11.8,14.4,23.5,21.4,35.4c1.7,3,3.5,5.9,5.1,9c0.8,1.5,1.7,3,2.4,4.5c0.1,0.2,0.2,0.4,0.3,0.6c0.1,0.2,0.2,0.4,0.3,0.6
						l0.3,0.6c0.1,0.2,0.2,0.4,0.3,0.6c0.4,0.8,0.8,1.6,1.2,2.3c1.7,3,3.5,6,5.3,9c1.8,3,3.6,5.9,5.4,8.8c1.8,2.9,3.7,5.9,5.5,8.8
						c0.9,1.5,1.9,2.9,2.8,4.3c0.5,0.7,1,1.4,1.5,2.1c0.3,0.4,0.5,0.7,0.8,1.1c0.3,0.3,0.6,0.7,0.9,1c1.1,1.3,2.2,2.6,3.2,4
						c1.1,1.3,2.2,2.7,3.3,4c1.1,1.3,2.3,2.6,3.5,3.8c0.6,0.6,1.3,1.2,2,1.8c0.7,0.5,1.4,1.1,2.3,1.5c0.8,0.4,1.6,0.6,2.5,0.9
						l2.4,0.8c1.6,0.5,3.2,1.1,4.8,1.6s3.2,1.2,4.7,1.8c0.1,0,0.1,0,0.2,0.1l-0.3,0.6c-0.7-0.3-1.5-0.6-2.3-0.8
						c-1-0.3-2.1-0.4-3.1-0.5c-1.1,0-2.1,0.1-3.1,0.3c-1,0.2-2,0.6-2.9,1.1c-0.9,0.5-1.7,1.1-2.4,1.8c-1.5,1.3-2.7,2.9-3.5,4.7
						c-0.4,0.9-0.8,1.8-1,2.8c-0.2,1-0.4,1.9-0.4,2.9c0,1,0,2,0.1,2.9s0.4,1.9,0.7,2.9c0.6,1.9,1.5,3.7,2.6,5.3
						c1.1,1.6,2.4,3.1,3.9,4.4c1.5,1.3,3.3,2.3,5.1,2.8c1.9,0.6,3.9,0.7,5.9,0.3c1.9-0.3,3.8-1.1,5.5-2.2c1.7-1,3.2-2.4,4.4-4.1
						c1.2-1.7,1.9-3.8,2.1-5.9c0.1-0.5,0.1-1.1,0.1-1.6l0.2,0c0,0.7,0,1.4,0,2.1c0,1.7-0.1,3.4-0.1,5.1c0,1.7,0,3.4,0.3,5.2
						c0.1,0.9,0.3,1.8,0.5,2.6c0.3,0.9,0.6,1.8,1.2,2.6c0.6,0.8,1.4,1.4,2.2,1.9c0.8,0.4,1.7,0.7,2.6,0.9c1.8,0.3,3.5,0.3,5.2,0.2
						c1.7-0.1,3.4-0.4,5-0.7l2.5-0.4c0.8-0.1,1.6-0.3,2.4-0.3c0.2,0,0.4,0,0.5,0c0,0,0,0,0,0c0,0,0.1,0,0.1,0.1
						c0.1,0.1,0.2,0.2,0.2,0.2c0,0.1,0,0.1,0,0.1c0,0.1-0.2,0.3-0.4,0.6c-0.2,0.2-0.5,0.4-0.9,0.6c-0.7,0.4-1.4,0.6-2.1,0.9
						c-0.7,0.2-1.5,0.4-2.3,0.6c-1.6,0.3-3.2,0.4-4.8,0.4c-3.3,0-6.6-0.5-9.8-1.2c-3.3-0.7-6.5-1.5-9.7-2.5l-2.5-0.7L154,255
						l-0.6-0.2c-0.4-0.1-0.8-0.2-1.2-0.4c-1.6-0.5-3.1-1.1-4.6-1.8c-3-1.4-6-3-8.6-5c-1.3-1-2.5-2.1-3.3-3.4c-0.4-0.6-0.8-1.3-1-2
						c-0.3-0.8-0.5-1.5-0.7-2.3c-0.7-3.2-0.9-6.5-1-9.9c-0.1-3.4-0.1-6.8-0.5-10.3c-0.1-0.9-0.2-1.7-0.3-2.6
						c-0.1-0.4-0.1-0.9-0.2-1.3l-0.1-0.7l-0.1-0.4l-0.1-0.4c-0.3-1-0.8-1.8-1.3-2.6c-0.5-0.8-1-1.5-1.5-2.3c-1-1.5-2.1-2.8-3.2-4.2
						c-1.1-1.3-2.3-2.7-3.4-4c-4.6-5.2-9.4-10.2-14-15.2c-0.6-0.6-1.1-1.3-1.7-1.9c-0.3-0.3-0.6-0.6-0.9-0.9c-0.3-0.3-0.7-0.5-1-0.8
						c-0.7-0.5-1.2-1.2-1.7-1.8c-0.5-0.7-1-1.4-1.5-2l-3-4.2c-0.3-0.4-0.5-0.7-0.8-1.1c-0.2-0.2-0.3-0.4-0.5-0.6
						c-0.1-0.1-0.1-0.1-0.2-0.2c-0.1-0.1-0.2-0.1-0.2-0.2l-0.3-0.2c-0.7-0.5-1.4-1-2.1-1.5c-1.4-1-2.9-2-4.4-2.9
						c-0.8-0.5-1.5-0.9-2.3-1.3c-0.8-0.4-1.6-0.8-2.5-1.1c-0.4-0.2-0.9-0.3-1.4-0.4c-0.4-0.1-0.9-0.2-1-0.2c-0.1,0-0.1-0.1-0.2-0.1
						c0,0-0.1-0.1-0.1-0.1c0-0.1-0.1-0.1-0.1-0.2c-0.2-0.2-0.4-0.6-0.7-0.9c-0.9-1.3-1.8-2.9-2.6-4.3c-3.4-5.9-6.6-12-9.8-18.1
						c-1.6-3.1-3.1-6.1-4.7-9.2l-4.6-9.2C53.7,110.3,47.6,98,41.6,85.6c-6-12.4-12-24.8-17.9-37.3c-3-6.2-5.9-12.5-8.8-18.7
						c-1.4-3.1-2.9-6.3-4.3-9.4c-1.4-3.1-2.8-6.3-4.1-9.4C6.4,10.4,6.3,10,6.2,9.6z"/>
					<linearGradient id="SVGID_6_" gradientUnits="userSpaceOnUse" x1="34.9976" y1="93.971" x2="55.3953" y2="79.7337">
						<stop  offset="0" style="stop-color:#514D4E"/>
						<stop  offset="0.9885" style="stop-color:#000000"/>
					</linearGradient>
					<path class="st5" d="M7.7,11.4c3.2,6.2,6.4,12.5,9.6,18.7c3.2,6.2,6.4,12.5,9.5,18.8l9.5,18.8l9.5,18.8
						c6.3,12.6,12.6,25.1,18.8,37.7c6.2,12.6,12.3,25.2,18.3,37.9l-0.2,0.1c-6.6-12.4-13-24.9-19.3-37.4
						C57,112.3,50.8,99.7,44.5,87.2l-9.3-18.9l-9.3-18.9c-3.1-6.3-6.2-12.6-9.3-18.9c-3.1-6.3-6.1-12.6-9.2-19L7.7,11.4z"/>
					<linearGradient id="SVGID_7_" gradientUnits="userSpaceOnUse" x1="137.3377" y1="242.9816" x2="160.8382" y2="226.5786">
						<stop  offset="0" style="stop-color:#514D4E"/>
						<stop  offset="0.9885" style="stop-color:#000000"/>
					</linearGradient>
					<path class="st6" d="M141.7,247.3c1.5,1.2,3.3,2,5.1,2.4c1.8,0.4,3.7,0.3,5.4-0.2c1.7-0.5,3.3-1.4,4.6-2.5
						c1.4-1.1,2.5-2.4,3.3-3.9c0.4-0.7,0.7-1.5,0.9-2.3c0.2-0.8,0.3-1.6,0.3-2.5c0-1.7-0.3-3.4-0.9-5c-0.6-1.6-1.5-3.2-2.5-4.7
						c-0.5-0.7-1.1-1.4-1.7-2.1c-0.6-0.6-1.2-1.3-1.9-1.8c-1.4-1.1-2.9-2-4.5-2.6c-3.2-1.2-6.9-1-9.7,1.1c-1.4,1-2.7,2.3-3.6,3.8
						c-0.9,1.5-1.5,3.3-1.8,5.2c-0.2,1.9,0,3.8,0.5,5.6c0.5,1.9,1.4,3.6,2.5,5.2C138.9,244.7,140.2,246.2,141.7,247.3z M137.5,243.3
						c-1.1-1.6-2-3.4-2.6-5.3c-0.3-0.9-0.5-1.9-0.7-2.9s-0.2-2-0.1-2.9c0-1,0.2-2,0.4-2.9c0.2-1,0.6-1.9,1-2.8
						c0.8-1.8,2.1-3.4,3.5-4.7c0.7-0.6,1.5-1.3,2.4-1.8c0.9-0.5,1.9-0.8,2.9-1.1c1-0.2,2.1-0.3,3.1-0.3c1.1,0,2.1,0.2,3.1,0.5
						c0.8,0.2,1.5,0.5,2.3,0.8c1.2,0.5,2.4,1.2,3.5,2c0.9,0.6,1.7,1.4,2.4,2.1c0.7,0.8,1.4,1.6,2,2.5c1.2,1.7,2.2,3.6,2.9,5.7
						c0.5,1.5,0.8,3.1,0.8,4.8c0,0.5,0,1.1-0.1,1.6c-0.2,2.1-1,4.2-2.1,5.9c-1.2,1.7-2.7,3.1-4.4,4.1c-1.7,1-3.5,1.8-5.5,2.2
						c-1.9,0.4-4,0.3-5.9-0.3c-1.9-0.6-3.6-1.6-5.1-2.8C140,246.4,138.7,244.9,137.5,243.3z"/>
				</g>
				<g>
				</g>
			</g>
		</g>
	</g>
	
		<linearGradient id="SVGID_8_" gradientUnits="userSpaceOnUse" x1="-192.2196" y1="-831.8829" x2="-176.1356" y2="-831.8829" gradientTransform="matrix(0.82 -0.5724 0.5997 0.8592 731.2027 754.1687)">
		<stop  offset="0" style="stop-color:#514D4E"/>
		<stop  offset="0.9885" style="stop-color:#000000"/>
	</linearGradient>
	<path class="st7" d="M87.9,140.2c2.7,3.8,1.9,9-1.8,11.5c-3.6,2.5-8.8,1.5-11.4-2.3c-2.7-3.8-1.9-9,1.8-11.5S85.2,136.4,87.9,140.2
		z"/>
	
		<linearGradient id="SVGID_9_" gradientUnits="userSpaceOnUse" x1="-189.807" y1="-831.8829" x2="-178.5482" y2="-831.8829" gradientTransform="matrix(0.82 -0.5724 0.5997 0.8592 731.2027 754.1687)">
		<stop  offset="0" style="stop-color:#FFFFFF"/>
		<stop  offset="1" style="stop-color:#514D4E"/>
	</linearGradient>
	<path class="st8" d="M85.9,141.6c1.9,2.7,1.3,6.3-1.2,8.1c-2.5,1.8-6.1,1.1-8-1.6c-1.9-2.7-1.3-6.3,1.2-8.1
		C80.4,138.2,84,138.9,85.9,141.6z"/>
	
		<linearGradient id="SVGID_10_" gradientUnits="userSpaceOnUse" x1="-186.3221" y1="-831.8829" x2="-182.0331" y2="-831.8829" gradientTransform="matrix(0.82 -0.5724 0.5997 0.8592 731.2027 754.1687)">
		<stop  offset="0" style="stop-color:#514D4E"/>
		<stop  offset="0.9885" style="stop-color:#000000"/>
	</linearGradient>
	<path class="st9" d="M83,143.6c0.7,1,0.5,2.4-0.5,3.1c-1,0.7-2.3,0.4-3-0.6c-0.7-1-0.5-2.4,0.5-3.1S82.3,142.5,83,143.6z"/>
</g>
</svg>
