<svg id="Layer_1" data-name="Layer 1" xmlns="http://www.w3.org/2000/svg" viewBox="0 0 56.97 56.97"><defs><style>.cls-1{fill:#141f44;}.cls-2{fill:#fff;}</style></defs><title>shampoo_S</title><circle class="cls-1" cx="28.48" cy="28.48" r="28.48"/><circle class="cls-2" cx="28.48" cy="28.6" r="26.21"/><ellipse class="cls-1" cx="26.17" cy="12.25" rx="3.26" ry="3.57"/><circle class="cls-1" cx="18.39" cy="9.21" r="1.37"/><circle class="cls-1" cx="33.53" cy="8.79" r="2.21"/><path class="cls-1" d="M46.67,16.81l-1.22,1.56a9.24,9.24,0,0,1-4.22-1.56,9.35,9.35,0,0,1-2.55-4s1-1.19,1.16-1.36C41,10,43.4,10,45.35,11.54S47.81,15.35,46.67,16.81Z" transform="translate(-0.91 -0.91)"/><path class="cls-2" d="M46.07,16.77c-1,1.24-3,1.26-4.73-.1S39.05,13.27,40,12s3.08-1.2,4.82.15S47,15.53,46.07,16.77Z" transform="translate(-0.91 -0.91)"/><ellipse class="cls-1" cx="42.15" cy="15.48" rx="3.34" ry="4.37" transform="translate(3.09 38.26) rotate(-52)"/><ellipse class="cls-2" cx="41.95" cy="15.75" rx="2.84" ry="3.89" transform="translate(2.8 38.2) rotate(-52)"/><rect class="cls-1" x="37.28" y="13.21" width="5.73" height="9.75" rx="2.86" transform="translate(18.74 -21.79) rotate(38)"/><rect class="cls-2" x="37.95" y="14.28" width="4.16" height="8" rx="2.08" transform="translate(18.83 -21.68) rotate(38)"/><rect class="cls-1" x="19.14" y="16.08" width="15.78" height="36.98" rx="7.89" transform="translate(26.11 -10.22) rotate(38)"/><rect class="cls-2" x="20.13" y="17.43" width="13.92" height="34.3" rx="6.96" transform="matrix(0.79, 0.62, -0.62, 0.79, 26.13, -10.25)"/><ellipse class="cls-1" cx="18.8" cy="45" rx="4.38" ry="6.96" transform="translate(-29.15 31.2) rotate(-52)"/><ellipse class="cls-2" cx="18.53" cy="45.35" rx="3.73" ry="6.19" transform="translate(-29.52 31.12) rotate(-52)"/><path class="cls-1" d="M16.66,38.05s2.29-.44,5.74,2.26c3.63,2.83,3.58,5,3.58,5L38.06,29.88s.33-2.38-3.29-5.22c-2.77-2.16-5.46-2.45-6-2.07S16.66,38.05,16.66,38.05Z" transform="translate(-0.91 -0.91)"/><path class="cls-2" d="M18.12,37.21S20,37.08,23,39.48a16,16,0,0,1,3.59,4L37,30.19s.29-2.12-2.94-4.65c-2.46-1.92-4.85-2.18-5.37-1.84S18.12,37.21,18.12,37.21Z" transform="translate(-0.91 -0.91)"/><polygon class="cls-1" points="29.8 33.11 29.39 31.2 27.57 30.46 29.27 29.47 29.41 27.52 30.87 28.82 32.78 28.35 31.99 30.15 33.02 31.81 31.07 31.62 29.8 33.11"/><polygon class="cls-1" points="24.39 33.26 23.99 32.17 22.87 31.88 23.79 31.16 23.72 30 24.68 30.66 25.77 30.23 25.44 31.35 26.18 32.25 25.02 32.29 24.39 33.26"/><polygon class="cls-1" points="25.73 36.4 25.46 35.52 24.57 35.24 25.33 34.71 25.32 33.78 26.06 34.34 26.94 34.04 26.64 34.92 27.19 35.66 26.27 35.65 25.73 36.4"/></svg>